<svg xmlns="http://www.w3.org/2000/svg" width="195" height="65" viewBox="0 0 195 65">
    <g fill="#000" fill-rule="evenodd">
        <path d="M75.56 21.84l.096.014.028-.232a7.48 7.48 0 0 1 .08-.573c.01-.076.023-.152.037-.227l-.098-.013c-.013.066-.025.132-.053.194a.165.165 0 0 1-.056.079.141.141 0 0 1-.085.03.765.765 0 0 1-.144-.008l-1.527-.21a.702.702 0 0 1-.145-.032c-.07-.024-.096-.072-.104-.143a.97.97 0 0 1 .005-.2l-.097-.013-.029.227-.022.16c-.008.086-.02.17-.035.255l-.022.16a5.18 5.18 0 0 0-.036.229l.095.014c.014-.066.027-.132.05-.195a.218.218 0 0 1 .057-.08.147.147 0 0 1 .084-.028c.042-.003.09 0 .148.008l1.528.21a.649.649 0 0 1 .14.03.14.14 0 0 1 .074.051.18.18 0 0 1 .033.093c.008.067.002.134-.003.2zm-.903 2.297l.17.044.13.034.157.05c.007-.076.022-.149.037-.223.01-.032.016-.064.023-.094.047-.176.096-.35.138-.528.02-.078.04-.152.056-.222.041-.151.078-.305.125-.455a10 10 0 0 1 .064-.22l-.088-.023c-.022.062-.042.127-.077.185a.176.176 0 0 1-.065.073.146.146 0 0 1-.088.018.81.81 0 0 1-.143-.024l-1.496-.395a.85.85 0 0 1-.139-.048c-.067-.034-.087-.084-.087-.155.001-.068.016-.133.03-.199l-.094-.025a7.33 7.33 0 0 0-.056.224l-.043.155a1.51 1.51 0 0 1-.03.126l-.252.907-.021.074c-.01.03-.02.06-.028.092l-.032.095c-.016.038-.03.076-.043.113l.312.111c.106.04.21.083.313.126l.024-.09a1.235 1.235 0 0 1-.219-.166.464.464 0 0 1-.146-.338c.002-.141.062-.348.122-.475a.32.32 0 0 1 .106-.129.28.28 0 0 1 .158-.031c.183.014.635.147.734.174-.038.133-.067.284-.13.41a.35.35 0 0 1-.085.122.197.197 0 0 1-.108.048c-.067.013-.132 0-.197-.013l-.026.094.2.044.132.028.198.053.125.038.187.058.025-.093a.466.466 0 0 1-.155-.08.269.269 0 0 1-.085-.108.464.464 0 0 1-.033-.167c0-.137.046-.273.081-.404l.907.239c-.05.184-.093.38-.183.55a.556.556 0 0 1-.15.194.341.341 0 0 1-.17.075 2.294 2.294 0 0 1-.251.022l-.023.087.189.042zm-2.916 1.985l1.603.736c.09.042.162.08.219.115a.41.41 0 0 1 .12.102.19.19 0 0 1 .033.111c0 .067-.026.131-.05.193l.089.042.071-.166c.063-.15.133-.301.21-.446.027-.06.057-.117.087-.175l-.089-.041c-.037.07-.07.132-.12.194a.139.139 0 0 1-.095.057.296.296 0 0 1-.155-.017 2.658 2.658 0 0 1-.256-.105l-1.008-.464-.037.008 2.256-.695.2-.427-.088-.04a.908.908 0 0 1-.11.174.125.125 0 0 1-.1.05.454.454 0 0 1-.191-.036c-.317-.112-1.096-.49-1.214-.545a2.12 2.12 0 0 1-.222-.115.4.4 0 0 1-.117-.103.183.183 0 0 1-.035-.112.602.602 0 0 1 .052-.19l-.088-.041a4.818 4.818 0 0 0-.068.153l-.05.108a2.57 2.57 0 0 1-.097.208l-.063.131-.089.184.088.04c.036-.066.067-.124.113-.187a.172.172 0 0 1 .097-.06.323.323 0 0 1 .153.014c.067.019.154.054.263.104l1 .46.038-.006-2.31.7-.04.087zm.3 2.673c.056.033.114.065.17.099l.248.158.133.095.038-.056a.964.964 0 0 1 .083-.1l.084-.083c.029-.029.058-.06.09-.096.097-.112.178-.254.216-.397a.773.773 0 0 0 .028-.263.562.562 0 0 0-.461-.511.714.714 0 0 0-.215.006 1.32 1.32 0 0 0-.235.079c-.082.037-.173.08-.272.13a4.048 4.048 0 0 1-.242.113.76.76 0 0 1-.182.059.367.367 0 0 1-.136.004.442.442 0 0 1-.246-.155.336.336 0 0 1-.074-.127.4.4 0 0 1-.007-.161.654.654 0 0 1 .259-.373.601.601 0 0 1 .204-.076.755.755 0 0 1 .218-.002c.085.012.166.03.248.052l.051-.079a3.978 3.978 0 0 1-.298-.15l-.286-.164a.953.953 0 0 1-.113.15l-.087.1c-.15.151-.27.328-.333.533a.878.878 0 0 0-.038.298c.006.099.03.19.076.274a.58.58 0 0 0 .399.294c.065.013.135.01.21-.008.07-.015.151-.043.239-.086a6.96 6.96 0 0 0 .306-.14c.1-.05.186-.088.255-.115a.984.984 0 0 1 .175-.047.235.235 0 0 1 .114.003.437.437 0 0 1 .275.253.299.299 0 0 1 .014.134c-.009.117-.124.26-.224.315a.42.42 0 0 1-.187.059.627.627 0 0 1-.205-.023 2.051 2.051 0 0 1-.24-.075l-.052.079zm-1.822.325l1.2.959a.676.676 0 0 1 .105.097.136.136 0 0 1 .037.082.176.176 0 0 1-.02.095c-.029.063-.067.117-.106.172l.075.061a6.06 6.06 0 0 1 .145-.184c.116-.154.24-.305.368-.45a5.72 5.72 0 0 1 .148-.177l-.077-.061a.867.867 0 0 1-.145.139.167.167 0 0 1-.09.04.14.14 0 0 1-.09-.02.733.733 0 0 1-.118-.078l-1.2-.96a.687.687 0 0 1-.107-.1c-.047-.057-.045-.11-.016-.175.028-.061.07-.115.108-.17l-.075-.06c-.049.06-.096.119-.143.18l-.103.127a3.678 3.678 0 0 1-.162.198l-.102.125-.15.18.074.06c.046-.05.092-.099.146-.14a.213.213 0 0 1 .09-.04.157.157 0 0 1 .086.018.675.675 0 0 1 .122.082zm-1.582 1.283a.642.642 0 0 0 .012.283c.039.157.168.315.321.376.06.026.13.04.206.04.074 0 .159-.01.253-.031.094-.018.204-.041.33-.07.11-.025.202-.043.274-.053a.91.91 0 0 1 .183-.01.281.281 0 0 1 .11.03.45.45 0 0 1 .21.31.303.303 0 0 1-.016.131c-.036.114-.181.226-.29.257a.427.427 0 0 1-.197.016.657.657 0 0 1-.194-.068 2.042 2.042 0 0 1-.218-.127l-.067.066.142.134.114.117.09.091.111.124.05-.047a.64.64 0 0 1 .102-.077l.102-.063c.034-.022.07-.046.109-.074.12-.087.232-.207.3-.338a.77.77 0 0 0 .088-.25.582.582 0 0 0-.017-.25.582.582 0 0 0-.316-.352.675.675 0 0 0-.21-.04c-.077 0-.16.006-.248.024a6.367 6.367 0 0 0-.296.065c-.1.025-.186.044-.26.057a.79.79 0 0 1-.19.016.337.337 0 0 1-.135-.026.44.44 0 0 1-.202-.205.311.311 0 0 1-.043-.14.36.36 0 0 1 .028-.158.664.664 0 0 1 .338-.308.606.606 0 0 1 .216-.028.805.805 0 0 1 .214.048c.079.029.154.065.228.106l.068-.066a3.332 3.332 0 0 1-.255-.215 15.44 15.44 0 0 1-.243-.222.949.949 0 0 1-.144.122 4.836 4.836 0 0 1-.107.077 1.32 1.32 0 0 0-.446.446.89.89 0 0 0-.105.282zM64.63 33a.525.525 0 0 1 .21.06c.042.02.091.044.145.072l.879.48-.114.72c-.007.064-.02.127-.036.19-.015.06-.035.116-.06.169a.64.64 0 0 1-.094.143.647.647 0 0 1-.175.126l.046.087c.057-.033.115-.064.172-.096.038-.021.078-.044.119-.064.06-.035.125-.068.19-.096l.092-.044.134-.057-.045-.088c-.051.023-.107.055-.164.053-.067-.008-.07-.068-.065-.12l.022-.154.118-.7-.02-.013c.108.052.214.105.32.16a7.518 7.518 0 0 1 .383.198c.055.03.1.056.135.08a.28.28 0 0 1 .052.041c.025.047-.116.117-.144.13l.045.089c.059-.034.118-.066.176-.098.04-.023.08-.044.12-.065.069-.038.137-.073.208-.106l.127-.06.18-.082-.045-.087a.46.46 0 0 1-.138.043.603.603 0 0 1-.111-.008 1.184 1.184 0 0 1-.121-.038 2.349 2.349 0 0 1-.129-.062l-.991-.504.094-.798a.633.633 0 0 1 .032-.158.4.4 0 0 1 .148-.205c.048-.036.099-.068.15-.1l-.044-.085c-.052.028-.102.057-.153.086-.142.08-.289.154-.437.22l-.18.083.046.087c.044-.021.068-.038.117-.048a.189.189 0 0 1 .068-.004.11.11 0 0 1 .04.017.186.186 0 0 1 .063.136c.002.03 0 .092-.007.146l-.072.547.019.017-.187-.097a8.055 8.055 0 0 1-.499-.293.529.529 0 0 1-.101-.076c-.028-.053.11-.116.143-.133l-.046-.088-.17.096c-.143.079-.292.155-.44.223l-.176.08.045.085c.04-.017.08-.035.126-.037zm-1.658.595c.065-.018.13-.036.198-.041a.178.178 0 0 1 .099.013c.022.01.045.03.064.062.02.032.039.075.059.13l.505 1.443a.729.729 0 0 1 .036.141c.01.074-.02.118-.08.158-.057.036-.121.061-.183.087l.031.09.218-.076.155-.053c.08-.032.161-.06.245-.085l.153-.053c.075-.023.15-.047.223-.073l-.031-.09c-.066.018-.13.036-.197.042a.196.196 0 0 1-.098-.012.153.153 0 0 1-.065-.062.764.764 0 0 1-.06-.133l-.504-1.443a.65.65 0 0 1-.036-.138.146.146 0 0 1 .011-.087.2.2 0 0 1 .07-.072.9.9 0 0 1 .181-.088l-.033-.091-.22.079a7.1 7.1 0 0 1-.553.189 5.873 5.873 0 0 1-.22.072l.032.091zm-2.465.52l-.188.032.02.096c.043-.007.087-.015.13-.004.03.006.06.02.09.038.03.017.065.043.098.073.037.03.077.066.122.106l.722.69-.296.667a1.95 1.95 0 0 1-.085.173c-.03.053-.064.103-.102.148a.59.59 0 0 1-.129.114.67.67 0 0 1-.202.076l.02.098c.065-.018.129-.033.193-.05.042-.01.086-.022.13-.03.07-.019.14-.035.21-.045.037-.007.07-.014.101-.018l.144-.023-.021-.096c-.054.01-.118.026-.172.008-.063-.022-.05-.082-.03-.132.017-.044.037-.09.06-.142l.298-.646-.017-.019c.09.079.18.157.268.237l.17.151c.055.05.104.096.147.14.045.042.082.08.11.11.029.034.038.051.04.055.011.052-.143.082-.173.089l.02.096.196-.049c.044-.012.088-.022.133-.03a2.32 2.32 0 0 1 .229-.05 3.56 3.56 0 0 1 .138-.026l.194-.034-.02-.095c-.049.007-.094.014-.145.006a.502.502 0 0 1-.211-.104 1.909 1.909 0 0 1-.108-.092l-.827-.742.3-.746a.64.64 0 0 1 .072-.145.405.405 0 0 1 .197-.16 1.75 1.75 0 0 1 .171-.058l-.02-.094c-.058.013-.114.03-.171.044a4.873 4.873 0 0 1-.479.101l-.195.035.02.096c.05-.01.076-.02.126-.018a.181.181 0 0 1 .067.015.07.07 0 0 1 .034.027c.028.033.037.089.025.145a.799.799 0 0 1-.044.14l-.212.51.013.02a26.1 26.1 0 0 1-.156-.14 9.013 9.013 0 0 1-.405-.411c-.01-.011-.075-.082-.078-.1-.013-.058.137-.083.173-.091l-.02-.097-.19.048c-.16.043-.323.076-.485.103zm-2.065.164c-.078.005-.155.01-.233.013l.007.096c.068 0 .136-.003.203.011.043.006.073.021.091.038.02.015.036.04.046.076.01.036.018.082.023.142l.11 1.522a.813.813 0 0 1 0 .145c-.011.074-.053.109-.12.133-.065.02-.133.028-.2.036l.007.096a4.48 4.48 0 0 0 .23-.02l.164-.01c.054-.007.098-.01.13-.013l.948-.058.077-.005c.031 0 .064-.002.098-.005l.1-.001c.042.004.082.004.124.004 0-.11.002-.22.003-.329.004-.11.01-.223.02-.333l-.096.006c-.032.148-.082.3-.199.407-.158.144-.45.157-.655.143a.335.335 0 0 1-.156-.046.265.265 0 0 1-.083-.128 1.147 1.147 0 0 1-.039-.247l-.097-1.324a.759.759 0 0 1 .002-.143.152.152 0 0 1 .032-.081.19.19 0 0 1 .084-.05c.066-.023.135-.032.202-.041l-.006-.097c-.078.008-.156.017-.234.022-.193.022-.39.034-.583.041zm-2.813.98c-.052.505.174.94.639 1.164.207.098.457.15.688.137a6.885 6.885 0 0 0 .386-.02.889.889 0 0 1 .169.003l.061-.32c.023-.109.05-.218.078-.326l-.092-.01a3.99 3.99 0 0 1-.141.243.774.774 0 0 1-.148.175.544.544 0 0 1-.207.105.793.793 0 0 1-.577-.074c-.22-.126-.352-.351-.418-.588-.073-.278-.038-.7.09-.959a.837.837 0 0 1 .223-.286.732.732 0 0 1 .3-.147c.258-.06.61-.036.778.195.041.056.074.12.097.191.027.083.047.167.065.252l.09.01c.013-.217.036-.434.068-.648a1.38 1.38 0 0 1-.204-.032 5.623 5.623 0 0 0-.165-.042c-.303-.086-.575-.124-.893-.046a1.107 1.107 0 0 0-.742.544c-.078.14-.126.301-.145.48zm-2.477.115l.442-1.647c.012.001.025.005.04.006.033.005.068.013.1.02.034.008.07.016.101.025.157.03.307.088.442.171a.828.828 0 0 1 .27.254c.067.1.11.224.127.368.048.375-.138.97-.484 1.16-.2.11-.468.124-.81.035-.124-.033-.195-.083-.222-.144-.03-.063-.034-.145-.006-.248zm-.778.16l-.025.094c.076.019.154.04.23.056l.162.043c.084.019.167.04.25.066.046.011.093.026.138.039l.137.036c.38.1.835.2 1.212.016.274-.133.46-.385.558-.75.1-.373.057-.684-.137-.93-.19-.243-.504-.419-.936-.533a6.052 6.052 0 0 1-.213-.052 7.569 7.569 0 0 1-.58-.155c-.075-.018-.15-.04-.224-.062l-.025.095c.064.02.13.041.187.075.039.02.063.042.074.065.014.02.022.05.019.087a.642.642 0 0 1-.026.141l-.396 1.475a.69.69 0 0 1-.049.137c-.034.067-.084.086-.156.087-.068-.002-.135-.017-.2-.03zM48.89 33.92l-.045.086c.051.026.101.05.153.073l.107.054c.066.03.132.062.196.098l.112.057c.05.028.103.055.156.08l.043-.085c-.062-.036-.129-.072-.186-.118a.13.13 0 0 1-.046-.089.338.338 0 0 1 .036-.143c.162-.368.61-1.203.657-1.296l-.042 2 .108.054 1.593-1.315-.672 1.309c-.026.051-.05.095-.072.13a.166.166 0 0 1-.061.057.151.151 0 0 1-.08.007c-.059-.01-.113-.036-.168-.06l-.044.085c.06.03.12.06.18.087l.126.064c.076.034.15.071.223.111l.145.074c.069.037.138.072.209.107l.042-.084c-.057-.035-.116-.068-.168-.111a.216.216 0 0 1-.058-.08.142.142 0 0 1 0-.088.72.72 0 0 1 .055-.135l.703-1.372a1.44 1.44 0 0 1 .072-.127.137.137 0 0 1 .059-.055.132.132 0 0 1 .084-.004c.063.013.123.04.181.065l.041-.08-.54-.271-1.587 1.32.044-2.095-.56-.281-.041.08c.06.034.121.068.173.116a.126.126 0 0 1 .045.098.448.448 0 0 1-.042.19c-.125.312-.534 1.07-.595 1.187a2.218 2.218 0 0 1-.123.215.379.379 0 0 1-.11.113.184.184 0 0 1-.113.03.566.566 0 0 1-.19-.058zm.356-22.172zm8.947 8.858v-.194.194zm1.87 2.239l.24.047a1.346 1.346 0 0 1 1.322-1.072c.654 0 1.2.461 1.321 1.072l.241-.047a1.59 1.59 0 0 0-1.562-1.267c-.773 0-1.418.544-1.563 1.267zm-3.98.047l.241-.047a1.59 1.59 0 0 0-1.562-1.267c-.773 0-1.418.544-1.563 1.267l.24.047a1.346 1.346 0 0 1 1.323-1.072c.654 0 1.198.461 1.322 1.072zm3.98-4.659l.24.048a1.345 1.345 0 0 1 1.322-1.073c.654 0 1.2.46 1.322 1.073l.24-.048a1.589 1.589 0 0 0-1.562-1.267 1.59 1.59 0 0 0-1.563 1.267zm-3.98.048l.241-.048a1.59 1.59 0 0 0-1.563-1.267 1.59 1.59 0 0 0-1.562 1.267l.24.048a1.345 1.345 0 0 1 1.322-1.073c.655 0 1.2.46 1.323 1.073zm2.11-1.315a1.59 1.59 0 0 0-1.562 1.267l.24.048a1.345 1.345 0 0 1 1.322-1.073c.654 0 1.2.46 1.322 1.073l.24-.048a1.588 1.588 0 0 0-1.562-1.267zm0-1.147v.175-.175zm-2.1-1.813l.24-.047a1.102 1.102 0 0 0-1.572-.764 1.106 1.106 0 0 0-1.572.764l.24.047a.858.858 0 0 1 1.088-.645c.088.025.17.065.244.115a.831.831 0 0 1 .245-.115.855.855 0 0 1 1.086.645zm2.59-2.987c0 .268-.22.485-.49.486a.489.489 0 0 1-.49-.486c0-.268.219-.485.49-.485.27 0 .49.217.49.485zm.245 0a.731.731 0 0 0-.735-.728.731.731 0 0 0-.735.728c0 .402.329.73.735.73a.732.732 0 0 0 .735-.73zm.597 2.987l.24-.047a1.102 1.102 0 0 0-1.572-.764 1.105 1.105 0 0 0-1.571.764l.24.047a.856.856 0 0 1 1.086-.645c.089.025.172.065.245.115a.831.831 0 0 1 .245-.115.857.857 0 0 1 1.087.645zm3.431 0l.241-.047a1.103 1.103 0 0 0-1.572-.764 1.108 1.108 0 0 0-1.572.764l.24.047a.855.855 0 0 1 1.087-.645c.089.025.171.065.245.115a.827.827 0 0 1 .246-.115.856.856 0 0 1 1.086.645zm2.222-2.258h.001zm3.923 0zm.98 0h.001zm-.656 1.849h-.307c.09.097.158.213.196.343.007.022.01.045.016.067l.24-.047-.004-.02a1.107 1.107 0 0 0-.14-.343zm-2.015.343c0 .006-.002.013-.004.02l.241.047a.477.477 0 0 1 .017-.067h-.085.085a.863.863 0 0 1 1.454-.343h.307a1.105 1.105 0 0 0-.936-.516 1.104 1.104 0 0 0-1.079.859zm-.558-.343h-.306c.09.097.157.213.195.343l.017.067.24-.047-.004-.02a1.086 1.086 0 0 0-.142-.343zm-2.014.343c-.002.006-.002.013-.005.02l.24.047.018-.067h-.084.084a.855.855 0 0 1 .825-.616c.248 0 .473.106.63.273h.306a1.106 1.106 0 0 0-.936-.516 1.104 1.104 0 0 0-1.078.859zm1.919 4.679l.24-.048c-.101-.5-.547-.878-1.082-.878s-.982.378-1.082.878l.24.048a.855.855 0 0 1 .842-.683c.416 0 .763.294.842.683zm2.572 0l.241-.048c-.1-.5-.546-.878-1.081-.878-.535 0-.982.378-1.083.878l.241.048a.856.856 0 0 1 .842-.683c.416 0 .763.294.84.683zm2.575 0l.24-.048a1.102 1.102 0 0 0-1.081-.878 1.1 1.1 0 0 0-1.082.878l.24.048a.856.856 0 0 1 .842-.683c.416 0 .762.294.84.683zm-5.147 4.611l.24-.047a1.1 1.1 0 0 0-1.082-.877 1.1 1.1 0 0 0-1.082.877l.24.047a.854.854 0 0 1 .842-.681c.416 0 .763.292.842.681zm2.572 0l.241-.047a1.1 1.1 0 0 0-1.081-.877c-.535 0-.982.377-1.083.877l.241.047a.855.855 0 0 1 .842-.681c.416 0 .763.292.84.681zm-20.59 0l.24-.047a1.1 1.1 0 0 0-1.081-.877 1.1 1.1 0 0 0-1.082.877l.24.047a.856.856 0 0 1 .842-.681c.416 0 .763.292.841.681zm2.575 0l.24-.047a1.1 1.1 0 0 0-1.082-.877 1.1 1.1 0 0 0-1.082.877l.24.047a.857.857 0 0 1 .842-.681c.416 0 .762.292.842.681zm-4.045-9.633h-.308c-.065.104-.113.22-.14.343l-.005.02.24.047.016-.067a.86.86 0 0 1 .197-.343zm1.47.41l.24-.047a1.078 1.078 0 0 0-.145-.363 1.107 1.107 0 0 0-1.873 0h.308a.86.86 0 0 1 1.258 0c.091.097.158.213.195.343h.085-.085a.513.513 0 0 1 .017.067zm1.103-.41h-.308a1.1 1.1 0 0 0-.14.343l-.005.02.241.047a.847.847 0 0 1 .212-.41zm1.47.41l.24-.047a1.074 1.074 0 0 0-.145-.363 1.107 1.107 0 0 0-1.874 0h.309a.86.86 0 0 1 1.453.343h.084-.084a.655.655 0 0 1 .017.067zm-1.922 4.564l.24.048a.858.858 0 0 1 .842-.683c.416 0 .762.294.842.683l.24-.048c-.101-.5-.547-.878-1.082-.878a1.1 1.1 0 0 0-1.082.878zm-2.574 0l.24.048a.858.858 0 0 1 .842-.683c.416 0 .763.294.841.683l.24-.048c-.1-.5-.546-.878-1.081-.878-.536 0-.981.378-1.082.878zm-2.573 0l.24.048a.857.857 0 0 1 .842-.683c.415 0 .762.294.84.683l.241-.048c-.1-.5-.547-.878-1.081-.878-.536 0-.982.378-1.082.878zm-.326 1.792a14.142 14.142 0 0 1 .265-4.37l7.883.001v-.243h-.982v-.784h-.122.122v-.793a.593.593 0 0 0-.047-.234h-.284a.359.359 0 0 1 .087.234v1.577h-.736v-.784h-.122.122v-.793a.365.365 0 0 1 .368-.364.37.37 0 0 1 .281.13h.284a.613.613 0 0 0-.376-.343h-.271.271a.612.612 0 0 0-.38 0 .601.601 0 0 0-.423.578v1.576h-1.346v-.784h-.123.123v-.793a.593.593 0 0 0-.048-.234h-.283a.364.364 0 0 1 .085.234v1.577h-.734v-.784h-.124.124v-.793a.366.366 0 0 1 .367-.364.37.37 0 0 1 .282.13h.283a.619.619 0 0 0-.375-.343h-.272.272a.616.616 0 0 0-.803.577v1.577h-1.348v-.784h-.122.122v-.793a.606.606 0 0 0-.048-.234h-.284a.36.36 0 0 1 .087.234v1.577h-.736v-.784h-.122.122v-.793a.36.36 0 0 1 .087-.234.37.37 0 0 1 .562 0h.284a.614.614 0 0 0-.375-.343h-.272.272a.619.619 0 0 0-.643.17c.053-.132.107-.263.164-.393a.863.863 0 0 1 1.113.566h.086-.085a.652.652 0 0 1 .016.067l.24-.047-.003-.02a1.105 1.105 0 0 0-1.239-.847l.18-.375h.84v-.485a.122.122 0 0 1 .244 0v.485h.735v-.485c0-.067.055-.121.123-.121s.122.054.122.12v.486h.736v-.485c0-.067.055-.121.122-.121.068 0 .123.054.123.12v.486h.735v-.485c0-.067.056-.121.123-.121.068 0 .122.054.122.12v.486h.736v-.485c0-.067.055-.121.123-.121.067 0 .123.054.123.12v.486h.735v-.485a.123.123 0 0 1 .246 0v.485h.734v7.645h-.98v-1.577a.61.61 0 0 0-.613-.606.61.61 0 0 0-.613.606v1.577h-1.348v-1.577a.61.61 0 0 0-.613-.606.61.61 0 0 0-.613.606v1.577h-1.348v-1.577a.61.61 0 0 0-.612-.606.61.61 0 0 0-.613.606v1.577h-.795zm1.04 0v-1.577c0-.202.165-.364.368-.364.202 0 .367.162.367.364v1.577h-.736zm2.574 0v-1.577c0-.202.164-.364.367-.364.202 0 .367.162.367.364v1.577h-.734zm2.573 0v-1.577c0-.202.165-.364.368-.364.203 0 .367.162.367.364v1.577h-.735zm-6.163.243h8.124v4.368h-.98v-1.576a.61.61 0 0 0-.613-.607.61.61 0 0 0-.613.607v1.576h-1.348v-1.576a.61.61 0 0 0-.613-.607.61.61 0 0 0-.613.607v1.576h-1.348v-1.576a.61.61 0 0 0-.612-.607c-.34 0-.613.271-.613.607v.479c-.08-.22-.156-.44-.226-.664a.857.857 0 0 1 .839-.664c.415 0 .762.292.84.681l.241-.047a1.1 1.1 0 0 0-1.081-.877c-.404 0-.757.214-.949.534a13.977 13.977 0 0 1-.435-2.234zm1.015 3.893v-1.101c0-.202.166-.364.369-.364.202 0 .367.162.367.364v1.576h-.524a12.636 12.636 0 0 1-.212-.475zm2.575.475v-1.576c0-.202.164-.364.367-.364.202 0 .367.162.367.364v1.576h-.734zm2.573 0v-1.576c0-.202.165-.364.368-.364.203 0 .367.162.367.364v1.576h-.735zm-4.82.243h6.78l.002.728h-6.399c-.135-.238-.262-.48-.383-.728zm.523.97h5.645v2.671h-.367v-1.577a.61.61 0 0 0-.613-.607.61.61 0 0 0-.613.607v1.577h-1.347v-1.577a.61.61 0 0 0-.737-.595.608.608 0 0 0-.49.595v.965a14.211 14.211 0 0 1-1.478-2.058zm1.724 2.084v-.99a.365.365 0 0 1 .367-.364c.202 0 .367.164.367.364v1.577h-.419a14.13 14.13 0 0 1-.315-.335v-.252zm2.573.587v-1.577a.367.367 0 0 1 .735 0v1.577h-.735zm-2.016.243h3.364v.728h-2.567a13.97 13.97 0 0 1-.797-.728zm3.977-2.184v3.64h-.368v-4.37h.368v.73zm-2.886 3.155h2.273v.727H55.13v-.727h2.337v1.214H56.6v.242h3.063v-.242h-.743v-1.214h2.337v.727h3.676v-.727h2.273a14.374 14.374 0 0 1-9.014 3.156c-3.415 0-6.55-1.183-9.014-3.156zm18.323-.243h-2.568V29.1H68.3c-.257.253-.523.495-.798.728zm1.039-.97h-.42V27.28a.366.366 0 0 1 .441-.358c.168.035.294.181.294.358v1.242c-.103.114-.208.224-.315.335zm-2.626-1.942c.203 0 .367.164.367.364v1.577h-.735v-1.577c0-.2.165-.364.368-.364zm2.696-.23a.609.609 0 0 0-.736.595v1.576h-1.347v-1.577a.609.609 0 0 0-.613-.607.61.61 0 0 0-.613.607v1.577h-.368v-2.67h5.645c-.431.73-.926 1.419-1.478 2.058v-.965c0-.293-.21-.54-.49-.595zm-3.922-.5v4.37h-.368v-4.37h.368zm6.03-.242h-6.398v-.728h6.782c-.122.247-.249.49-.384.728zm.498-.97h-.522v-1.577c0-.202.164-.364.368-.364.203 0 .367.162.367.364v1.1c-.067.161-.139.32-.213.476zm-2.728-1.941c.202 0 .367.162.367.364v1.576h-.735v-1.576c0-.202.164-.364.368-.364zm-2.574 0c.203 0 .367.162.367.364v1.576h-.735v-1.576c0-.202.165-.364.368-.364zm5.148-.243a.61.61 0 0 0-.614.607v1.576h-1.348v-1.576a.609.609 0 0 0-.612-.607.61.61 0 0 0-.613.607v1.576h-1.348v-1.576a.61.61 0 0 0-.613-.607.61.61 0 0 0-.613.607v1.576h-.981v-4.368h8.125a14.11 14.11 0 0 1-.436 2.234 1.105 1.105 0 0 0-.947-.534c-.536 0-.982.377-1.082.877l.24.047a.854.854 0 0 1 .842-.681c.41 0 .752.283.837.664-.07.225-.144.445-.224.664v-.48a.61.61 0 0 0-.613-.606zm0-4.37c.203 0 .367.163.367.365v1.577h-.735v-1.577c0-.202.164-.364.368-.364zm-2.574 0c.202 0 .367.163.367.365v1.577h-.735v-1.577c0-.202.164-.364.368-.364zm-2.574 0c.203 0 .367.163.367.365v1.577h-.735v-1.577c0-.202.165-.364.368-.364zm6.555 1.942h-.794v-1.577a.61.61 0 0 0-.613-.606.61.61 0 0 0-.614.606v1.577h-1.348v-1.577a.61.61 0 0 0-.612-.606.61.61 0 0 0-.613.606v1.577h-1.348v-1.577a.61.61 0 0 0-.613-.606.61.61 0 0 0-.613.606v1.577h-.981v-7.645h.736v-.485c0-.067.055-.121.122-.121.068 0 .123.054.123.12v.486h.736v-.485c0-.067.055-.121.122-.121.068 0 .122.054.122.12v.486h.736v-.485c0-.067.054-.121.123-.121.067 0 .122.054.122.12v.486h.735v-.485c0-.067.055-.121.123-.121.067 0 .123.054.123.12v.486h.734v-.485c0-.067.055-.121.123-.121.067 0 .123.054.123.12v.486h.735v-.485c0-.067.055-.121.123-.121s.122.054.122.12v.486h.84l.18.375a1.104 1.104 0 0 0-1.243.866l.24.048a.6.6 0 0 1 .017-.067h-.084.084a.861.861 0 0 1 1.113-.566c.057.13.112.26.165.393a.616.616 0 0 0-.643-.17h.271-.271a.618.618 0 0 0-.377.343h.285a.367.367 0 0 1 .562 0 .355.355 0 0 1 .087.234v.793h.122-.122v.784h-.735v-1.577c0-.09.032-.17.086-.234h-.285a.601.601 0 0 0-.047.234v.793h.123-.123v.784h-1.348v-1.577a.606.606 0 0 0-.612-.606c-.067 0-.13.01-.19.029h.272-.272a.61.61 0 0 0-.375.343h.284a.369.369 0 0 1 .648.234v.793h.122-.122v.784h-.735v-1.577c0-.09.032-.17.087-.234h-.284a.59.59 0 0 0-.048.234v.793h.122-.122v.784h-1.347v-1.577a.612.612 0 0 0-.802-.578h.27-.27a.612.612 0 0 0-.376.344h.283a.37.37 0 0 1 .563 0 .358.358 0 0 1 .086.234v.793h.122-.122v.784h-.735v-1.577c0-.09.032-.17.086-.234h-.283a.593.593 0 0 0-.048.234v.793h.122-.122v.784h-.982v.243h7.884a14.097 14.097 0 0 1 .265 4.37zm-.321-4.612h-.473V14.18c.187.51.345 1.036.473 1.571zm-1.231-3.276h-.469v-.242a.365.365 0 0 0-.367-.364.365.365 0 0 0-.367.364v.242h-.246v-.242a.365.365 0 0 0-.368-.364.365.365 0 0 0-.368.364v.242h-.244v-.242a.365.365 0 0 0-.368-.364.365.365 0 0 0-.368.364v.242h-.245v-.242a.365.365 0 0 0-.367-.364.365.365 0 0 0-.368.364v.242h-.245v-.242a.365.365 0 0 0-.368-.364.366.366 0 0 0-.368.364v.242h-.245v-.242a.365.365 0 0 0-.368-.364.365.365 0 0 0-.367.364v.242h-.246v-.85h5.866c.171.278.333.56.486.85zm-.64-1.092h-5.712v-.364h5.469c.083.12.164.241.244.364zm-.414-.607h-5.052v-.607h-1.623l-4.996-4.33-4.996 4.33H51.575v.607h-5.052c2.601-3.6 6.859-5.946 11.67-5.946 4.812 0 9.07 2.346 11.67 5.946zm-23.513.243h5.47v.364h-5.714c.08-.123.161-.244.244-.364zm5.47-.243v-.364h1.47l4.902-4.251 4.903 4.25 1.47.001v.364h-1.623l-4.75-4.118-4.75 4.118H51.82zm.244 1.699h.857v-1.456h-.857v1.456zm.244 14.648V12.718h.368V27.159h-.368v-.036zm0 .522h1.961v-.304h-1.96v.304zm0 .485h1.961v-.303h-1.96v.303zm0 .485h1.961v-.302h-1.96v.302zm0 .486h1.961v-.304h-1.96v.304zm0 .485h1.961v-.303h-1.96v.303zm0 .486h1.961v-.303h-1.96v.303zm.001.485h1.961v-.304h-1.96v.304zm2.82-4.011v-.326l.858-.717v.324l-.859.719zm0 2.312V26.83l.858-.717v2.745h-.859zm0 .97h.858v-.727h-.859v.728zm-.491-4.854h-.736v-1.82c0-.2.165-.363.368-.363.203 0 .368.163.368.364v1.82zm.613-2.183c.203 0 .368.163.368.364v1.82h-.736v-1.82c0-.201.165-.364.368-.364zm-.49 0a.615.615 0 0 0-.613-.23.855.855 0 0 1 .613-.255c.24 0 .457.096.612.254a.612.612 0 0 0-.612.231zm5.638 3.036v-.324l.858.717v.326l-.858-.719zm0 3.031v-2.745l.858.717v2.028H60.4zm0 .97h.858v-.727H60.4v.728zm2.083-6.673v1.82h-.735v-1.82c0-.201.164-.364.367-.364.203 0 .368.163.368.364zm-1.348-.364c.203 0 .368.163.368.364v1.82h-.736v-1.82c0-.201.165-.364.368-.364zm-.123-.23a.859.859 0 0 1 .613-.255c.24 0 .457.096.613.254a.614.614 0 0 0-.613.231.614.614 0 0 0-.613-.23zm1.103 5.084h1.96v-.304h-1.96v.304zm0 .485h1.96v-.303h-1.96v.303zm0 .485h1.96v-.302h-1.96v.302zm0 .486h1.96v-.304h-1.96v.304zm0 .485h1.96v-.303h-1.96v.303zm0 .971h1.96v-.304h-1.96v.304zm0-.485h1.96v-.303h-1.96v.303zm1.96-17.354V27.159h-.367V12.717h.368zm-.612-.243h.858v-1.456h-.858v1.456zm-2.696 3.276v-1.577c0-.2.165-.364.368-.364.203 0 .368.163.368.364v1.577h-.736zm-2.451 0v-1.577c0-.2.164-.364.367-.364.203 0 .368.163.368.364v1.577h-.735zm3.775 0h-.343v-1.577c0-.2.164-.364.367-.364.203 0 .368.163.368.364v1.577h-.392zm-.588 4.612h-.736v-1.82c0-.201.165-.363.368-.363.203 0 .368.162.368.363v1.82zm.612-2.183c.203 0 .368.162.368.363v1.82h-.735v-1.82c0-.201.164-.363.367-.363zm-.49 0a.614.614 0 0 0-.613-.232.86.86 0 0 1 1.226 0 .614.614 0 0 0-.613.231zm-2.574.363v1.82h-.735v-1.82c0-.201.164-.363.367-.363.203 0 .368.162.368.363zm-1.348-.363c.203 0 .368.162.368.363v1.82h-.736v-1.82c0-.201.165-.363.368-.363zm-3.065 2.183h-.735v-1.82c0-.201.165-.363.368-.363.203 0 .367.162.367.363v1.82zm.613-2.183c.204 0 .369.162.369.363v1.82h-.736v-1.82c0-.201.164-.363.367-.363zm-.49 0a.613.613 0 0 0-.612-.232.858.858 0 0 1 1.225 0 .621.621 0 0 0-.613.232zm2.942-4.37c.203 0 .368.163.368.364v1.577h-.736v-1.577c0-.2.165-.364.368-.364zm-2.452 0c.204 0 .369.163.369.364v1.577h-.736v-1.577c0-.2.164-.364.367-.364zm-.98 0c.203 0 .367.163.367.364v1.577h-.735v-1.577c0-.2.165-.364.368-.364zm9.192-1.092v3.033H62.728v-1.577a.615.615 0 1 0-1.103-.364.615.615 0 0 0-1.103.364v1.577h1.03-2.256v-1.577a.615.615 0 1 0-1.103-.364v2.184H63.463v4.37h-.735v-1.82c0-.604-.493-1.093-1.103-1.093s-1.103.489-1.103 1.092v1.82h-1.226v-1.82c0-.603-.493-1.092-1.103-1.092-.609 0-1.103.489-1.103 1.092v1.82h-1.225v-1.82c0-.603-.494-1.092-1.104-1.092-.609 0-1.103.489-1.103 1.092v1.82h-.736v-4.369h5.271V13.81a.615.615 0 0 0-1.103.364v1.577h-1.225v-1.577a.614.614 0 1 0-1.103-.364.614.614 0 0 0-1.104.364v1.577h-.736v-3.033h.246v-.694a.126.126 0 0 1 .123-.094c.069 0 .122.054.122.121v.364h.737v-1.214c0-.068.055-.122.122-.122.069 0 .123.054.123.122v.364h.735v-1.213c0-.068.055-.122.123-.122.067 0 .123.054.123.122v.364h.735V9.502c0-.066.054-.121.122-.121.067 0 .123.055.123.121v.364h.736l-.001-1.213a.122.122 0 0 1 .245 0v.364h.735V7.804c0-.068.055-.122.123-.122.067 0 .122.054.122.122v1.213h.736v-.364a.122.122 0 0 1 .245 0v1.213h.736v-.364a.123.123 0 0 1 .245 0v1.214h.735v-.364a.122.122 0 0 1 .245 0v1.213h.736v-.364c0-.068.054-.122.122-.122s.123.054.123.122v1.214h.735v-.364c0-.067.054-.121.122-.121.064 0 .116.046.123.108V12.718h.244zM53.904 11.2v.971h-.245v-.12a.365.365 0 0 0-.368-.365.42.42 0 0 0-.123.019v-.687h.367l4.658-4.037 4.658 4.037h.368v.688a.393.393 0 0 0-.123-.02.365.365 0 0 0-.367.364v.121h-.246v-.97a.365.365 0 0 0-.367-.365.365.365 0 0 0-.368.364v.121h-.245v-.97a.366.366 0 0 0-.368-.364.366.366 0 0 0-.368.364v.12h-.244v-.97a.365.365 0 0 0-.368-.363.366.366 0 0 0-.368.363v.121h-.245v-.97a.365.365 0 0 0-.367-.365.365.365 0 0 0-.368.365v.121h-.246v-.97a.365.365 0 0 0-.367-.365.366.366 0 0 0-.368.365v.97h-.245v-.121a.366.366 0 0 0-.368-.365.365.365 0 0 0-.367.365v.97h-.245v-.12a.365.365 0 0 0-.368-.364.365.365 0 0 0-.368.363v.97h-.244v-.12a.366.366 0 0 0-.368-.364.366.366 0 0 0-.369.364v.97h-.244v-.12a.366.366 0 0 0-.368-.365.366.366 0 0 0-.368.364zm7.967 14.987v4.369h-.368v-4.37h.368zm-.6-.243l-.87-.728h3.062v1.942h-1.348v-1.214h-.845zm-1.308 3.02v-.713h-.176v-3.035h.367v4.612h-.367V29.003l.176-.037zm-1.646-1.958l.486.24-.05.763h-1.119l-.05-.762.484-.241-.224-.512.349-.263.349.263-.225.512zm-1.22 1.003v.242h-.252v-2.428h2.697v2.428h-.254v-.242h-.306l.06-.897-.427-.212.21-.479-.632-.477-.631.477.21.48-.427.211.058.897h-.306zm2.445-2.793v.364h-2.697v-.364h2.697zm-.491-.243h-.123v-1.94h.245v1.94h-.122zm-1.226-1.94v-.243h-.122c0-.268.219-.485.49-.485.27 0 .49.217.49.485h-.123v.243h.123v1.94h-.98v-1.94h.122zm-.367 0v1.94h-.245v-1.94h.245zm-.368-.243v-.606l1.103-.813 1.103.813v.606h-.368a.731.731 0 0 0-.735-.729.731.731 0 0 0-.735.73h-.368zm2.452 6.263v.775h-.621v-.642l.62-.133zm-1.846 2.232h.995V29.21h-.995v2.077zm-1.043-2.505v-.3h.675v-.243h1.73v.242h.674v.301l-.939.2h-1.201l-.939-.2zm.192.684V29.054l.62.133v.642h-.62v-.364zm-.98-4.49v-1.82c0-.603-.494-1.093-1.103-1.093-.61 0-1.104.49-1.104 1.093v1.82h-.736v-4.37h5.271V18.18a.613.613 0 0 0-.613-.232.86.86 0 0 1 1.226 0 .618.618 0 0 0-.613.232v2.426h5.27v4.368h-.735v-1.82c0-.602-.494-1.092-1.103-1.092-.61 0-1.103.49-1.103 1.093v1.82h-1.103v-1.941h.245v-.243h-.122v-.485h.245v-.244h-.245l-1.226-.926v-.287h-.245v.287l-1.226.926h-.244v.244h.244v.485h-.123v.243h.246v1.94h-1.103zm.558 3.277v.714l.178.037V29.83h-.369v-4.612h.369V28.253h-.178zm-1.54-1.335v3.64h-.367v-4.369h.368v.729zm-.612-.972v1.214h-1.349v-1.942h3.065l-.87.728h-.846zm-8.317-14.32h5.866v.85h-.245v-.242a.365.365 0 0 0-.368-.364.365.365 0 0 0-.368.364v.242h-.244v-.242a.365.365 0 0 0-.368-.364.365.365 0 0 0-.368.364v.242h-.245v-.242a.365.365 0 0 0-.368-.364.366.366 0 0 0-.368.364v.242h-.245v-.242a.365.365 0 0 0-.368-.364.366.366 0 0 0-.367.364v.242h-.246v-.242a.365.365 0 0 0-.367-.364.365.365 0 0 0-.367.364v.242h-.246v-.242a.365.365 0 0 0-.367-.364.365.365 0 0 0-.368.364v.242h-.468c.152-.29.314-.572.485-.85zm-1.242 4.126h-.475a13.97 13.97 0 0 1 .475-1.57v1.57zM43.5 19.022c0 8.035 6.577 14.548 14.693 14.548 8.115 0 14.693-6.513 14.693-14.548 0-8.034-6.578-14.549-14.693-14.549-8.116 0-14.693 6.515-14.693 14.55zm1.383 11.51l-.067.067c.049.045.098.09.146.138l.101.095c.091.09.185.18.272.273.05.05.1.1.147.15l.066-.066a2.265 2.265 0 0 1-.158-.192.163.163 0 0 1-.033-.116c0-.04.018-.09.055-.146.036-.06.098-.132.184-.217.067-.068.61-.677.88-.805a.572.572 0 0 1 .506-.023.83.83 0 0 1 .37.354c.038.07.056.143.056.218a.553.553 0 0 1-.066.245c-.045.086-.118.18-.22.281l-.779.774a.675.675 0 0 1-.11.092.139.139 0 0 1-.084.028.196.196 0 0 1-.095-.03 1.053 1.053 0 0 1-.16-.122l-.067.066c.057.053.114.106.169.161.143.13.283.267.414.409.056.054.11.108.162.164l.067-.066c-.045-.05-.091-.1-.123-.158a.176.176 0 0 1-.033-.093c0-.026.009-.054.028-.085.02-.031.051-.068.094-.109l.87-.864c.08-.08.138-.16.172-.24a.643.643 0 0 0 .051-.233.586.586 0 0 0-.035-.216 1.118 1.118 0 0 0-.216-.348 1.512 1.512 0 0 0-.345-.3.755.755 0 0 0-.293-.104.743.743 0 0 0-.334.037.918.918 0 0 0-.358.237l-.63.624c-.068.068-.24.243-.343.266a.132.132 0 0 1-.1-.018 1.135 1.135 0 0 1-.16-.127zm-1.896-2.598l-.081.054.105.147c.1.131.193.268.278.407.038.054.073.11.108.165l.08-.055c-.04-.068-.077-.128-.105-.201a.138.138 0 0 1 0-.11.286.286 0 0 1 .094-.123c.052-.046.128-.1.222-.164l.922-.615.012-.037-.56 2.275.265.388.081-.054a.939.939 0 0 1-.095-.184.128.128 0 0 1 .01-.109.44.44 0 0 1 .13-.144c.26-.211.987-.678 1.095-.75a1.98 1.98 0 0 1 .214-.128.39.39 0 0 1 .15-.047.18.18 0 0 1 .116.027c.056.036.097.09.137.143l.08-.054a4.05 4.05 0 0 0-.097-.137l-.067-.098a2.499 2.499 0 0 1-.13-.189l-.082-.12a3.577 3.577 0 0 0-.113-.171l-.08.053a1.4 1.4 0 0 1 .103.193.16.16 0 0 1 .002.112.311.311 0 0 1-.09.124 2.02 2.02 0 0 1-.226.169l-.914.613-.014.035.584-2.322-.054-.078-1.464.98a2.123 2.123 0 0 1-.21.127.435.435 0 0 1-.152.05.185.185 0 0 1-.113-.03.545.545 0 0 1-.141-.142zm-.758-1.46l-.086.045c.038.067.075.136.11.205.097.168.185.34.267.516.035.068.07.136.103.206l.086-.045c-.027-.06-.055-.123-.068-.188a.161.161 0 0 1 0-.098.148.148 0 0 1 .052-.073.722.722 0 0 1 .122-.074l1.373-.697a.95.95 0 0 1 .136-.055c.073-.02.12.004.17.057.043.05.078.11.112.168l.086-.044a6.017 6.017 0 0 0-.108-.203l-.074-.144a3.407 3.407 0 0 1-.118-.228l-.075-.144a6.049 6.049 0 0 0-.104-.207l-.086.043c.027.06.054.122.07.187a.199.199 0 0 1 .001.097.159.159 0 0 1-.052.073.699.699 0 0 1-.125.076l-1.373.695a.68.68 0 0 1-.133.055.143.143 0 0 1-.09 0 .175.175 0 0 1-.08-.057c-.046-.05-.08-.108-.116-.165zm-1.001-2.537l-.09.032c.018.044.037.086.053.131.058.128.106.262.147.397.02.053.038.107.055.162l.093-.034c-.018-.054-.043-.123-.024-.18.024-.066.082-.076.142-.08a630.356 630.356 0 0 1 1.615.017l.037-.02c-.347.297-.692.597-1.04.895l-.248.207c-.001 0-.09.084-.115.069a.128.128 0 0 1-.035-.04.447.447 0 0 1-.033-.074 1.385 1.385 0 0 1-.05-.126l-.095.034c.028.066.054.132.08.2.065.157.126.317.177.478l.06.177.09-.033c-.01-.04-.023-.083-.024-.126a.097.097 0 0 1 .012-.06.246.246 0 0 1 .057-.072c.028-.028.068-.066.118-.11l1.578-1.407-.05-.136-1.901-.033c-.104-.001-.192-.005-.26-.011a.587.587 0 0 1-.16-.033.25.25 0 0 1-.099-.069c-.04-.045-.065-.1-.09-.155zm-.435-2.164c-.055.01-.11.018-.165.026.029.071.05.143.07.217.007.032.015.063.024.093.037.178.074.356.117.532l.052.224c.033.154.07.306.097.462.016.074.031.15.045.225l.09-.02c-.01-.065-.022-.132-.018-.199 0-.043.012-.075.026-.095a.14.14 0 0 1 .07-.055.69.69 0 0 1 .137-.042l1.515-.321a.72.72 0 0 1 .145-.02c.075 0 .116.035.15.099.028.06.046.125.064.19l.095-.02c-.017-.075-.033-.15-.052-.224l-.034-.157-.031-.127-.19-.92-.016-.076a.985.985 0 0 0-.018-.094l-.015-.1c-.004-.04-.008-.08-.014-.12-.109.014-.219.029-.328.041-.113.013-.225.021-.337.028l.02.093c.091.008.183.02.272.048a.48.48 0 0 1 .285.235c.062.128.104.34.11.48 0 .067-.013.12-.037.162a.281.281 0 0 1-.126.099c-.17.068-.634.152-.733.174-.03-.135-.071-.283-.074-.423a.357.357 0 0 1 .022-.147.19.19 0 0 1 .073-.093.545.545 0 0 1 .18-.075l-.02-.095-.198.049-.13.035-.2.042-.13.022-.192.032.02.095a.51.51 0 0 1 .175 0 .285.285 0 0 1 .124.06c.037.029.073.073.107.133.062.12.084.263.113.395l-.917.196c-.041-.186-.092-.38-.09-.572 0-.103.016-.183.044-.24a.337.337 0 0 1 .118-.144c.068-.048.14-.09.214-.132l-.02-.088-.187.049-.302.063zm-.041-2.093a.645.645 0 0 1 .582-.112.459.459 0 0 1 .28.238c.052.11.053.236.05.356a.776.776 0 0 1-.01.096l-1.008.033-.008-.052a1.486 1.486 0 0 1-.01-.088c-.016-.17-.018-.348.124-.471zm-.223-.073c-.067.21-.041.541-.023.764.005.134.012.268.012.402l.005.23.097-.004c.001-.067.002-.134.02-.2a.16.16 0 0 1 .04-.088.152.152 0 0 1 .078-.044.714.714 0 0 1 .144-.016l1.54-.057a.758.758 0 0 1 .148.008c.074.011.107.053.13.122.017.064.023.13.03.198l.096-.004a5.643 5.643 0 0 0-.012-.23l-.005-.16a2.577 2.577 0 0 1-.01-.247l-.006-.147c0-.067-.001-.135-.004-.203l-.096.004c-.002.062-.003.127-.016.188a.134.134 0 0 1-.04.068.146.146 0 0 1-.077.03c-.255.022-.543.023-.78.033l.006-.044.004-.068.001-.063-.002-.058.798-.608a.906.906 0 0 0 .092-.083.313.313 0 0 0 .062-.127c.042-.164.027-.412.022-.578l-.094.003a1.17 1.17 0 0 1-.04.19.585.585 0 0 1-.172.218 7.422 7.422 0 0 1-.249.199l-.296.22a8.492 8.492 0 0 0-.235.18.739.739 0 0 0-.182-.32.5.5 0 0 0-.244-.15.612.612 0 0 0-.61.184.743.743 0 0 0-.132.258zm.271-2.742l-.165-.023-.006.069a.621.621 0 0 1-.026.124c-.01.038-.022.075-.034.113a1.317 1.317 0 0 0-.033.127.985.985 0 0 0-.004.45c.02.091.054.173.1.247a.569.569 0 0 0 .65.237.657.657 0 0 0 .186-.107c.059-.049.116-.108.17-.177.055-.07.115-.151.18-.242.06-.083.113-.155.16-.212a.697.697 0 0 1 .132-.136.345.345 0 0 1 .118-.067.451.451 0 0 1 .29.022c.05.018.09.044.126.079.034.034.061.08.083.137a.644.644 0 0 1-.052.45.578.578 0 0 1-.144.163.752.752 0 0 1-.193.102c-.08.03-.16.051-.243.07l-.007.094c.112-.007.222-.01.335-.005.11.003.22.006.33.011.005-.063.01-.126.027-.187l.03-.127c.06-.204.083-.416.042-.626a.884.884 0 0 0-.108-.28.656.656 0 0 0-.197-.207.587.587 0 0 0-.491-.074.484.484 0 0 0-.181.104c-.057.047-.114.11-.171.186a9.965 9.965 0 0 0-.204.267 3.305 3.305 0 0 1-.17.219 1.067 1.067 0 0 1-.133.125.267.267 0 0 1-.1.05.453.453 0 0 1-.366-.097.322.322 0 0 1-.075-.11c-.048-.11-.013-.289.05-.384a.42.42 0 0 1 .137-.138.63.63 0 0 1 .191-.076c.083-.02.165-.034.248-.045l.008-.093-.198-.008-.16-.015-.132-.01zm.226-1.89l-.095-.02-.044.23a7.622 7.622 0 0 1-.121.565 9.408 9.408 0 0 1-.052.223l.096.02a.88.88 0 0 1 .066-.188.17.17 0 0 1 .062-.077.145.145 0 0 1 .087-.023c.037 0 .084.006.143.017l1.509.316a.757.757 0 0 1 .141.04c.069.03.091.08.096.15.001.067-.01.134-.02.2l.096.02c.016-.075.03-.15.044-.225l.034-.157c.015-.086.032-.168.053-.252l.034-.157c.018-.076.035-.152.05-.228l-.093-.019c-.018.064-.037.13-.065.189a.233.233 0 0 1-.061.077.171.171 0 0 1-.086.023.82.82 0 0 1-.147-.019l-1.51-.315a.615.615 0 0 1-.137-.04.137.137 0 0 1-.07-.056.173.173 0 0 1-.025-.094.895.895 0 0 1 .015-.2zm1.336-2.315l-.2-.06-.309-.105-.154-.06a1.965 1.965 0 0 1-.082.312c-.044.131-.092.26-.13.39l-.046.133-.092.263-.044.129c-.042.106-.077.216-.115.323l-.025.072-.036.094-.037.09c-.017.04-.036.076-.056.113.053.015.106.03.159.048.103.03.206.067.308.104.066.023.13.047.196.072l.03-.086a2.37 2.37 0 0 1-.215-.16.524.524 0 0 1-.116-.15.428.428 0 0 1-.034-.19c.004-.129.05-.25.091-.368.089.026.182.056.282.09.477.152.953.32 1.425.48.055.018.1.037.135.057a.15.15 0 0 1 .062.064.2.2 0 0 1 .014.096c-.006.066-.026.132-.043.196l.091.03c.024-.071.05-.143.073-.217l.053-.153c.024-.081.051-.162.083-.242l.052-.153c.028-.072.054-.145.08-.219l-.092-.03c-.026.061-.051.125-.088.183a.22.22 0 0 1-.07.068.158.158 0 0 1-.088.01.76.76 0 0 1-.143-.036l-1.113-.377-.31-.105c-.1-.035-.192-.07-.278-.103.04-.117.08-.25.157-.35a.368.368 0 0 1 .14-.119.502.502 0 0 1 .186-.048c.089-.008.18-.005.27 0l.029-.086zm1.275-1.122c-.162.366-.292.577-.292.577l-.602-.678-.035-.01.147.019c.187.019.374.04.56.066l.222.026zm.823-.278l-2.091-.227-.066.129 1.25 1.433c.06.072.11.136.15.193a.64.64 0 0 1 .085.149.332.332 0 0 1 .022.133c-.004.061-.028.118-.051.175l.082.04c.022-.04.043-.082.062-.125l.044-.086c.028-.064.06-.125.095-.187l.059-.113a3.38 3.38 0 0 0 .085-.159l-.088-.044c-.027.05-.057.12-.112.143-.056.024-.094.006-.133-.033a2.28 2.28 0 0 1-.082-.087l-.134-.15-.188-.212a1.63 1.63 0 0 0 .046-.095l.063-.125a6.756 6.756 0 0 1 .23-.434l.011-.021.23.03.232.03c.07.006.131.015.18.024.024.003.048.004.072.01.01.003.016.01.017.02.002.01 0 .027-.005.049a1.231 1.231 0 0 1-.032.077l-.06.12.088.044c.031-.061.061-.122.09-.184l.065-.128c.034-.07.067-.138.106-.205l.065-.126c.033-.058.064-.118.093-.177l-.085-.044a.965.965 0 0 1-.076.116.163.163 0 0 1-.062.043.31.31 0 0 1-.096.017c-.04 0-.094-.006-.16-.013zm1.225-1.16c.034-.102.05-.2.05-.296a.652.652 0 0 0-.066-.277.584.584 0 0 0-.39-.308.49.49 0 0 0-.208 0c-.073.014-.154.04-.243.078a9.98 9.98 0 0 0-.311.13c-.104.047-.19.082-.258.107-.07.02-.13.036-.178.04a.276.276 0 0 1-.113-.006.445.445 0 0 1-.266-.265.29.29 0 0 1-.01-.132c.013-.118.134-.256.236-.307a.41.41 0 0 1 .188-.052.607.607 0 0 1 .205.03 2.2 2.2 0 0 1 .237.082l.054-.076-.165-.105c-.023-.016-.23-.158-.241-.167l-.132-.1-.04.055a.7.7 0 0 1-.086.096c-.028.027-.057.054-.087.08-.029.03-.061.06-.093.094-.101.108-.188.247-.23.389a.795.795 0 0 0-.037.263.58.58 0 0 0 .065.24c.07.14.225.252.378.285.067.013.14.013.214 0a1.28 1.28 0 0 0 .238-.068c.083-.034.176-.075.277-.121.094-.042.176-.079.245-.105a.764.764 0 0 1 .183-.052.362.362 0 0 1 .137 0 .444.444 0 0 1 .24.164.32.32 0 0 1 .069.13.34.34 0 0 1 .001.16.652.652 0 0 1-.27.365.599.599 0 0 1-.207.068.773.773 0 0 1-.22-.006 1.95 1.95 0 0 1-.244-.06l-.054.077c.1.05.198.102.292.162.095.056.188.114.28.173.037-.052.073-.104.119-.147a8.03 8.03 0 0 1 .09-.097c.154-.146.282-.318.35-.521zm1.318-3.789l.069-.062a19.097 19.097 0 0 1-.139-.137l-.11-.12-.089-.096-.106-.125-.052.046a.805.805 0 0 1-.104.075l-.102.06c-.036.02-.073.045-.112.07a1.028 1.028 0 0 0-.31.33.793.793 0 0 0-.094.25.561.561 0 0 0 .318.608.645.645 0 0 0 .209.047 1.25 1.25 0 0 0 .249-.018c.087-.014.187-.034.297-.058.1-.022.188-.04.261-.05a.758.758 0 0 1 .19-.012.347.347 0 0 1 .133.03.434.434 0 0 1 .199.211.305.305 0 0 1 .039.142.347.347 0 0 1-.033.156.653.653 0 0 1-.345.299.609.609 0 0 1-.216.022.795.795 0 0 1-.212-.052 1.996 1.996 0 0 1-.227-.112l-.07.064c.087.07.171.141.25.22.08.075.158.152.236.229.047-.042.093-.085.148-.119l.109-.074c.183-.11.345-.25.457-.433a.904.904 0 0 0 .113-.28.624.624 0 0 0-.004-.283.58.58 0 0 0-.311-.385.515.515 0 0 0-.206-.043 1.106 1.106 0 0 0-.253.023 8.663 8.663 0 0 0-.333.061c-.11.023-.202.039-.276.047a.839.839 0 0 1-.181.003.257.257 0 0 1-.11-.031.436.436 0 0 1-.162-.185.38.38 0 0 1-.04-.13.312.312 0 0 1 .02-.131c.038-.112.187-.222.297-.249a.417.417 0 0 1 .196-.012c.065.013.13.037.194.073.074.04.144.084.213.131zm1.367-1.396c-.06-.086-.115-.167-.165-.243.104-.072.212-.157.334-.195a.385.385 0 0 1 .185-.016c.059.01.119.031.178.067.078.046.149.1.22.155l.074-.052-.129-.165-.11-.153-.08-.108c-.029-.047-.059-.092-.09-.139-.053.054-.111.101-.171.15a.786.786 0 0 0-.077.058c-.114.08-.228.158-.337.243l-.344.243-.11.078c-.098.064-.19.132-.284.198l-.062.043a1.966 1.966 0 0 0-.085.057l-.084.052c-.036.022-.073.04-.11.059.034.043.068.087.1.131.067.084.13.172.19.262.04.056.08.113.118.17l.074-.053a2.535 2.535 0 0 1-.08-.253.523.523 0 0 1-.007-.189.43.43 0 0 1 .084-.175c.078-.1.187-.173.29-.246.056.072.115.15.177.235.299.397.589.808.878 1.21a.73.73 0 0 1 .076.124c.014.032.018.06.013.088a.199.199 0 0 1-.045.087c-.044.05-.098.092-.15.134l.056.078c.063-.044.125-.09.186-.136l.133-.095c.07-.052.138-.1.211-.149l.132-.093c.065-.043.13-.088.193-.133l-.057-.078c-.057.036-.115.072-.178.098a.222.222 0 0 1-.097.016.176.176 0 0 1-.078-.044.705.705 0 0 1-.095-.11l-.685-.946-.192-.265zm3.533.032a.734.734 0 0 0 .075-.325.904.904 0 0 0-.106-.413l-.384-.795c-.042-.087-.151-.305-.138-.41a.137.137 0 0 1 .049-.088 1.31 1.31 0 0 1 .175-.107l-.04-.085-.18.09-.125.063c-.116.055-.233.113-.35.163a8.21 8.21 0 0 1-.192.086l.04.085a2.04 2.04 0 0 1 .237-.084.16.16 0 0 1 .12.009c.04.012.081.045.123.1.043.051.091.133.144.243.042.086.44.795.472 1.09a.645.645 0 0 1-.022.266.527.527 0 0 1-.125.212.825.825 0 0 1-.46.23.47.47 0 0 1-.227-.022.574.574 0 0 1-.21-.143 1.15 1.15 0 0 1-.194-.299l-.477-.985a.714.714 0 0 1-.052-.133.135.135 0 0 1 .002-.089.174.174 0 0 1 .06-.077.965.965 0 0 1 .17-.11l-.04-.085c-.07.037-.14.071-.211.105a7.32 7.32 0 0 1-.527.251c-.07.032-.14.065-.21.095l.04.085c.063-.026.125-.052.193-.063a.17.17 0 0 1 .098.002c.024.007.05.024.072.053a.79.79 0 0 1 .072.124l.532 1.1c.05.101.107.183.173.242a.61.61 0 0 0 .42.163.978.978 0 0 0 .211-.025c.069-.016.132-.036.193-.06.145-.057.277-.124.401-.222a.767.767 0 0 0 .198-.237zm2.463-1.06c-.115.196-.34.342-.68.437-.124.035-.21.026-.264-.011a.36.36 0 0 1-.134-.212l-.463-1.64a2.206 2.206 0 0 1 .234-.08c.15-.051.31-.077.469-.073a.84.84 0 0 1 .361.083c.11.054.211.139.3.253.234.3.378.905.177 1.243zm.327-.013c.168-.252.198-.563.096-.926-.105-.371-.303-.618-.595-.732-.289-.114-.65-.108-1.08.011l-.21.061c-.191.06-.385.114-.579.16-.075.02-.15.04-.225.058l.028.094c.064-.015.13-.03.2-.03a.168.168 0 0 1 .096.02c.023.01.043.032.061.065a.726.726 0 0 1 .05.133l.415 1.47a.79.79 0 0 1 .028.144c.006.075-.028.116-.09.153-.059.033-.124.054-.188.075l.026.094c.077-.023.153-.044.228-.068l.162-.044c.081-.025.164-.05.248-.068.046-.013.094-.025.14-.035l.136-.04c.38-.104.822-.245 1.053-.595zm1.575.032c.079-.007.157-.018.234-.027l-.012-.095a1.19 1.19 0 0 1-.202.003.216.216 0 0 1-.095-.032.159.159 0 0 1-.05-.072.665.665 0 0 1-.03-.143l-.206-1.513a.668.668 0 0 1-.007-.143.142.142 0 0 1 .03-.083.184.184 0 0 1 .082-.056.975.975 0 0 1 .195-.052l-.013-.096a6.647 6.647 0 0 1-.231.035c-.192.033-.387.059-.58.077-.078.01-.154.018-.232.026l.014.097c.067-.006.135-.012.202-.001a.165.165 0 0 1 .093.032c.021.014.04.038.052.073a.67.67 0 0 1 .03.139l.205 1.513c.008.057.01.106.008.145-.006.075-.045.112-.111.14-.064.025-.13.036-.197.048l.012.095c.077-.01.154-.02.23-.033l.162-.021c.086-.015.17-.026.257-.033l.16-.023zm2.582-.795a1.007 1.007 0 0 1-.168.333.699.699 0 0 1-.246.193.715.715 0 0 1-.614-.013.787.787 0 0 1-.26-.212 1.055 1.055 0 0 1-.173-.343 1.643 1.643 0 0 1 .005-.913.982.982 0 0 1 .176-.32.668.668 0 0 1 .246-.184.713.713 0 0 1 .601.013c.1.047.187.114.26.204a.918.918 0 0 1 .177.329c.09.264.084.649-.004.913zm.381-.022c.124-.297.143-.712 0-1.006a.994.994 0 0 0-.266-.347 1.105 1.105 0 0 0-.384-.203 1.398 1.398 0 0 0-.91.013 1.161 1.161 0 0 0-.65.634c-.13.3-.14.734.006 1.03a1.074 1.074 0 0 0 .66.556c.293.085.607.09.894-.024.305-.124.526-.35.65-.653zm1.664-.264a.815.815 0 0 1-.362-.015 1.318 1.318 0 0 1-.094-.029l.15-.987.055.001.09.008c.17.014.347.046.444.205.102.164.098.42.005.586a.46.46 0 0 1-.288.23zm.961 1.352l.015-.091c-.037-.012-.072-.023-.106-.04a.872.872 0 0 1-.076-.033.564.564 0 0 1-.186-.208 6.101 6.101 0 0 1-.152-.279 41.9 41.9 0 0 1-.166-.327 13.338 13.338 0 0 0-.133-.262.777.777 0 0 0 .35-.118.49.49 0 0 0 .193-.211.598.598 0 0 0-.072-.626.701.701 0 0 0-.233-.176c-.195-.105-.528-.14-.754-.163-.134-.02-.269-.037-.402-.062a6.524 6.524 0 0 1-.229-.037l-.014.096c.066.013.133.027.195.055.04.015.066.034.08.056.017.02.029.048.03.084a.67.67 0 0 1-.01.142l-.225 1.51a.764.764 0 0 1-.033.143c-.025.069-.073.094-.146.102-.067.006-.135 0-.2-.005l-.016.095.23.03.161.023c.084.01.164.02.247.036l.145.022c.068.012.137.022.205.033l.014-.096c-.062-.012-.126-.024-.184-.048a.155.155 0 0 1-.061-.052.144.144 0 0 1-.016-.08c.025-.252.076-.534.11-.765l.043.013.066.017c.02.002.043.007.062.012l.058.009.46.885c.02.041.043.077.065.107a.316.316 0 0 0 .116.084c.154.07.404.102.57.125zm3.03-1.332l.03-.089c-.063-.019-.128-.038-.19-.059a4.041 4.041 0 0 1-.135-.04c-.122-.04-.246-.08-.367-.124a5.963 5.963 0 0 1-.198-.07l-.03.09c.078.03.154.062.228.101.049.027.064.05.08.09a.265.265 0 0 1 .019.156c-.007.067-.028.16-.066.273-.031.091-.242.875-.425 1.11a.567.567 0 0 1-.442.244.844.844 0 0 1-.492-.154.46.46 0 0 1-.15-.17.57.57 0 0 1-.05-.248 1.17 1.17 0 0 1 .07-.349l.349-1.037a.688.688 0 0 1 .056-.13.141.141 0 0 1 .063-.062.18.18 0 0 1 .098-.015c.068.004.134.02.2.038l.03-.09c-.076-.022-.15-.044-.225-.068a8.328 8.328 0 0 1-.555-.183c-.074-.024-.146-.05-.219-.075l-.03.087c.063.025.127.05.183.088a.164.164 0 0 1 .069.069.138.138 0 0 1 .014.088.783.783 0 0 1-.034.139l-.39 1.157a.765.765 0 0 0-.045.293.615.615 0 0 0 .188.407 1 1 0 0 0 .17.126 1.516 1.516 0 0 0 .624.205.777.777 0 0 0 .31-.034.754.754 0 0 0 .281-.18.905.905 0 0 0 .214-.371l.281-.837c.031-.093.106-.324.188-.39a.133.133 0 0 1 .097-.028c.069.006.135.025.201.042zm3.25 1.75l.045-.076-.54-.314-1.64 1.2-.008.033.173-2.09-.542-.314-.046.078a.988.988 0 0 1 .167.126c.026.025.04.058.038.102a.452.452 0 0 1-.054.186c-.143.303-.6 1.035-.666 1.149-.05.085-.096.153-.136.208a.377.377 0 0 1-.117.104.183.183 0 0 1-.115.025c-.067-.008-.128-.04-.187-.07l-.049.083c.05.029.098.055.147.081l.104.06c.065.034.129.072.19.112l.108.061c.05.032.118.073.169.103l.05-.083c-.062-.04-.125-.08-.179-.13a.134.134 0 0 1-.041-.091.342.342 0 0 1 .045-.141c.167-.324.592-1.011.709-1.209l.007-.056-.165 1.993.106.062 1.669-1.216-.749 1.265c-.03.05-.057.092-.081.125a.173.173 0 0 1-.065.055.149.149 0 0 1-.08 0c-.057-.015-.111-.043-.164-.069l-.05.084c.058.033.117.065.175.096l.122.071c.074.038.145.081.215.126l.14.08c.067.042.134.083.202.121l.049-.083a1.257 1.257 0 0 1-.162-.12.233.233 0 0 1-.053-.082.142.142 0 0 1 .006-.088.7.7 0 0 1 .064-.132l.786-1.327c.029-.05.056-.091.08-.122a.141.141 0 0 1 .06-.052.142.142 0 0 1 .085 0c.062.018.12.049.178.077zm2.972 2.608l.084-.084-1-.986a1.615 1.615 0 0 0-.065-.068l-.064-.072a1.18 1.18 0 0 1-.078-.1c-.145.17-.306.331-.477.475l.07.069a.814.814 0 0 1 .23-.141.355.355 0 0 1 .209.002c.076.022.165.07.268.147.18.134.34.296.497.453l-2.436.483-.09.09 1.088 1.074.068.07.068.076c.025.032.05.062.077.093l.253-.212c.088-.07.177-.138.267-.206l-.071-.068a.67.67 0 0 1-.234.123.383.383 0 0 1-.229-.02 1.257 1.257 0 0 1-.306-.182c-.21-.162-.395-.352-.583-.536l2.454-.48zm.317 2.29c-.261-.303-.395-.51-.395-.51l.878-.24.025-.026-.082.121c-.099.159-.2.316-.304.47a8.32 8.32 0 0 1-.122.185zm-.108.856l1.122-1.762-.088-.115-1.85.484c-.09.022-.171.039-.24.05a.698.698 0 0 1-.171.01.362.362 0 0 1-.132-.04.536.536 0 0 1-.135-.122l-.075.056.088.11.059.076c.046.054.087.11.127.167l.077.101.108.147.078-.06c-.034-.045-.084-.102-.081-.161.003-.061.037-.087.088-.105l.115-.035c.053-.014.118-.031.195-.054l.276-.073c.024.033.036.048.064.081l.087.112a6.054 6.054 0 0 1 .293.396l.014.02c-.043.062-.085.125-.128.19a8.026 8.026 0 0 1-.128.194c-.037.059-.072.11-.1.15-.014.019-.027.04-.043.06-.006.006-.014.008-.025.005a.115.115 0 0 1-.04-.027c-.017-.017-.037-.036-.057-.06l-.082-.107-.08.058c.043.055.084.11.128.162l.086.114c.05.06.097.12.142.183l.085.113c.039.055.08.11.12.162l.077-.058c-.025-.038-.052-.075-.073-.117a.194.194 0 0 1-.01-.075.297.297 0 0 1 .026-.093c.019-.036.046-.082.083-.137zm2.386 1.757c.19-.108.386-.207.585-.296-.06-.115-.096-.232-.14-.352-.097-.308-.222-.57-.464-.8a1.236 1.236 0 0 0-.41-.267 1.08 1.08 0 0 0-.465-.07c-.32.024-.67.2-.879.442-.103.12-.173.256-.213.403-.04.15-.047.308-.024.474.035.237.135.479.27.676.04.06.077.115.117.169l.11.152c.035.046.07.094.101.14.202-.102.458-.242.685-.342a.165.165 0 0 1 .08-.02.108.108 0 0 1 .063.033c.041.038.07.09.098.136l.088-.044a7.379 7.379 0 0 1-.09-.164 6.8 6.8 0 0 1-.258-.498 8.968 8.968 0 0 1-.116-.234l-.088.044c.035.076.072.153.093.234.014.05.014.087.007.112a.116.116 0 0 1-.052.066.949.949 0 0 1-.126.074l-.442.224c-.19-.138-.317-.398-.34-.626a.807.807 0 0 1 .042-.343c.041-.115.113-.227.214-.338.196-.211.573-.413.863-.445a.884.884 0 0 1 .366.032c.112.038.209.098.294.179.135.13.293.367.298.56a.45.45 0 0 1-.033.217.7.7 0 0 1-.108.193c-.053.067-.11.132-.17.194l.044.085zm1.13 1.852a.645.645 0 0 1-.533.257.45.45 0 0 1-.333-.16.793.793 0 0 1-.157-.425l.965-.29.022.05.032.082c.06.158.108.33.004.486zm.233.013c.01-.219-.101-.534-.178-.744-.039-.128-.08-.256-.115-.385a6.72 6.72 0 0 1-.065-.221l-.093.028a.925.925 0 0 1 .034.198.169.169 0 0 1-.017.096.14.14 0 0 1-.065.063.736.736 0 0 1-.133.052l-1.474.45a.76.76 0 0 1-.144.031c-.074.007-.118-.025-.156-.085a.983.983 0 0 1-.081-.184l-.093.028.07.218.05.155c.027.078.051.156.072.236l.044.138c.018.066.038.132.058.198l.092-.029c-.014-.06-.031-.123-.034-.187 0-.034.008-.057.02-.076a.176.176 0 0 1 .067-.049c.24-.085.52-.161.745-.229l.006.042.013.067c.007.02.012.042.016.06l.017.057-.61.792a.87.87 0 0 0-.069.104.307.307 0 0 0-.027.139c.003.168.082.406.131.564l.09-.028a.851.851 0 0 1-.01-.11c-.002-.024-.002-.053-.002-.084a.516.516 0 0 1 .11-.256c.054-.075.116-.161.188-.254l.228-.29c.066-.081.126-.159.18-.232a.896.896 0 0 0 .16.19.709.709 0 0 0 .229.132c.045.014.095.02.145.022a.606.606 0 0 0 .385-.138.514.514 0 0 0 .156-.196.702.702 0 0 0 .06-.283zm-.771 2.269l.89.197.034-.012-.13.07c-.163.094-.326.186-.493.273l-.195.107a5.471 5.471 0 0 1-.106-.635zm-.395 1.339l1.827-1.034-.023-.142-1.862-.432a2.582 2.582 0 0 1-.237-.069.745.745 0 0 1-.157-.07.358.358 0 0 1-.096-.096.538.538 0 0 1-.062-.17l-.093.014c.008.046.015.092.027.137l.014.095c.016.07.026.138.035.207l.02.126c.006.06.016.119.025.178l.096-.015c-.007-.056-.025-.13.006-.18.031-.054.074-.06.126-.051.03.003.068.01.12.02.052.013.118.028.197.045l.278.063c.007.04.01.06.019.102l.023.138c.018.085.048.288.058.382l.014.104.004.024a16.079 16.079 0 0 0-.41.22 3.075 3.075 0 0 1-.16.085c-.02.012-.042.025-.064.033-.01.004-.017 0-.026-.006a.121.121 0 0 1-.023-.042.783.783 0 0 1-.022-.08l-.022-.134-.097.017c.011.068.023.135.036.202l.023.14c.016.076.028.151.037.229l.022.138c.008.066.018.132.03.2l.095-.017a1.02 1.02 0 0 1-.009-.137.195.195 0 0 1 .025-.072.318.318 0 0 1 .068-.068c.034-.025.08-.052.138-.084zm1.733 1.86c-.121.13-.406.157-.563.08a.434.434 0 0 1-.138-.103.464.464 0 0 1-.083-.146 1.06 1.06 0 0 1-.02-.407l.001-.007.915.017.005.036.004.08c.009.16-.002.325-.12.45zm-.99-.054a.59.59 0 0 1-.117.192.427.427 0 0 1-.163.107.568.568 0 0 1-.425-.012.416.416 0 0 1-.234-.286c-.029-.108-.038-.277.008-.382a.268.268 0 0 1 .078-.1.317.317 0 0 1 .119-.047.762.762 0 0 1 .16-.013l.626.01c.008.15.005.391-.052.53zm1.252-1.215l-.098-.002c-.005.066-.01.135-.03.198a.164.164 0 0 1-.045.087.132.132 0 0 1-.08.039.712.712 0 0 1-.145.01l-1.542-.025a.69.69 0 0 1-.146-.014c-.073-.015-.105-.06-.123-.129-.014-.066-.017-.132-.02-.199l-.096-.002a6 6 0 0 0 0 .235l-.003.166c.001.083 0 .164-.004.246l-.003.14c0 .048-.002.094-.005.136l-.001.109c-.003.14.01.266.036.382.028.117.07.217.125.301a.618.618 0 0 0 .212.2c.164.093.419.106.579-.006a.614.614 0 0 0 .181-.186.76.76 0 0 0 .101-.215l.018-.06.012.023a.684.684 0 0 0 .268.287.508.508 0 0 0 .482.002.497.497 0 0 0 .175-.167.768.768 0 0 0 .098-.241c.045-.178.04-.362.039-.543v-.252c0-.097.002-.195.007-.29.001-.077.004-.154.008-.23zm.928.859c0 10.187-8.341 18.446-18.63 18.446-10.288 0-18.629-8.259-18.629-18.446C39.564 8.84 47.904.583 58.193.583c10.289 0 18.63 8.258 18.63 18.446zm.367 0C77.19 8.64 68.684.219 58.193.219c-10.492 0-18.998 8.421-18.998 18.81 0 10.388 8.506 18.81 18.998 18.81 10.491 0 18.997-8.422 18.997-18.81zM13.126 21.438L9.57 11.158l-3.55 10.28h7.106zm-7.838 2.13l-2.257 6.533H0L7.86 8.094h3.453l7.86 22.007h-3.068l-2.255-6.532H5.288zm24.432-9.763h-4.132c-.036-2.054-.07-4.043 2.941-4.043.77 0 1.505.13 2.241.257V8l-2.451-.224c-4.307-.387-5.603 2.597-5.463 6.03h-3.151v1.989h3.151V30.1h2.732V15.794h4.132v-1.989zM90.307 46.243v-2.43c0-1.151-.327-1.496-1.354-1.539v-.094s.92.021 1.28.021 1.407-.02 1.407-.02v.093c-.836.043-1.068.409-1.068 1.54v2.544c0 1.864-1.354 2.324-2.39 2.324-.825 0-2.57-.115-2.57-1.978v-3.508c0-.692-.137-.88-.973-.922v-.094s1.047.021 1.407.021c.36 0 1.417-.02 1.417-.02v.093c-.825.043-.984.23-.984.922v3.141c0 1.654.751 2.114 1.925 2.114 1.163 0 1.903-.658 1.903-2.208M97.074 45.667c0 .827 0 1.173-.01 2 .02.597.053.774.877.837v.084s-.91-.021-1.268-.021c-.36 0-1.27.021-1.27.021v-.084c.836-.052.867-.324.867-.837v-1.634c0-.932-.412-1.34-1.067-1.34-.688 0-1.09.251-1.301.367v2.607c0 .513.042.785.867.837v.084s-.91-.021-1.269-.021c-.36 0-1.269.021-1.269.021v-.084c.836-.052.867-.324.867-.837v-1.854c0-.994-.052-1.204-.91-1.287v-.095l1.724-.251c-.01.251-.01.544-.01.795v.032c.36-.335 1.068-.9 1.724-.9 1.078 0 1.448.68 1.448 1.56M99.813 41.5c.286 0 .54.157.54.534 0 .367-.254.534-.54.534-.296 0-.54-.167-.54-.534 0-.377.244-.535.54-.535zm.317 6.167c0 .513.043.785.867.837v.084s-.91-.021-1.269-.021c-.36 0-1.269.02-1.269.02v-.083c.836-.052.867-.324.867-.837V45.73c0-.984-.053-1.205-.909-1.299v-.084l1.734-.25c-.01.544-.02 1.664-.02 1.664v1.906zM104.021 48.682h-.433l-1.47-3.497c-.328-.775-.423-.806-.814-.827v-.084s.592.011.92.011c.349 0 1.026-.01 1.026-.01v.083c-.36.02-.508.073-.508.22 0 .094.211.576 1.385 3.36l1.015-2.491c.085-.188.148-.346.148-.524 0-.335-.222-.513-.73-.565v-.084s.646.011.994.011c.392 0 .92-.01.92-.01v.083c-.444.052-.771.366-1.078 1.078l-1.375 3.246zM107.838 46.023h2.253c-.022-.68-.117-1.686-1.015-1.686-.889 0-1.195.806-1.238 1.686zm0 .22c0 .974.613 1.916 1.861 1.916.54 0 1.216-.262 1.216-.262l.032.074s-.803.711-1.882.711c-1.079 0-2.136-.711-2.136-2.073 0-1.382.888-2.502 2.22-2.502 1.153 0 1.84.733 1.84 1.958v.178h-3.15zM114.86 45.164s-.212-.272-.635-.272c-.338 0-.72.189-.92.46v2.315c0 .722.212.785 1.132.837v.084s-1.174-.021-1.534-.021c-.36 0-1.269.02-1.269.02v-.083c.835-.052.867-.324.867-.837v-1.854c0-.994-.052-1.204-.909-1.288v-.094l1.702-.251c-.01.251-.01.848-.01 1.12.317-.576.835-1.193 1.3-1.193.403 0 .572.23.572.481 0 .22-.117.45-.296.576M118.158 47.771c0-.418-.2-.596-1.1-1.089-.444-.24-1.28-.67-1.28-1.308 0-.901.9-1.267 1.672-1.267.465 0 .846.125 1.248.146-.01.272-.021.524-.021.786 0 .157 0 .313.01.481h-.095c-.17-.544-.455-1.235-1.216-1.235-.56 0-.857.178-.857.712 0 .481.677.838 1.058 1.026.962.502 1.3.837 1.3 1.403 0 .796-.877 1.256-1.755 1.256-.465 0-.92-.178-1.353-.178a26.6 26.6 0 0 0-.075-1.298h.085c.222.534.54 1.298 1.322 1.298.698 0 1.057-.303 1.057-.733M120.95 41.5c.285 0 .539.157.539.534 0 .367-.254.534-.54.534-.296 0-.54-.167-.54-.534 0-.377.244-.535.54-.535zm.316 6.167c0 .513.043.785.868.837v.084s-.91-.021-1.27-.021c-.359 0-1.268.02-1.268.02v-.083c.835-.052.867-.324.867-.837V45.73c0-.984-.053-1.205-.91-1.299v-.084l1.735-.25c-.01.544-.022 1.664-.022 1.664v1.906zM125.93 48.117l.031.083s-.676.482-1.438.482c-.655 0-1.142-.23-1.142-.879l.021-3.277h-.772v-.084c.677-.157 1.311-.482 1.48-1.236h.085v1.141h1.703v.179h-1.703v2.733c0 .69.38.963.93.963.434 0 .805-.105.805-.105M128.943 48.714c-.771 1.853-1.258 2.544-2.05 2.544-.403 0-.572-.2-.572-.409 0-.156.084-.324.233-.44.19.105.37.136.539.136.687 0 1.142-.711 1.49-1.57l-1.586-3.79c-.327-.774-.423-.806-.814-.827v-.084s.593.01.92.01c.35 0 1.026-.01 1.026-.01v.084c-.36.021-.507.073-.507.22 0 .094.19.607 1.417 3.371l1.015-2.502c.095-.23.18-.46.18-.64 0-.24-.18-.418-.625-.449v-.084s.476.01.825.01c.392 0 .952-.01.952-.01v.084c-.455.053-.74.272-1.079 1.079l-1.364 3.277zM134.674 46.337c0 1.455.592 2.125 1.333 2.125.887 0 1.395-.513 1.395-2.01 0-1.455-.592-2.125-1.374-2.125-.804 0-1.354.513-1.354 2.01m-.91.167c0-1.445 1.058-2.397 2.306-2.397 1.195 0 2.241.712 2.241 2.178 0 1.476-.983 2.397-2.357 2.397-1.153 0-2.19-.753-2.19-2.178M140.722 43.782v.565h1.396v.179h-1.396v3.14c0 .723.212.786 1.142.838v.084s-1.184-.021-1.544-.021c-.36 0-1.269.02-1.269.02v-.083c.836-.052.867-.324.867-.837v-3.141h-.846v-.115l.846-.084v-.273c0-1.958 1.333-2.617 2.232-2.617.72 0 1.195.22 1.195.419 0 .324-.296.575-.55.575 0 0-.37-.753-.888-.753-.762 0-1.185.764-1.185 2.104M145.85 42.18h3.743v.21l-4.07 6h.348c3.141-.032 3.775-.43 3.902-1.435h.085a22.504 22.504 0 0 0-.18 1.686 12.462 12.462 0 0 0-1.046-.053h-4.093v-.241l4.008-5.968h-.645c-2.369 0-2.855.367-2.982 1.456h-.085c.021-.283.021-.566.021-.848 0-.293 0-.576-.02-.86.316.032.781.053 1.015.053M152.28 48.19c.422 0 .666-.126.835-.261v-.053l.02-1.466c-.634.01-1.638.24-1.638 1.068 0 .513.465.712.782.712m.836-.21c-.222.284-.645.702-1.311.702-.666 0-1.216-.377-1.216-.994 0-1.141 1.543-1.403 2.559-1.414l.01-.471c.01-.576-.148-1.1-1.047-1.1-.76 0-1.205.356-1.205.356l-.053-.052s.603-.9 1.65-.9c.972 0 1.459.523 1.459 1.33-.01.827-.01 1.036-.042 1.863 0 .932.02.964.94.964v.094c-.465.24-.803.324-1.057.324-.475 0-.645-.314-.687-.701M158.401 45.824c0-1.152-.465-1.508-1.046-1.508-.571 0-.973.356-.973 1.487 0 1.005.507 1.434 1.047 1.434.687 0 .972-.429.972-1.413m-1.13 5.224c1.025 0 1.829-.565 1.829-1.35 0-.566-.603-.608-1.185-.65l-1.12-.072-.276-.022c-.317.251-.518.524-.518.953 0 .817.434 1.141 1.27 1.141m-2.02-.921c0-.534.602-.932 1.226-1.183l-.084-.02c-.35-.106-.561-.367-.561-.66 0-.357.37-.628.825-.89l-.074-.011c-.497-.157-.984-.618-.984-1.434 0-1.257.857-1.822 1.883-1.822.507 0 .867.125 1.226.356l1.312-.22v.481l-1.227-.135c.254.303.402.648.402 1.12 0 1.183-.762 1.727-1.914 1.727-.36 0-.55-.042-.592-.052-.17.283-.19.387-.19.503 0 .156.179.355.76.387l1.28.094c.825.052 1.248.398 1.248.984 0 1.204-1.195 1.905-2.686 1.905-1.28 0-1.85-.533-1.85-1.13M163.615 45.164s-.212-.272-.635-.272c-.338 0-.719.189-.92.46v2.315c0 .722.212.785 1.132.837v.084s-1.174-.021-1.534-.021c-.36 0-1.269.02-1.269.02v-.083c.836-.052.867-.324.867-.837v-1.854c0-.994-.052-1.204-.909-1.288v-.094l1.703-.251c-.011.251-.011.848-.011 1.12.317-.576.835-1.193 1.3-1.193.403 0 .572.23.572.481 0 .22-.117.45-.296.576M165.317 46.023h2.252c-.021-.68-.116-1.686-1.015-1.686-.888 0-1.195.806-1.237 1.686zm0 .22c0 .974.613 1.916 1.86 1.916.54 0 1.217-.262 1.217-.262l.031.074s-.803.711-1.882.711c-1.078 0-2.136-.711-2.136-2.073 0-1.382.888-2.502 2.22-2.502 1.154 0 1.84.733 1.84 1.958v.178h-3.15zM171.671 48.452c.825 0 1.502-.629 1.502-1.958 0-.932-.444-1.78-1.438-1.78a2.6 2.6 0 0 0-1.195.272v3.037c.275.355.772.429 1.131.429m-1.945-2.02v-3.403c0-.995-.043-1.205-.91-1.288v-.094l1.735-.252c-.011.555-.011 1.665-.011 1.665v1.842c.392-.376 1.026-.795 1.671-.795.92 0 1.86.7 1.86 2.063 0 1.633-1.258 2.512-2.674 2.512-.561 0-1.248-.094-1.703-.335 0 0 .032-.963.032-1.916M86.839 57.047h.57c1.037 0 1.323-.46 1.365-1.057h.095s-.032.848-.032 1.12c0 .272.032 1.288.032 1.288h-.095c-.053-.754-.307-1.131-1.332-1.131h-.603v2.084c0 .701.243.879 1.28.931v.084s-1.576-.02-1.936-.02c-.36 0-1.639.02-1.639.02v-.084c.835-.052.983-.23.983-.931v-4.377c0-.702-.148-.879-.983-.921v-.095s1.28.021 1.639.021c.656 0 2.538-.02 2.538-.02.222 0 .582-.032 1.058-.084a16.36 16.36 0 0 0 0 1.717h-.096c-.095-.953-.666-1.403-2.58-1.413h-.264v2.868zM92.104 59.958a.874.874 0 0 0 .487-.147l.032-1.612c-.773.052-1.206.366-1.206 1.005 0 .482.286.754.687.754m.487-.052c-.243.22-.698.555-1.28.555-.867 0-1.258-.534-1.258-1.037 0-.953 1.364-1.309 2.57-1.35v-.503c0-.733-.466-.932-.973-.932-.412 0-.888.094-1.121.22l-.043-.063s.635-.911 1.904-.911c.941 0 1.491.513 1.491 1.32-.01.869-.01 1.098-.042 1.842.01.754.095.973.94.973v.084c-.538.293-.961.357-1.279.357-.592 0-.867-.304-.91-.555M96.524 57.822c0 1.288.709 1.979 1.607 1.979.37 0 .793-.084 1.026-.2l.053.085c-.56.513-1.258.775-1.914.775-1.12 0-2.126-.744-2.126-2.2 0-1.528 1.28-2.376 2.56-2.376.761 0 1.512.24 1.66.534-.032.314-.455.68-.74.68-.043-.125-.402-.973-1.058-.973-.793 0-1.068.754-1.068 1.696M105.872 60.157l-2.179.314c.011-.251.011-.576.011-.953-.307.315-.994.943-1.766.943-1.089 0-1.406-.66-1.406-1.487l.01-1.424c0-1.006-.053-1.225-.92-1.309v-.094l2.189-.314c-.01.555-.02 1.706-.02 1.706v1.194c0 .869.338 1.016.803 1.016.528 0 .878-.158 1.11-.304V57.55c0-1.006-.138-1.225-1.005-1.309v-.094l2.274-.314c-.01.555-.01 1.706-.01 1.706v1.267c.01.88.052 1.173.909 1.267v.084zM108.335 59.445c0 .523.043.785.868.837v.084s-1.132-.02-1.492-.02c-.359 0-1.49.02-1.49.02v-.084c.835-.052.856-.314.856-.837v-4.597c0-1.004-.042-1.214-.909-1.308v-.084l2.189-.314c-.011.554-.022 1.696-.022 1.696v4.607zM113.146 59.811l.043.115s-.751.535-1.64.535c-.782 0-1.364-.241-1.364-.89l.011-3.267h-.761v-.084c.772-.115 1.745-.827 1.924-1.612h.095v1.517h1.692v.179h-1.692v2.722c0 .723.423.88.868.88.327 0 .645-.042.824-.095M116.54 59.696c-.93 2.377-1.47 3.392-2.495 3.392-.317 0-.486-.177-.486-.397 0-.178.042-.335.242-.45a1.9 1.9 0 0 0 .603.115c.55 0 .973-.377 1.375-1.425l-1.713-3.968c-.317-.722-.434-.816-.835-.837v-.084s.824.021 1.152.021c.339 0 1.248-.021 1.248-.021v.084c-.36.021-.508.073-.508.23 0 .136.064.304 1.29 3.078l.867-2.209c.064-.178.127-.366.127-.523 0-.335-.232-.524-.73-.576v-.084s.456.021.794.021c.402 0 1.152-.021 1.152-.021v.084c-.444.063-.814.408-1.1 1.089l-.983 2.481zM122.186 58.115c0 1.477.37 2.115 1.163 2.115.846 0 1.121-.617 1.121-2 0-1.539-.465-2.125-1.153-2.125-.866 0-1.13.733-1.13 2.01m-1.365.084c0-1.225 1.005-2.314 2.464-2.314 1.364 0 2.538.628 2.538 2.23 0 1.309-1.015 2.346-2.39 2.346-1.533 0-2.612-.692-2.612-2.262M128.51 55.12v1.006h1.395v.178h-1.396v3.14c0 .734.212.786 1.142.838v.084s-1.406-.02-1.765-.02c-.36 0-1.491.02-1.491.02v-.084c.835-.052.856-.314.856-.837v-3.141h-.835v-.095l.835-.104v-.398c0-1.424.899-2.534 2.337-2.534.55 0 1.343.188 1.49.482-.03.314-.454.68-.739.68-.01.011-.423-.89-.994-.89-.645 0-.836.618-.836 1.675M133.775 57.79c.222.01.581.022 1.089.022.465 0 .878 0 1.11-.021l-1.057-2.848a143.373 143.373 0 0 0-1.142 2.848zm1.322-3.884h.835l2.094 5.528c.296.733.38.807.803.849v.083s-1.046-.02-1.385-.02c-.37 0-1.48.02-1.48.02v-.083c.412 0 .793-.011.793-.241 0-.095-.582-1.675-.708-2.042-.339-.01-.847-.01-1.185-.01-.18 0-.846 0-1.163.01-.349.89-.571 1.487-.582 1.55-.158.523.476.722.994.733v.083s-1.173-.02-1.512-.02c-.36 0-.877.02-.877.02v-.083c.528-.063.94-.388 1.194-1.016l2.179-5.361zM142.7 57.152a1.054 1.054 0 0 0-.846-.43c-.233 0-.476.084-.677.252v2.47c0 .65.317.786 1.131.838v.084s-1.395-.02-1.756-.02c-.358 0-1.49.02-1.49.02v-.084c.835-.052.856-.314.856-.837V57.59c0-.88-.042-1.172-.909-1.266v-.084l2.178-.314c-.01.251-.01.576-.01.953.317-.492.782-.995 1.3-.995.37 0 .667.178.667.534 0 .356-.223.597-.445.733M144.814 57.822c0 1.288.709 1.979 1.607 1.979.37 0 .793-.084 1.026-.2l.053.085c-.56.513-1.259.775-1.914.775-1.12 0-2.126-.744-2.126-2.2 0-1.528 1.28-2.376 2.56-2.376.761 0 1.512.24 1.66.534-.032.314-.455.68-.74.68-.043-.125-.402-.973-1.058-.973-.793 0-1.068.754-1.068 1.696M153.305 57.487c0 .89 0 1.13-.01 1.958.02.586.073.775.877.837v.084s-1.132-.02-1.49-.02c-.36 0-1.492.02-1.492.02v-.084c.835-.052.857-.314.857-.837v-1.717c0-.859-.328-1.131-.793-1.131-.392 0-.815.115-1.122.314v2.534c0 .523.043.785.868.837v.084s-1.132-.02-1.49-.02c-.361 0-1.492.02-1.492.02v-.084c.835-.052.856-.314.856-.837v-4.596c0-1.006-.042-1.215-.91-1.31v-.083l2.19-.314c-.01.554-.022 1.696-.022 1.696v2c.286-.325.942-.953 1.777-.953 1.079 0 1.396.775 1.396 1.602M156.012 53.425c.38 0 .687.303.687.68 0 .387-.307.68-.687.68a.67.67 0 0 1-.687-.68c0-.377.296-.68.687-.68zm.613 6.02c0 .523.042.785.867.838v.083s-1.132-.02-1.49-.02c-.36 0-1.492.02-1.492.02v-.083c.835-.053.857-.315.857-.838V57.55c0-1.006-.042-1.225-.91-1.31v-.093l2.189-.314c-.01.555-.021 1.706-.021 1.706v1.906zM161.436 59.811l.043.115s-.752.535-1.64.535c-.783 0-1.364-.241-1.364-.89l.01-3.267h-.76v-.084c.77-.115 1.744-.827 1.924-1.612h.095v1.517h1.692v.179h-1.692v2.722c0 .723.423.88.867.88.328 0 .645-.042.825-.095M163.201 57.759v.042H165c0-1.068-.2-1.696-.762-1.696-.655 0-1.036.848-1.036 1.654zm.01.262c.085 1.194.7 1.843 1.83 1.843.38 0 .688-.073 1.069-.24l.063.093s-.666.744-1.978.744c-1.195 0-2.347-.618-2.347-2.136 0-1.571 1.152-2.44 2.443-2.44 1.247 0 2.04.691 2.062 1.958v.178h-3.141zM168.287 57.822c0 1.288.709 1.979 1.608 1.979.37 0 .792-.084 1.025-.2l.053.085c-.56.513-1.258.775-1.914.775-1.12 0-2.125-.744-2.125-2.2 0-1.528 1.28-2.376 2.559-2.376.76 0 1.512.24 1.66.534-.032.314-.454.68-.74.68-.043-.125-.402-.973-1.058-.973-.793 0-1.068.754-1.068 1.696M175.107 59.811l.043.115s-.751.535-1.64.535c-.782 0-1.364-.241-1.364-.89l.011-3.267h-.761v-.084c.772-.115 1.745-.827 1.924-1.612h.096v1.517h1.691v.179h-1.691v2.722c0 .723.423.88.867.88.328 0 .645-.042.824-.095M181.547 60.157l-2.178.314c.01-.251.01-.576.01-.953-.306.315-.994.943-1.766.943-1.09 0-1.406-.66-1.406-1.487l.01-1.424c0-1.006-.052-1.225-.92-1.309v-.094l2.19-.314c-.011.555-.022 1.706-.022 1.706v1.194c0 .869.339 1.016.804 1.016a2.01 2.01 0 0 0 1.11-.304V57.55c0-1.006-.137-1.225-1.005-1.309v-.094l2.274-.314c-.01.555-.01 1.706-.01 1.706v1.267c.01.88.052 1.173.909 1.267v.084zM185.533 57.152a1.055 1.055 0 0 0-.846-.43c-.232 0-.476.084-.676.252v2.47c0 .65.317.786 1.13.838v.084s-1.395-.02-1.754-.02c-.36 0-1.491.02-1.491.02v-.084c.835-.052.856-.314.856-.837V57.59c0-.88-.042-1.172-.91-1.266v-.084l2.18-.314c-.011.251-.011.576-.011.953.317-.492.782-.995 1.3-.995.37 0 .666.178.666.534 0 .356-.222.597-.444.733M187.658 57.759v.042h1.798c0-1.068-.201-1.696-.762-1.696-.655 0-1.036.848-1.036 1.654zm.01.262c.086 1.194.698 1.843 1.83 1.843.38 0 .687-.073 1.068-.24l.064.093s-.667.744-1.978.744c-1.195 0-2.348-.618-2.348-2.136 0-1.571 1.153-2.44 2.443-2.44 1.248 0 2.041.691 2.062 1.958v.178h-3.14z"/>
        <g>
            <path d="M89.905 15.194c0-.596-.38-.9-1.417-1.497-1.11-.649-1.724-1.036-1.724-1.958 0-.963.941-1.654 2.062-1.654.709 0 .973.168 1.544.199h.095c0 .251-.01.513-.01.764s.01.68.01.932h-.084c-.201-.848-.466-1.706-1.66-1.706-.72 0-1.058.607-1.058 1.193 0 .482.19.754 1.322 1.434 1.28.754 1.819 1.079 1.819 1.958 0 1.12-1.121 1.812-2.38 1.812-.782 0-.962-.178-1.713-.178-.02-.566-.042-1.131-.126-1.696h.095c.253.837.73 1.675 1.871 1.675 1.037 0 1.354-.607 1.354-1.278M94.082 16.67h-.434l-1.47-3.496c-.328-.775-.423-.807-.814-.828v-.083s.592.01.92.01c.349 0 1.026-.01 1.026-.01v.083c-.36.021-.508.074-.508.22 0 .095.211.576 1.385 3.361l1.015-2.492c.085-.188.149-.345.149-.523 0-.335-.222-.513-.73-.566v-.083s.645.01.994.01c.39 0 .92-.01.92-.01v.083c-.445.053-.772.367-1.08 1.079l-1.373 3.246zM97.898 14.011h2.253c-.021-.68-.117-1.685-1.015-1.685-.888 0-1.195.806-1.238 1.685zm0 .22c0 .974.614 1.916 1.862 1.916.539 0 1.215-.261 1.215-.261l.032.073s-.803.712-1.882.712c-1.078 0-2.136-.712-2.136-2.073 0-1.383.888-2.503 2.22-2.503 1.154 0 1.84.733 1.84 1.958v.178H97.9zM107.066 16.493l-1.607.24v-.91c-.254.251-.93.848-1.745.848-1.079 0-1.407-.68-1.407-1.56 0-.398.011-1.414.011-1.466 0-.963 0-1.047-.719-1.13v-.095l1.534-.252c-.011.555-.011 1.446-.011 1.446v1.004c0 1.257.349 1.488 1.047 1.488.624 0 1.057-.21 1.28-.325v-1.98c0-1.182-.16-1.203-.868-1.287v-.094l1.692-.252c-.01.555-.021 1.665-.021 1.665v1.54c0 .9.053 1.026.814 1.026v.094zM111.168 10.158l.064.053-1.375 1.518-1.459-1.518.063-.053 1.386.88 1.321-.88zm-2.58 4.21c0 .89.54 1.748 1.523 1.748.846 0 1.343-.293 1.343-.293l.042.083s-.644.765-1.808.765c-.888 0-2.009-.545-2.009-2.073 0-1.78 1.332-2.503 2.506-2.503.55 0 1.28.2 1.428.492a.631.631 0 0 1-.603.555c-.01.021-.454-.806-1.227-.806-.645 0-1.195.597-1.195 2.031zM113.379 9.488c.285 0 .539.157.539.534 0 .367-.254.534-.54.534-.295 0-.539-.167-.539-.534 0-.377.244-.534.54-.534zm.317 6.167c0 .513.042.785.867.838v.084s-.91-.021-1.269-.021c-.36 0-1.27.02-1.27.02v-.083c.836-.053.868-.325.868-.838v-1.937c0-.984-.053-1.204-.91-1.298v-.084l1.735-.251c-.011.544-.021 1.664-.021 1.664v1.906zM116.752 15.655c0 .513.042.786.867.838v.083s-.91-.02-1.269-.02c-.36 0-1.27.02-1.27.02v-.083c.836-.052.868-.325.868-.838v-4.638c0-.995-.053-1.204-.91-1.288v-.094l1.735-.252c-.01.555-.021 1.665-.021 1.665v4.607zM119.49 9.488c.286 0 .54.157.54.534 0 .367-.254.534-.54.534-.296 0-.54-.167-.54-.534 0-.377.244-.534.54-.534zm.317 6.167c0 .513.042.785.867.838v.084s-.91-.021-1.269-.021c-.36 0-1.269.02-1.269.02v-.083c.836-.053.867-.325.867-.838v-1.937c0-.984-.053-1.204-.909-1.298v-.084l1.734-.251c-.01.544-.021 1.664-.021 1.664v1.906zM124.28 10.169l.063.052-1.374 1.518-1.46-1.518.064-.052 1.396.88 1.31-.88zm-.476 5.59c0-.418-.201-.596-1.1-1.088-.444-.241-1.28-.67-1.28-1.309 0-.9.9-1.267 1.672-1.267.465 0 .845.126 1.247.147-.01.272-.02.523-.02.785 0 .157 0 .314.01.482h-.096c-.169-.545-.454-1.236-1.215-1.236-.56 0-.857.178-.857.712 0 .482.677.838 1.057 1.026.962.503 1.3.838 1.3 1.403 0 .796-.877 1.257-1.754 1.257-.465 0-.92-.178-1.354-.178a26.6 26.6 0 0 0-.074-1.299h.085c.222.534.54 1.299 1.321 1.299.699 0 1.058-.304 1.058-.733zM128.52 16.105l.032.084s-.677.482-1.438.482c-.656 0-1.142-.23-1.142-.88l.02-3.277h-.771v-.084c.676-.157 1.31-.481 1.48-1.235h.085v1.141h1.702v.178h-1.702v2.733c0 .691.38.963.93.963.434 0 .804-.105.804-.105M130 14.011h2.253c-.022-.68-.117-1.685-1.016-1.685-.888 0-1.195.806-1.237 1.685zm0 .22c0 .974.613 1.916 1.861 1.916.539 0 1.216-.261 1.216-.261l.032.073s-.804.712-1.882.712c-1.079 0-2.137-.712-2.137-2.073 0-1.383.889-2.503 2.221-2.503 1.153 0 1.84.733 1.84 1.958v.178H130zM141.06 16.493l-1.607.24v-.91c-.254.251-.93.848-1.745.848-1.078 0-1.406-.68-1.406-1.56 0-.398.01-1.414.01-1.466 0-.963 0-1.047-.718-1.13v-.095l1.533-.252c-.01.555-.01 1.446-.01 1.446v1.004c0 1.257.348 1.488 1.047 1.488.623 0 1.057-.21 1.279-.325v-1.98c0-1.182-.16-1.203-.868-1.287v-.094l1.693-.252c-.011.555-.022 1.665-.022 1.665v1.54c0 .9.053 1.026.814 1.026v.094zM144.92 10.169h3.743v.21l-4.07 5.999h.348c3.14-.032 3.775-.43 3.902-1.435h.084a22.701 22.701 0 0 0-.179 1.686 12.471 12.471 0 0 0-1.047-.053h-4.093v-.24l4.008-5.968h-.645c-2.368 0-2.855.366-2.982 1.455h-.085c.022-.283.022-.565.022-.848 0-.293 0-.576-.022-.859.318.032.783.053 1.015.053M151.349 16.179c.423 0 .666-.126.835-.262v-.052l.022-1.466c-.635.01-1.64.24-1.64 1.068 0 .513.466.712.783.712m.835-.21c-.222.283-.645.702-1.311.702-.666 0-1.216-.377-1.216-.995 0-1.141 1.544-1.403 2.559-1.413l.01-.472c.011-.575-.147-1.099-1.046-1.099-.762 0-1.206.356-1.206.356l-.052-.052s.602-.9 1.649-.9c.973 0 1.459.523 1.459 1.33-.01.826-.01 1.036-.043 1.863 0 .932.022.963.942.963v.094c-.466.241-.804.325-1.058.325-.476 0-.645-.314-.687-.702M157.471 13.812c0-1.151-.465-1.507-1.047-1.507-.571 0-.973.356-.973 1.486 0 1.006.508 1.435 1.047 1.435.687 0 .973-.43.973-1.414m-1.132 5.225c1.026 0 1.83-.565 1.83-1.35 0-.566-.603-.608-1.185-.65l-1.12-.073-.276-.02c-.317.25-.517.523-.517.952 0 .816.433 1.141 1.268 1.141m-2.02-.921c0-.534.603-.932 1.227-1.183l-.084-.021c-.35-.105-.56-.367-.56-.66 0-.356.37-.628.824-.89l-.074-.01c-.497-.158-.983-.618-.983-1.435 0-1.256.856-1.822 1.882-1.822.507 0 .867.126 1.227.356l1.311-.22v.482l-1.227-.136c.254.304.402.649.402 1.12 0 1.183-.761 1.728-1.914 1.728-.36 0-.55-.042-.592-.053-.17.283-.19.388-.19.503 0 .157.18.356.761.387l1.28.095c.824.052 1.247.398 1.247.984 0 1.204-1.195 1.905-2.686 1.905-1.279 0-1.85-.534-1.85-1.13M162.684 13.153s-.212-.272-.635-.272c-.338 0-.72.188-.92.46v2.314c0 .723.212.785 1.132.838v.084s-1.174-.021-1.534-.021c-.36 0-1.269.02-1.269.02v-.083c.835-.053.867-.325.867-.838v-1.853c0-.995-.052-1.204-.909-1.288v-.094l1.702-.251c-.01.25-.01.848-.01 1.12.317-.576.835-1.194 1.3-1.194.403 0 .572.23.572.482 0 .22-.117.45-.296.576M164.386 14.011h2.252c-.021-.68-.117-1.685-1.015-1.685-.888 0-1.195.806-1.237 1.685zm0 .22c0 .974.613 1.916 1.86 1.916.54 0 1.216-.261 1.216-.261l.032.073s-.803.712-1.882.712c-1.078 0-2.136-.712-2.136-2.073 0-1.383.888-2.503 2.22-2.503 1.154 0 1.84.733 1.84 1.958v.178h-3.15zM170.741 16.44c.824 0 1.501-.628 1.501-1.958 0-.931-.444-1.78-1.438-1.78-.528 0-.93.137-1.195.273v3.036c.275.356.772.43 1.132.43m-1.946-2.021v-3.403c0-.995-.042-1.204-.91-1.288v-.094l1.735-.251c-.01.555-.01 1.664-.01 1.664v1.843c.39-.377 1.025-.796 1.67-.796.92 0 1.861.702 1.861 2.063 0 1.633-1.258 2.513-2.675 2.513-.56 0-1.248-.094-1.703-.335 0 0 .032-.964.032-1.916M179.2 16.493l-1.608.24v-.91c-.253.251-.93.848-1.744.848-1.079 0-1.406-.68-1.406-1.56 0-.398.01-1.414.01-1.466 0-.963 0-1.047-.72-1.13v-.095l1.534-.252c-.01.555-.01 1.446-.01 1.446v1.004c0 1.257.348 1.488 1.047 1.488.623 0 1.057-.21 1.279-.325v-1.98c0-1.182-.159-1.203-.867-1.287v-.094l1.692-.252c-.011.555-.021 1.665-.021 1.665v1.54c0 .9.052 1.026.814 1.026v.094zM88.065 25.78c.222.01.581.02 1.089.02.465 0 .878 0 1.11-.02l-1.057-2.848a140.822 140.822 0 0 0-1.142 2.847zm1.322-3.885h.835l2.094 5.528c.296.733.38.806.804.848v.084s-1.047-.021-1.385-.021c-.37 0-1.481.021-1.481.021v-.084c.412 0 .793-.01.793-.24 0-.095-.582-1.676-.708-2.042-.339-.01-.847-.01-1.185-.01-.18 0-.846 0-1.163.01-.349.89-.571 1.486-.582 1.55-.158.523.476.722.995.732v.084s-1.175-.021-1.513-.021c-.36 0-.877.021-.877.021v-.084c.528-.063.94-.387 1.194-1.016l2.179-5.36zM96.99 25.14a1.057 1.057 0 0 0-.846-.429c-.233 0-.476.084-.677.252v2.47c0 .65.317.786 1.131.838v.084s-1.396-.021-1.755-.021c-.36 0-1.49.02-1.49.02v-.083c.834-.052.856-.314.856-.837V25.58c0-.88-.042-1.172-.91-1.266v-.085l2.178-.314c-.01.252-.01.576-.01.954.317-.493.782-.995 1.3-.995.37 0 .667.178.667.534 0 .356-.222.596-.444.733M102.942 25.476c0 .89 0 1.13-.01 1.958.02.586.074.775.877.837v.084s-1.13-.021-1.49-.021c-.36 0-1.491.02-1.491.02v-.083c.835-.052.856-.314.856-.837v-1.717c0-.859-.328-1.131-.793-1.131-.392 0-.815.115-1.121.314v2.534c0 .523.042.785.867.837v.084s-1.131-.021-1.49-.021c-.36 0-1.492.02-1.492.02v-.083c.836-.052.856-.314.856-.837v-4.597c0-1.005-.042-1.214-.908-1.309v-.083l2.188-.314c-.01.554-.021 1.696-.021 1.696v2c.286-.325.94-.953 1.777-.953 1.078 0 1.395.775 1.395 1.602M105.649 21.413c.38 0 .687.304.687.68 0 .388-.307.681-.687.681a.67.67 0 0 1-.688-.68c0-.377.296-.68.688-.68zm.613 6.02c0 .524.043.786.867.838v.084s-1.131-.021-1.49-.021c-.36 0-1.492.02-1.492.02v-.083c.836-.052.856-.314.856-.837v-1.895c0-1.006-.042-1.226-.908-1.31v-.093l2.188-.314c-.01.554-.02 1.706-.02 1.706v1.906zM111.073 27.8l.042.115s-.75.534-1.639.534c-.782 0-1.364-.24-1.364-.89l.011-3.266h-.761v-.084c.772-.115 1.744-.828 1.924-1.612h.095v1.517h1.692v.179h-1.692v2.722c0 .722.423.88.868.88.327 0 .644-.042.824-.095M112.839 25.748v.042h1.797c0-1.068-.2-1.697-.761-1.697-.656 0-1.036.849-1.036 1.655zm.01.262c.085 1.193.698 1.842 1.83 1.842.38 0 .687-.073 1.068-.24l.063.094s-.666.743-1.977.743c-1.195 0-2.348-.617-2.348-2.136 0-1.57 1.153-2.44 2.442-2.44 1.249 0 2.042.692 2.063 1.959v.178h-3.14zM119.785 25.549l1.904 2.324c.285.346.412.398.761.398v.084c-.285 0-.581-.021-1.12-.021-.36 0-1.184.01-1.545.021v-.084c.191-.02.519-.052.519-.262 0-.052-.032-.115-.096-.198l-1.374-1.655 1.576-1.466a.323.323 0 0 0 .094-.22c0-.22-.348-.345-.634-.356v-.083s.92.02 1.195.02 1.047-.02 1.047-.02v.083c-.708.032-1.015.2-1.555.713l-.772.722zm-1.194 1.884c0 .524.074.796.772.838v.084s-1.037-.021-1.396-.021c-.36 0-1.491.021-1.491.021v-.084c.836-.052.856-.314.856-.838v-4.596c0-1.005-.042-1.214-.909-1.309v-.084l2.189-.314c-.01.555-.021 1.696-.021 1.696v4.607zM126.215 27.8l.042.115s-.751.534-1.64.534c-.782 0-1.363-.24-1.363-.89l.01-3.266h-.761v-.084c.772-.115 1.744-.828 1.924-1.612h.096v1.517h1.692v.179h-1.692v2.722c0 .722.423.88.867.88.327 0 .645-.042.825-.095M128.001 26.104c0 1.476.37 2.115 1.163 2.115.846 0 1.121-.618 1.121-2 0-1.54-.465-2.125-1.153-2.125-.866 0-1.13.733-1.13 2.01m-1.365.084c0-1.225 1.005-2.314 2.464-2.314 1.364 0 2.538.628 2.538 2.23 0 1.309-1.015 2.345-2.39 2.345-1.533 0-2.612-.69-2.612-2.261M137.454 25.476c0 .89 0 1.13-.01 1.958.02.586.074.775.877.837v.084s-1.131-.021-1.49-.021c-.36 0-1.491.02-1.491.02v-.083c.834-.052.856-.314.856-.837v-1.717c0-.859-.328-1.131-.793-1.131-.391 0-.814.115-1.121.314v2.534c0 .523.042.785.867.837v.084s-1.132-.021-1.49-.021c-.36 0-1.492.02-1.492.02v-.083c.835-.052.857-.314.857-.837V25.58c0-.88-.042-1.172-.91-1.266v-.084l2.179-.314c-.011.25-.011.575-.011.827v.083c.285-.324.941-.952 1.777-.952 1.078 0 1.395.775 1.395 1.602M141.176 27.549c0-.356-.211-.534-1.09-1.016-.496-.272-1.247-.69-1.247-1.393 0-.785.762-1.266 1.85-1.266.55 0 .931.125 1.333.157-.01.188-.01.66-.01.974v.282h-.085c-.18-.69-.571-1.194-1.184-1.194-.434 0-.761.147-.761.566 0 .387.39.712 1.004 1.005 1.026.503 1.353.9 1.353 1.54 0 .858-.973 1.245-2.009 1.245-.55 0-1.047-.167-1.406-.178-.021-.419-.042-.869-.085-1.288h.095c.18.608.698 1.236 1.322 1.236.73 0 .92-.346.92-.67M146.2 25.549l1.902 2.324c.286.346.413.398.762.398v.084c-.286 0-.582-.021-1.121-.021-.36 0-1.185.01-1.544.021v-.084c.19-.02.518-.052.518-.262 0-.052-.032-.115-.095-.198l-1.375-1.655 1.576-1.466a.326.326 0 0 0 .095-.22c0-.22-.349-.345-.634-.356v-.083s.92.02 1.195.02c.274 0 1.047-.02 1.047-.02v.083c-.709.032-1.016.2-1.555.713l-.772.722zm-1.196 1.884c0 .524.074.796.772.838v.084s-1.037-.021-1.396-.021c-.36 0-1.49.021-1.49.021v-.084c.834-.052.856-.314.856-.838v-4.596c0-1.005-.042-1.214-.91-1.309v-.084l2.189-.314c-.01.555-.02 1.696-.02 1.696v4.607zM150.523 21.413c.38 0 .688.304.688.68 0 .388-.307.681-.688.681a.67.67 0 0 1-.687-.68c0-.377.296-.68.687-.68zm.614 6.02c0 .524.042.786.867.838v.084s-1.131-.021-1.491-.021c-.36 0-1.491.02-1.491.02v-.083c.836-.052.856-.314.856-.837v-1.895c0-1.006-.042-1.226-.909-1.31v-.093l2.189-.314c-.01.554-.021 1.706-.021 1.706v1.906zM156.402 23.11v1.005h1.396v.178h-1.396v3.14c0 .734.212.786 1.142.838v.084s-1.406-.021-1.766-.021c-.359 0-1.49.02-1.49.02v-.083c.835-.052.856-.314.856-.837v-3.141h-.835v-.095l.835-.104v-.398c0-1.424.899-2.534 2.337-2.534.55 0 1.343.188 1.491.482-.031.314-.455.68-.74.68-.01.01-.423-.89-.994-.89-.645 0-.836.618-.836 1.675M160.029 27.947a.876.876 0 0 0 .486-.147l.032-1.613c-.772.053-1.205.367-1.205 1.006 0 .482.286.754.687.754m.486-.053c-.243.22-.698.555-1.279.555-.867 0-1.258-.534-1.258-1.036 0-.953 1.364-1.31 2.57-1.35v-.504c0-.733-.466-.931-.973-.931-.413 0-.889.094-1.122.22l-.042-.064s.635-.91 1.904-.91c.94 0 1.49.513 1.49 1.32-.01.868-.01 1.098-.042 1.842.01.753.096.973.941.973v.084c-.539.293-.962.356-1.28.356-.591 0-.866-.303-.909-.555M166.31 25.549l1.903 2.324c.286.346.413.398.761.398v.084c-.285 0-.581-.021-1.12-.021-.36 0-1.184.01-1.544.021v-.084c.19-.02.518-.052.518-.262 0-.052-.032-.115-.095-.198l-1.375-1.655 1.576-1.466a.323.323 0 0 0 .095-.22c0-.22-.35-.345-.635-.356v-.083s.92.02 1.196.02c.274 0 1.046-.02 1.046-.02v.083c-.708.032-1.015.2-1.554.713l-.772.722zm-1.195 1.884c0 .524.074.796.772.838v.084s-1.036-.021-1.396-.021c-.36 0-1.491.021-1.491.021v-.084c.836-.052.857-.314.857-.838v-4.596c0-1.005-.043-1.214-.91-1.309v-.084l2.189-.314c-.01.555-.02 1.696-.02 1.696v4.607zM175.266 28.146l-2.178.314c.01-.252.01-.576.01-.953-.306.314-.993.942-1.766.942-1.089 0-1.406-.66-1.406-1.487l.01-1.424c0-1.005-.053-1.224-.92-1.308v-.095l2.19-.314c-.011.555-.022 1.707-.022 1.707v1.193c0 .87.339 1.016.804 1.016.528 0 .878-.157 1.11-.303v-1.896c0-1.005-.137-1.224-1.004-1.308v-.095l2.273-.314c-.01.555-.01 1.707-.01 1.707v1.267c.01.88.052 1.173.909 1.267v.084zM177.73 27.434c0 .523.042.785.866.837v.084s-1.131-.02-1.49-.02c-.36 0-1.491.02-1.491.02v-.084c.834-.052.856-.314.856-.837v-4.597c0-1.005-.042-1.215-.91-1.309v-.083l2.19-.314c-.011.555-.022 1.696-.022 1.696v4.607zM182.54 27.8l.043.115s-.75.534-1.64.534c-.782 0-1.364-.24-1.364-.89l.011-3.266h-.76v-.084c.771-.115 1.744-.828 1.924-1.612h.095v1.517h1.691v.179h-1.691v2.722c0 .722.423.88.867.88.328 0 .645-.042.824-.095M184.306 25.748v.042h1.798c0-1.068-.201-1.697-.762-1.697-.655 0-1.036.849-1.036 1.655zm.01.262c.086 1.193.698 1.842 1.83 1.842.38 0 .687-.073 1.068-.24l.064.094s-.667.743-1.978.743c-1.195 0-2.348-.617-2.348-2.136 0-1.57 1.153-2.44 2.443-2.44 1.248 0 2.041.692 2.062 1.959v.178h-3.14zM191.549 27.8l.042.115s-.75.534-1.639.534c-.782 0-1.364-.24-1.364-.89l.011-3.266h-.761v-.084c.772-.115 1.744-.828 1.924-1.612h.095v1.517h1.692v.179h-1.692v2.722c0 .722.423.88.868.88.327 0 .644-.042.824-.095"/>
        </g>
    </g>
</svg>
