<svg xmlns="http://www.w3.org/2000/svg" width="160" height="28" viewBox="0 0 160 28">
    <g fill="#000" fill-rule="evenodd">
        <path d="M55.453 15.931l.07.01.021-.17c.014-.141.034-.283.06-.423.007-.055.016-.111.026-.166l-.072-.01c-.009.048-.018.097-.039.143a.122.122 0 0 1-.04.058.103.103 0 0 1-.063.022.56.56 0 0 1-.106-.006l-1.12-.155a.513.513 0 0 1-.107-.023c-.051-.018-.07-.053-.077-.105a.717.717 0 0 1 .004-.147l-.07-.01a5.307 5.307 0 0 0-.022.167l-.016.118a2.467 2.467 0 0 1-.026.188l-.016.117a3.83 3.83 0 0 0-.026.17l.07.01c.01-.05.019-.097.036-.144a.16.16 0 0 1 .042-.059.107.107 0 0 1 .062-.02.5.5 0 0 1 .108.005l1.121.155a.474.474 0 0 1 .104.022.103.103 0 0 1 .053.038.133.133 0 0 1 .024.068c.006.05.002.099-.001.147zm-.663 1.693l.125.032.095.025.116.038c.005-.056.016-.11.027-.165.007-.024.012-.047.017-.069.035-.13.07-.258.101-.39.015-.057.03-.111.042-.163.03-.111.057-.224.091-.335a7.39 7.39 0 0 1 .047-.162l-.065-.017c-.015.046-.03.093-.056.136a.13.13 0 0 1-.048.054.107.107 0 0 1-.065.013.593.593 0 0 1-.104-.018l-1.098-.29a.622.622 0 0 1-.102-.036c-.05-.025-.064-.062-.064-.114.001-.05.012-.098.022-.146l-.07-.019a5.419 5.419 0 0 0-.04.165l-.031.114c-.009.04-.016.071-.023.093l-.185.668-.015.055a5.694 5.694 0 0 1-.075.222l.228.08c.078.03.154.062.23.094l.018-.067a.907.907 0 0 1-.16-.122.342.342 0 0 1-.108-.249c.002-.104.045-.257.09-.35a.235.235 0 0 1 .077-.095.205.205 0 0 1 .116-.023c.134.01.466.108.538.128-.027.098-.048.21-.095.302a.258.258 0 0 1-.062.09.144.144 0 0 1-.08.035c-.048.01-.096 0-.144-.009l-.019.069c.05.01.098.022.148.033l.095.02.146.039.092.028.137.043.018-.069a.342.342 0 0 1-.114-.059.198.198 0 0 1-.062-.079.343.343 0 0 1-.024-.123c0-.1.034-.202.06-.298l.665.176c-.036.136-.068.28-.134.405a.41.41 0 0 1-.11.144.25.25 0 0 1-.125.055c-.061.01-.123.013-.184.016l-.017.064.138.03zm-2.14 1.463l1.177.542c.065.031.119.058.16.085.042.025.07.05.09.075a.141.141 0 0 1 .023.082c0 .05-.02.096-.037.142l.066.03c.016-.04.034-.08.052-.121.046-.112.098-.222.154-.329.02-.044.041-.086.064-.13l-.066-.03c-.027.052-.05.098-.087.144a.102.102 0 0 1-.07.042.216.216 0 0 1-.114-.013 1.946 1.946 0 0 1-.188-.077l-.74-.342-.027.006 1.656-.512.147-.315-.065-.03a.67.67 0 0 1-.081.129.092.092 0 0 1-.073.036.332.332 0 0 1-.14-.026c-.233-.082-.805-.36-.892-.401a1.554 1.554 0 0 1-.162-.085.294.294 0 0 1-.086-.076.135.135 0 0 1-.026-.083.445.445 0 0 1 .039-.14l-.066-.03a3.557 3.557 0 0 0-.05.113l-.036.08a1.897 1.897 0 0 1-.071.152l-.046.098c-.023.043-.044.09-.065.135l.064.03c.026-.05.05-.092.083-.139a.126.126 0 0 1 .071-.043.236.236 0 0 1 .113.01c.048.014.112.04.192.076l.735.34.027-.005-1.695.516-.03.064zm.22 1.969l.125.073.182.117.098.07.028-.042a.71.71 0 0 1 .123-.134c.02-.022.042-.045.065-.072a.754.754 0 0 0 .16-.291.572.572 0 0 0 .02-.194.416.416 0 0 0-.054-.177.425.425 0 0 0-.285-.2.522.522 0 0 0-.157.005.966.966 0 0 0-.173.057l-.2.096a2.965 2.965 0 0 1-.177.084.556.556 0 0 1-.134.043.268.268 0 0 1-.1.003.324.324 0 0 1-.18-.114.248.248 0 0 1-.054-.094.296.296 0 0 1-.006-.119.482.482 0 0 1 .19-.275.44.44 0 0 1 .15-.055.552.552 0 0 1 .16-.001c.062.008.122.021.182.037l.038-.057a2.915 2.915 0 0 1-.219-.112l-.21-.12a.702.702 0 0 1-.083.111l-.063.074a.96.96 0 0 0-.245.392.65.65 0 0 0-.028.22c.004.072.023.14.056.202a.425.425 0 0 0 .292.216c.048.01.1.008.154-.006a.784.784 0 0 0 .176-.063c.064-.027.139-.062.225-.104.074-.036.136-.064.187-.084a.72.72 0 0 1 .129-.035.172.172 0 0 1 .083.003.32.32 0 0 1 .202.186.22.22 0 0 1 .01.099c-.007.086-.091.191-.164.232a.307.307 0 0 1-.137.043.459.459 0 0 1-.151-.017 1.501 1.501 0 0 1-.177-.055l-.038.058zm-1.336.24l.88.706c.035.027.06.051.077.072a.1.1 0 0 1 .027.06.13.13 0 0 1-.015.07c-.02.046-.049.087-.077.127l.055.045.106-.136c.085-.113.176-.225.27-.332.036-.043.072-.087.11-.13l-.057-.045a.638.638 0 0 1-.107.103.122.122 0 0 1-.066.03.103.103 0 0 1-.065-.015.538.538 0 0 1-.088-.058l-.88-.707a.505.505 0 0 1-.079-.074c-.035-.042-.033-.081-.012-.13.021-.044.051-.084.08-.124l-.056-.045-.104.133-.076.094c-.038.05-.077.098-.119.146l-.074.092c-.038.043-.074.088-.111.132l.055.044c.033-.035.067-.072.107-.103a.156.156 0 0 1 .066-.03c.02-.002.04.003.063.014a.495.495 0 0 1 .09.06zm-1.162.945a.475.475 0 0 0 .01.209.422.422 0 0 0 .235.276c.044.02.095.03.151.03a.856.856 0 0 0 .186-.023c.069-.013.15-.03.243-.05a2.49 2.49 0 0 1 .2-.04.666.666 0 0 1 .135-.007c.034.003.06.01.08.02a.331.331 0 0 1 .154.23.224.224 0 0 1-.011.096c-.027.084-.134.167-.214.19a.312.312 0 0 1-.144.012.481.481 0 0 1-.142-.05 1.497 1.497 0 0 1-.16-.094l-.05.049c.036.032.07.065.105.098l.083.086.067.068.081.091.037-.035a.47.47 0 0 1 .075-.057l.074-.046c.025-.016.052-.034.08-.055a.753.753 0 0 0 .221-.249.569.569 0 0 0 .064-.184.43.43 0 0 0-.013-.184.428.428 0 0 0-.231-.26.494.494 0 0 0-.155-.029.913.913 0 0 0-.182.018 4.657 4.657 0 0 0-.217.048 3.406 3.406 0 0 1-.19.042.578.578 0 0 1-.14.012.246.246 0 0 1-.099-.02.323.323 0 0 1-.148-.15.23.23 0 0 1-.032-.104.266.266 0 0 1 .02-.116.488.488 0 0 1 .249-.227.443.443 0 0 1 .158-.02.589.589 0 0 1 .157.034c.058.022.113.049.167.078l.05-.048a2.448 2.448 0 0 1-.187-.158l-.178-.164a.697.697 0 0 1-.106.09 3.55 3.55 0 0 1-.078.057.971.971 0 0 0-.327.328.657.657 0 0 0-.078.208zm-2.94 1.915a.384.384 0 0 1 .154.044l.106.052.645.355-.083.53a1.204 1.204 0 0 1-.026.14.752.752 0 0 1-.044.124.471.471 0 0 1-.07.106.475.475 0 0 1-.128.092l.034.065c.041-.025.084-.048.126-.071.028-.016.057-.032.087-.047.045-.026.092-.05.14-.071l.067-.032.098-.043-.033-.064c-.037.017-.078.04-.12.039-.049-.006-.052-.05-.048-.09l.017-.112.086-.515-.014-.01c.079.038.157.077.234.117a5.509 5.509 0 0 1 .281.146c.04.022.074.042.1.06a.206.206 0 0 1 .038.03c.018.034-.085.086-.106.096l.033.065c.043-.025.087-.049.13-.072.028-.017.058-.033.088-.048.05-.028.1-.054.152-.078l.093-.045.132-.06-.033-.064a.336.336 0 0 1-.101.032.44.44 0 0 1-.082-.006.867.867 0 0 1-.088-.028 1.72 1.72 0 0 1-.095-.046l-.727-.372.069-.587a.468.468 0 0 1 .023-.117.295.295 0 0 1 .109-.151c.035-.026.072-.05.11-.073l-.033-.063c-.038.02-.075.042-.112.063a4.092 4.092 0 0 1-.32.163l-.132.06.033.065c.033-.016.05-.028.086-.036a.138.138 0 0 1 .05-.003.08.08 0 0 1 .03.013c.025.02.043.057.045.1a.63.63 0 0 1-.004.107l-.054.404.015.012-.138-.071a5.907 5.907 0 0 1-.366-.216.388.388 0 0 1-.074-.056c-.02-.04.081-.086.105-.098l-.034-.065-.125.07a4.42 4.42 0 0 1-.323.165l-.129.059.034.063c.029-.013.059-.026.092-.027zm-1.217.438c.048-.013.096-.027.146-.03a.13.13 0 0 1 .072.01.107.107 0 0 1 .047.045.537.537 0 0 1 .043.096l.37 1.063c.014.04.024.075.027.104.007.055-.015.087-.059.116-.041.027-.088.045-.133.064l.022.067c.054-.018.107-.037.16-.057l.114-.038c.059-.024.118-.045.18-.063l.112-.039c.055-.017.11-.035.163-.054l-.022-.067a.81.81 0 0 1-.145.032.143.143 0 0 1-.072-.01.113.113 0 0 1-.048-.044.564.564 0 0 1-.044-.099l-.37-1.063a.48.48 0 0 1-.026-.101.108.108 0 0 1 .009-.065.147.147 0 0 1 .05-.053.66.66 0 0 1 .134-.065l-.025-.067c-.053.02-.106.04-.161.058a5.197 5.197 0 0 1-.406.14 4.298 4.298 0 0 1-.161.053l.023.067zm-1.809.383c-.047.007-.092.016-.138.024l.014.07c.033-.005.065-.01.097-.003a.247.247 0 0 1 .065.028.407.407 0 0 1 .072.054c.027.022.057.05.09.079l.53.508-.218.491c-.018.044-.04.086-.062.128a.758.758 0 0 1-.075.109.433.433 0 0 1-.095.083.491.491 0 0 1-.148.057l.015.072.141-.037c.031-.008.064-.016.096-.022.052-.014.102-.026.154-.033l.074-.014.106-.017-.016-.07c-.04.007-.086.02-.126.006-.046-.016-.037-.06-.022-.098l.044-.104.218-.476-.011-.014.196.174.124.112a2.418 2.418 0 0 1 .189.184.16.16 0 0 1 .03.04c.008.038-.105.06-.127.066l.015.07a14.477 14.477 0 0 0 .241-.058c.056-.015.111-.027.168-.036.033-.008.068-.014.101-.02.048-.008.095-.017.143-.024l-.015-.07c-.036.005-.069.01-.107.004a.367.367 0 0 1-.155-.077 1.402 1.402 0 0 1-.079-.068l-.606-.547.22-.55a.473.473 0 0 1 .052-.106.297.297 0 0 1 .145-.117c.041-.017.083-.031.125-.043l-.015-.07-.125.033c-.115.03-.233.055-.351.074l-.143.026.015.07c.035-.007.055-.014.092-.013a.133.133 0 0 1 .05.011c.013.006.02.014.024.02.02.025.027.066.018.108a.59.59 0 0 1-.032.102l-.156.376.01.015-.114-.103a6.629 6.629 0 0 1-.298-.303c-.007-.008-.055-.06-.057-.073-.01-.043.1-.062.127-.068l-.015-.071-.14.035a3.762 3.762 0 0 1-.355.076zm-1.516.12a9.412 9.412 0 0 1-.17.01l.005.071c.05 0 .1-.002.148.009a.122.122 0 0 1 .068.027c.014.011.026.03.033.056a.523.523 0 0 1 .017.105l.08 1.121a.601.601 0 0 1 0 .107c-.008.055-.038.08-.088.098-.047.014-.097.02-.146.027l.005.07c.056-.003.113-.008.17-.014l.12-.008a3.91 3.91 0 0 1 .095-.01l.695-.042.057-.004c.023 0 .046 0 .071-.003l.075-.001c.03.003.06.003.09.003a5.498 5.498 0 0 1 .017-.488l-.07.005a.552.552 0 0 1-.146.3c-.117.106-.33.115-.481.105a.245.245 0 0 1-.115-.034.195.195 0 0 1-.06-.094.848.848 0 0 1-.03-.182l-.07-.976a.561.561 0 0 1 .001-.105.112.112 0 0 1 .024-.06.14.14 0 0 1 .061-.037c.048-.017.1-.023.149-.03l-.005-.071c-.057.005-.115.012-.172.015a5.413 5.413 0 0 1-.428.03zm-2.064.723c-.038.372.127.693.469.858.152.072.335.11.505.1a5.033 5.033 0 0 0 .283-.014.65.65 0 0 1 .124.002l.045-.236c.017-.08.036-.16.057-.24l-.068-.007c-.032.06-.066.12-.103.179a.57.57 0 0 1-.108.129.399.399 0 0 1-.152.077.58.58 0 0 1-.424-.055c-.162-.092-.258-.258-.307-.433a1.165 1.165 0 0 1 .067-.706c.044-.09.1-.16.163-.211a.537.537 0 0 1 .22-.108c.19-.045.447-.027.571.143a.51.51 0 0 1 .072.141c.02.061.034.123.047.186l.066.007c.01-.16.026-.32.05-.477a1.009 1.009 0 0 1-.15-.024 4.113 4.113 0 0 0-.12-.031c-.223-.064-.423-.092-.656-.034a.814.814 0 0 0-.544.401.928.928 0 0 0-.107.353zm-1.818.084l.325-1.213.03.005a.78.78 0 0 1 .072.015l.075.017a.973.973 0 0 1 .324.127c.081.05.148.111.197.187.05.074.082.165.094.271.035.276-.1.715-.355.855-.147.081-.343.091-.594.025-.092-.024-.143-.06-.164-.105-.022-.047-.025-.107-.004-.184zm-.571.118l-.018.07c.056.014.113.029.169.041l.118.032c.062.013.123.03.183.048l.102.029.1.027c.28.073.613.147.89.011.202-.097.338-.283.41-.552.073-.275.041-.504-.101-.686-.14-.178-.37-.308-.687-.392a4.427 4.427 0 0 1-.156-.039 5.537 5.537 0 0 1-.426-.113c-.055-.014-.11-.03-.164-.046l-.019.07c.047.014.096.03.138.055a.119.119 0 0 1 .054.048c.01.015.016.037.014.064a.475.475 0 0 1-.019.104l-.29 1.087a.51.51 0 0 1-.037.1c-.024.05-.061.064-.114.064-.05-.001-.099-.012-.147-.022zm-2.557-1.19l-.033.064.112.054.079.04c.049.021.097.045.144.072l.082.042.114.06.032-.064c-.046-.027-.094-.053-.136-.087a.096.096 0 0 1-.034-.065.25.25 0 0 1 .026-.106c.12-.271.447-.887.482-.955l-.03 1.473.08.041 1.168-.969-.493.964c-.02.038-.037.07-.053.096a.122.122 0 0 1-.045.042.11.11 0 0 1-.058.005c-.044-.008-.083-.026-.124-.044l-.032.063c.044.022.087.044.132.064l.092.047c.056.025.11.052.164.082l.106.054.154.08.031-.063c-.042-.025-.085-.05-.123-.082a.16.16 0 0 1-.043-.058.105.105 0 0 1 0-.066.532.532 0 0 1 .04-.099l.516-1.011c.02-.039.038-.07.053-.093a.1.1 0 0 1 .043-.04.096.096 0 0 1 .062-.004c.046.01.09.03.133.048l.03-.059-.396-.2-1.165.973.032-1.544-.41-.207-.031.059c.044.025.089.05.127.085.02.017.032.041.033.073a.331.331 0 0 1-.031.14c-.091.23-.392.789-.436.875a1.636 1.636 0 0 1-.09.158.278.278 0 0 1-.08.083.134.134 0 0 1-.084.022.414.414 0 0 1-.14-.042zm.261-16.337zm6.567 6.527v-.143.143zm1.372 1.65l.176.035c.09-.45.49-.79.97-.79s.88.34.97.79l.177-.035a1.168 1.168 0 0 0-1.147-.934c-.567 0-1.04.402-1.146.934zm-2.92.035l.176-.035a1.168 1.168 0 0 0-1.146-.934c-.567 0-1.04.402-1.148.934l.177.035c.09-.45.49-.79.97-.79s.88.34.97.79zm2.92-3.433l.176.035c.09-.451.49-.79.97-.79s.88.339.97.79l.177-.035a1.167 1.167 0 0 0-1.147-.934c-.567 0-1.04.401-1.146.934zm-2.92.035l.176-.035a1.168 1.168 0 0 0-1.147-.934c-.567 0-1.04.401-1.147.934l.177.035c.09-.451.49-.79.97-.79s.88.339.97.79zm1.548-.969c-.567 0-1.04.401-1.147.934l.176.035c.09-.451.49-.79.97-.79s.881.339.971.79l.176-.035a1.167 1.167 0 0 0-1.146-.934zm0-.845v.129-.129zm-1.542-1.336l.177-.034a.81.81 0 0 0-1.154-.563.809.809 0 0 0-1.153.563l.176.034a.63.63 0 0 1 .977-.39.609.609 0 0 1 .18-.085.628.628 0 0 1 .797.475zm1.902-2.2a.36.36 0 0 1-.72 0c0-.198.16-.358.36-.358.198 0 .36.16.36.357zm.18 0a.538.538 0 0 0-.54-.537.538.538 0 1 0 0 1.073c.298 0 .54-.24.54-.537zm.437 2.2l.177-.034a.81.81 0 0 0-1.154-.563.809.809 0 0 0-1.153.563l.176.034a.629.629 0 0 1 .977-.39.609.609 0 0 1 .18-.085.63.63 0 0 1 .798.475zm2.519 0l.176-.034a.81.81 0 0 0-1.154-.563.81.81 0 0 0-1.153.563l.177.034a.628.628 0 0 1 .976-.39.606.606 0 0 1 .18-.085.629.629 0 0 1 .797.475zm1.63-1.664zm2.88 0zm.718 0h.001zm-.481 1.363h-.225a.632.632 0 0 1 .143.252l.012.05.176-.035-.003-.015a.818.818 0 0 0-.103-.252zm-1.479.252l-.003.015.177.035a.353.353 0 0 1 .013-.05h-.063.063a.632.632 0 0 1 1.067-.253h.225a.81.81 0 0 0-1.479.253zm-.41-.252h-.224a.63.63 0 0 1 .143.252l.013.05.175-.035-.002-.015a.802.802 0 0 0-.104-.252zm-1.478.252l-.003.015.176.035.013-.05h-.062.062a.63.63 0 0 1 1.068-.252h.225a.81.81 0 0 0-1.479.252zm1.408 3.448l.177-.035a.81.81 0 0 0-1.588 0l.176.035a.63.63 0 1 1 1.235 0zm1.888 0l.177-.035a.81.81 0 0 0-1.588 0l.177.035a.629.629 0 0 1 1.234 0zm1.89 0l.177-.035a.81.81 0 0 0-1.588 0l.176.035a.629.629 0 0 1 .618-.503c.305 0 .56.216.617.503zm-3.778 3.398l.177-.035a.809.809 0 0 0-.794-.646.809.809 0 0 0-.794.646l.176.035a.628.628 0 0 1 .618-.502c.305 0 .56.215.617.502zm1.888 0l.177-.035a.81.81 0 1 0-1.588 0l.177.035a.628.628 0 0 1 .618-.502c.305 0 .56.215.616.502zm-15.11 0l.176-.035a.808.808 0 0 0-.794-.646.809.809 0 0 0-.794.646l.176.035a.63.63 0 0 1 .618-.502c.305 0 .56.215.618.502zm1.889 0l.176-.035a.809.809 0 0 0-.794-.646.808.808 0 0 0-.794.646l.176.035a.63.63 0 0 1 .618-.502.63.63 0 0 1 .618.502zM34.69 9.858h-.225a.801.801 0 0 0-.104.252l-.003.015.176.035.012-.05a.634.634 0 0 1 .144-.252zm1.08.302l.176-.035-.003-.015a.812.812 0 0 0-1.478-.253h.225a.63.63 0 0 1 .924 0 .618.618 0 0 1 .143.253h.062-.062a.38.38 0 0 1 .013.05zm.809-.302h-.226a.813.813 0 0 0-.103.252c0 .005-.003.01-.004.015l.177.035a.625.625 0 0 1 .155-.303zm1.079.302l.176-.035a.793.793 0 0 0-.106-.268.81.81 0 0 0-1.375 0h.226a.63.63 0 0 1 1.066.253h.062-.062c.005.017.01.033.013.05zm-1.41 3.363l.175.035a.63.63 0 0 1 1.236 0l.176-.035a.81.81 0 0 0-1.588 0zm-1.89 0l.176.035a.63.63 0 0 1 1.236 0l.176-.035a.809.809 0 0 0-1.588 0zm-1.888 0l.175.035a.63.63 0 0 1 1.235 0l.177-.035a.809.809 0 0 0-1.587 0zm-.24 1.32a10.46 10.46 0 0 1 .194-3.22l5.786.001v-.179h-.72v-.578h-.09.09v-.584a.439.439 0 0 0-.035-.173h-.208c.04.047.063.107.063.173v1.162h-.54v-.578h-.089.09v-.584a.267.267 0 0 1 .27-.268.27.27 0 0 1 .206.095h.208a.45.45 0 0 0-.276-.252h-.199.2a.448.448 0 0 0-.28 0 .454.454 0 0 0-.31.425v1.162h-.988v-.578h-.09.09v-.584a.438.438 0 0 0-.035-.173h-.208a.269.269 0 0 1 .063.173v1.162h-.54v-.578h-.09.09v-.584a.268.268 0 0 1 .27-.268c.083 0 .157.037.207.095h.208a.455.455 0 0 0-.276-.252h-.199.2a.45.45 0 0 0-.279 0 .455.455 0 0 0-.31.425v1.162h-.99v-.578h-.09.09v-.584a.448.448 0 0 0-.035-.173h-.208c.039.047.064.107.064.173v1.162h-.54v-.578h-.09.09v-.584a.27.27 0 0 1 .476-.173h.208a.451.451 0 0 0-.276-.252h-.199.2a.452.452 0 0 0-.473.125l.121-.29a.627.627 0 0 1 .674.165.624.624 0 0 1 .143.252h.063-.063a.482.482 0 0 1 .012.05l.177-.035-.003-.015a.81.81 0 0 0-.91-.624l.133-.276h.616v-.358a.09.09 0 0 1 .18 0v.358h.54v-.358c0-.049.04-.089.09-.089.05 0 .09.04.09.09v.357h.54v-.358a.09.09 0 0 1 .18 0l-.001.358h.54v-.358a.09.09 0 0 1 .18 0v.358h.54v-.358c0-.049.04-.089.09-.089.049 0 .09.04.09.09v.357h.539v-.358a.09.09 0 0 1 .18 0v.358h.54v5.633h-.72v-1.162a.448.448 0 0 0-.45-.447c-.248 0-.45.2-.45.447v1.162h-.99v-1.162a.448.448 0 0 0-.449-.447c-.248 0-.45.2-.45.447v1.162h-.989v-1.162a.449.449 0 0 0-.45-.447c-.248 0-.45.2-.45.447v1.162h-.583zm.763 0v-1.162a.27.27 0 0 1 .27-.268c.15 0 .27.12.27.268v1.162h-.54zm1.89 0v-1.162a.269.269 0 1 1 .539 0v1.162h-.54zm1.888 0v-1.162a.27.27 0 0 1 .54 0v1.162h-.54zm-4.523.179h5.962v3.219h-.719v-1.162a.448.448 0 0 0-.45-.447c-.248 0-.45.2-.45.447v1.162h-.99v-1.162a.448.448 0 0 0-.449-.447c-.248 0-.45.2-.45.447v1.162h-.989v-1.162a.448.448 0 0 0-.45-.447c-.248 0-.45.2-.45.447v.353a10.57 10.57 0 0 1-.165-.489.63.63 0 0 1 .616-.49c.305 0 .559.216.616.503l.177-.035a.81.81 0 1 0-1.49-.253 10.336 10.336 0 0 1-.319-1.646zm.745 2.868v-.81a.27.27 0 0 1 .27-.269c.15 0 .27.12.27.268v1.162h-.384a9.33 9.33 0 0 1-.156-.35zm1.89.351v-1.162a.269.269 0 1 1 .539 0v1.162h-.54zm1.888 0v-1.162a.27.27 0 0 1 .27-.268c.149 0 .27.12.27.268v1.162h-.54zm-3.537.179h4.976l.001.537h-4.696a9.833 9.833 0 0 1-.281-.537zm.384.715h4.143v1.968h-.27V19.94a.448.448 0 0 0-.45-.447c-.248 0-.45.2-.45.447v1.162h-.988V19.94a.448.448 0 0 0-.54-.438.447.447 0 0 0-.36.438v.71a10.47 10.47 0 0 1-1.085-1.516zm1.265 1.535v-.73a.269.269 0 0 1 .539 0v1.163h-.308a10.394 10.394 0 0 1-.231-.247v-.186zm1.888.433V19.94a.27.27 0 0 1 .54 0v1.162h-.54zm-1.48.179h2.47v.536h-1.884c-.203-.172-.398-.35-.586-.536zm2.92-1.61v2.683h-.27v-3.22h.27v.537zm-2.118 2.325h1.668v.536H40.459v-.536h1.715v.895h-.635v.178h2.248v-.178h-.545v-.895h1.715v.536h2.698v-.536h1.668a10.522 10.522 0 0 1-6.615 2.325c-2.506 0-4.808-.871-6.615-2.325zm13.446-.18h-1.884v-.535h2.47c-.188.186-.384.364-.586.536zm.763-.714h-.308V19.94a.27.27 0 0 1 .54 0v.73-.001.186c-.077.084-.153.165-.232.247zm-1.927-1.43c.149 0 .27.12.27.268v1.162h-.54V19.94a.27.27 0 0 1 .27-.269zm1.978-.17a.448.448 0 0 0-.54.438v1.162h-.988V19.94a.448.448 0 0 0-.45-.447c-.249 0-.45.2-.45.447v1.162h-.27v-1.968h4.142c-.316.538-.68 1.046-1.084 1.517v-.711a.447.447 0 0 0-.36-.438zm-2.878-.368v3.22h-.27V19.135h.27zm4.426-.178h-4.696v-.537h4.977c-.09.182-.182.361-.281.537zm.365-.716h-.383v-1.162c0-.148.12-.268.27-.268.149 0 .27.12.27.268v.811a8.331 8.331 0 0 1-.157.351zm-2.002-1.43c.148 0 .27.12.27.268v1.162h-.54v-1.162c0-.148.12-.268.27-.268zm-1.89 0c.15 0 .27.12.27.268v1.162h-.54v-1.162c0-.148.122-.268.27-.268zm3.779-.179c-.249 0-.45.2-.45.447v1.162h-.99v-1.162a.448.448 0 0 0-.45-.447c-.248 0-.449.2-.449.447v1.162h-.99v-1.162a.448.448 0 0 0-.45-.447c-.248 0-.449.2-.449.447v1.162h-.72v-3.219h5.963c-.063.564-.171 1.113-.32 1.646a.81.81 0 0 0-1.489.253l.176.035a.628.628 0 0 1 .618-.502c.3 0 .552.209.614.49-.05.165-.106.327-.164.488v-.353a.448.448 0 0 0-.45-.447zm0-3.22c.149 0 .27.12.27.27v1.161h-.54v-1.162c0-.148.12-.268.27-.268zm-1.89 0c.15 0 .27.12.27.27v1.161h-.54v-1.162c0-.148.121-.268.27-.268zm-1.888 0c.149 0 .27.12.27.27v1.161h-.54v-1.162c0-.148.12-.268.27-.268zm4.81 1.431h-.582v-1.162a.449.449 0 0 0-.45-.447c-.249 0-.45.2-.45.447v1.162h-.99v-1.162a.448.448 0 0 0-.45-.447c-.248 0-.449.2-.449.447v1.162h-.99v-1.162a.448.448 0 0 0-.45-.447c-.248 0-.449.2-.449.447v1.162h-.72V9.21h.54v-.358c0-.049.04-.089.09-.089.05 0 .09.04.09.09v.357h.54v-.358a.09.09 0 0 1 .18 0v.358h.54v-.358c0-.049.039-.089.09-.089.049 0 .09.04.09.09v.357h.539v-.358a.09.09 0 0 1 .18 0v.358h.539v-.358c0-.049.04-.089.09-.089.05 0 .09.04.09.09v.357h.54v-.358c0-.049.04-.089.09-.089.05 0 .09.04.09.09v.357h.615c.046.092.09.184.133.277a.81.81 0 0 0-.912.638l.176.035a.444.444 0 0 1 .013-.05h-.063.063a.624.624 0 0 1 .605-.453c.074 0 .145.013.211.037.042.095.083.192.122.289a.452.452 0 0 0-.473-.125h.2-.2a.454.454 0 0 0-.276.252h.21a.269.269 0 0 1 .411 0c.04.047.064.107.064.173v.584h.09-.09v.578h-.54v-1.162c0-.066.025-.126.064-.173h-.209a.445.445 0 0 0-.035.173v.584h.09-.09v.578h-.989v-1.162a.448.448 0 0 0-.589-.425h.2-.2a.448.448 0 0 0-.275.252h.208a.27.27 0 0 1 .477.173v.584h.089-.09v.578h-.54v-1.162c0-.066.024-.126.064-.173h-.208a.436.436 0 0 0-.035.173v.584h.09-.09v.578h-.989v-1.162a.45.45 0 0 0-.589-.426h.2-.2a.45.45 0 0 0-.275.253h.208a.27.27 0 0 1 .476.173v.584h.09-.09v.578h-.54v-1.162c0-.066.024-.126.064-.173h-.208a.439.439 0 0 0-.035.173v.584h.09-.09v.578h-.721v.179h5.786a10.427 10.427 0 0 1 .195 3.22zm-.235-3.398h-.347v-1.158c.137.377.253.764.347 1.158zm-.904-2.414h-.344v-.179a.268.268 0 0 0-.269-.267c-.15 0-.27.119-.27.267v.179h-.18v-.179a.269.269 0 0 0-.27-.267c-.15 0-.27.119-.27.267v.179h-.18v-.179a.269.269 0 0 0-.27-.267c-.148 0-.27.119-.27.267v.179h-.179v-.179a.269.269 0 0 0-.27-.267c-.149 0-.27.119-.27.267v.179h-.18v-.179a.268.268 0 0 0-.27-.267c-.148 0-.27.119-.27.267v.179h-.18v-.179a.269.269 0 0 0-.27-.267c-.148 0-.269.119-.269.267v.179h-.18v-.626h4.305c.126.205.244.413.356.626zm-.469-.805h-4.192v-.268h4.013c.062.089.121.178.18.268zm-.304-.447h-3.708v-.447h-1.19l-3.667-3.19-3.667 3.19h-1.19v.447h-3.708a10.528 10.528 0 0 1 8.565-4.381 10.53 10.53 0 0 1 8.565 4.381zm-17.256.18h4.014v.267h-4.193c.059-.09.118-.18.179-.268zm4.014-.18v-.268h1.079l3.598-3.132 3.598 3.132h1.08v.268h-1.192l-3.486-3.034-3.486 3.034h-1.191zm.18 1.252h.629V7.958h-.63v1.073zm.179 10.794V9.21h.27v10.642h-.27v-.027zm0 .384h1.439v-.224h-1.44v.224zm0 .358h1.439v-.224h-1.44v.224zm0 .357h1.439v-.223h-1.44v.223zm0 .358h1.439v-.224h-1.44v.224zm0 .357h1.439v-.223h-1.44v.223zm0 .358h1.439v-.223h-1.44v.223zm0 .358h1.44v-.224h-1.44v.224zm2.07-2.956v-.24l.63-.528v.239l-.63.529zm0 1.704v-1.495l.63-.528v2.023h-.63zm0 .715h.63v-.537h-.63v.537zm-.36-3.577h-.54v-1.34c0-.149.12-.269.27-.269.149 0 .27.12.27.268v1.341zm.45-1.609c.148 0 .27.12.27.268v1.341h-.541v-1.34a.27.27 0 0 1 .27-.269zm-.36 0a.45.45 0 0 0-.45-.17.626.626 0 0 1 .45-.187c.176 0 .335.071.449.187a.448.448 0 0 0-.45.17zm4.138 2.238v-.24l.629.529v.24l-.63-.53zm0 2.233V19.08l.629.528v1.495h-.63zm0 .715h.629v-.537h-.63v.537zm1.528-4.918v1.341h-.54v-1.34c0-.149.12-.269.27-.269.15 0 .27.12.27.268zm-.99-.268c.15 0 .27.12.27.268v1.341h-.54v-1.34c0-.149.122-.269.27-.269zm-.09-.17a.629.629 0 0 1 .45-.187c.177 0 .336.071.45.187a.45.45 0 0 0-.45.17.45.45 0 0 0-.45-.17zm.81 3.747h1.44v-.224h-1.44v.224zm0 .358h1.44v-.224h-1.44v.224zm0 .357h1.44v-.223h-1.44v.223zm0 .358h1.44v-.224h-1.44v.224zm0 .357h1.44v-.223h-1.44v.223zm0 .716h1.44v-.224h-1.44v.224zm0-.358h1.44v-.223h-1.44v.223zm1.44-12.787V19.85h-.271V9.21h.27zm-.45-.18h.629V7.959h-.63v1.073zm-1.98 2.415v-1.162a.27.27 0 0 1 .27-.268c.15 0 .27.12.27.268v1.162h-.54zm-1.798 0v-1.162c0-.148.12-.268.27-.268.149 0 .27.12.27.268v1.162h-.54zm2.77 0h-.252v-1.162c0-.148.12-.268.27-.268.15 0 .27.12.27.268v1.162h-.288zm-.431 3.398h-.54v-1.34c0-.15.12-.269.27-.269.149 0 .27.12.27.268v1.341zm.45-1.609c.148 0 .27.12.27.268v1.341h-.54v-1.34c0-.15.12-.269.27-.269zm-.36 0a.45.45 0 0 0-.45-.17.63.63 0 0 1 .9 0 .45.45 0 0 0-.45.17zm-1.89.268v1.341h-.54v-1.34c0-.15.121-.269.27-.269.15 0 .27.12.27.268zm-.99-.268c.15 0 .27.12.27.268v1.341h-.54v-1.34c0-.15.122-.269.27-.269zm-2.248 1.61h-.54v-1.342c0-.148.121-.268.27-.268.15 0 .27.12.27.268v1.341zm.45-1.61c.15 0 .27.12.27.268v1.341h-.54v-1.34c0-.15.12-.269.27-.269zm-.36 0a.45.45 0 0 0-.45-.17.629.629 0 0 1 .9 0 .454.454 0 0 0-.45.17zm2.159-3.22c.15 0 .27.121.27.27v1.161h-.54v-1.162a.27.27 0 0 1 .27-.268zm-1.8 0c.15 0 .271.121.271.27v1.161h-.54v-1.162c0-.148.12-.268.27-.268zm-.719 0c.15 0 .27.121.27.27v1.161h-.54v-1.162a.27.27 0 0 1 .27-.268zm6.746-.804v2.235h-.539v-1.162a.451.451 0 1 0-.81-.268.451.451 0 0 0-.81.268v1.162h.757H43.517v-1.162a.451.451 0 1 0-.81-.268v1.609h3.868v3.22h-.539v-1.342a.807.807 0 0 0-.81-.805c-.447 0-.81.36-.81.805v1.341h-.9v-1.34a.807.807 0 0 0-.808-.806c-.447 0-.81.36-.81.805v1.341h-.9v-1.34a.807.807 0 0 0-.809-.806c-.447 0-.81.36-.81.805v1.341h-.54v-3.219h3.869v-1.61a.45.45 0 0 0-.81.27v1.161h-.9v-1.162a.45.45 0 1 0-.81-.268.45.45 0 0 0-.808.268v1.162h-.54V9.21h.18v-.511c.009-.04.047-.07.09-.07.05 0 .09.04.09.09v.268h.54v-.894c0-.05.04-.09.09-.09.05 0 .09.04.09.09v.268h.54v-.894a.09.09 0 1 1 .18 0v.268h.54V6.84a.09.09 0 0 1 .18 0v.269h.54l-.001-.894a.09.09 0 1 1 .18 0v.268h.54l-.001-.894a.09.09 0 0 1 .18 0v.894h.54v-.268a.09.09 0 0 1 .18 0v.894h.54V6.84a.09.09 0 0 1 .18 0v.895h.54v-.268a.09.09 0 0 1 .179 0v.894h.54v-.268c0-.05.04-.09.09-.09.05 0 .09.04.09.09v.894h.54V8.72c0-.05.04-.09.09-.09a.09.09 0 0 1 .089.08v.501h.18zM39.56 8.093v.715h-.18v-.09c0-.149-.12-.268-.27-.268a.308.308 0 0 0-.09.014v-.506h.27l3.418-2.974 3.418 2.974h.27v.507a.268.268 0 0 0-.36.254v.089h-.18v-.715a.269.269 0 0 0-.27-.27c-.149 0-.27.12-.27.27v.089h-.179v-.715a.269.269 0 0 0-.27-.269.27.27 0 0 0-.27.269v.089h-.18V6.84a.269.269 0 0 0-.27-.267c-.148 0-.27.12-.27.267v.09h-.18v-.715a.269.269 0 0 0-.269-.269c-.15 0-.27.12-.27.269v.089h-.18v-.715a.269.269 0 0 0-.27-.268c-.15 0-.27.12-.27.268v.715h-.18v-.09a.27.27 0 0 0-.27-.268c-.148 0-.269.12-.269.269v.715h-.18v-.09a.269.269 0 0 0-.27-.267c-.149 0-.27.12-.27.267v.716h-.18v-.09a.269.269 0 0 0-.27-.268c-.149 0-.27.12-.27.269v.715H40.1v-.09a.269.269 0 0 0-.27-.268c-.149 0-.27.12-.27.269zm5.847 11.042v3.22h-.27V19.135h.27zm-.44-.178l-.64-.537h2.248v1.431h-.989V18.957h-.62zm-.96 2.225v-.526h-.13V18.42h.27v3.398h-.27V21.21l.13-.028zm-1.208-1.444l.356.178-.037.562h-.82l-.038-.562.356-.178-.165-.376.257-.194.256.194-.165.376zm-.895.74v.178h-.185V18.867h1.979V20.656h-.187v-.178h-.224l.044-.66-.314-.157.154-.353-.463-.351-.463.35.154.354-.314.156.043.66h-.224zm1.794-2.058v.268h-1.98v-.268h1.98zm-.36-.179h-.09v-1.43h.179v1.43h-.09zm-.9-1.43v-.179h-.09c0-.197.16-.357.36-.357.198 0 .36.16.36.357h-.09v.18h.09v1.429h-.72v-1.43h.09zm-.27 0v1.43h-.18v-1.43h.18zm-.27-.179v-.447l.81-.599.809.6v.446h-.27a.538.538 0 0 0-.54-.537c-.297 0-.539.24-.539.537h-.27zm1.8 4.615v.571h-.456v-.473l.456-.098zm-1.355 1.645h.73v-1.53h-.73v1.53zm-.765-1.846v-.222h.495v-.178h1.27v.178h.494v.222l-.689.147h-.881l-.69-.147zm.14.504v-.303l.456.098v.473h-.455v-.268zm-.72-3.309v-1.34a.807.807 0 0 0-.808-.806c-.448 0-.81.36-.81.805v1.341h-.54v-3.219h3.868v-1.788a.45.45 0 0 0-.45-.17.63.63 0 0 1 .9 0 .452.452 0 0 0-.45.17v1.788h3.867v3.219h-.539v-1.34a.808.808 0 0 0-.81-.806c-.447 0-.81.36-.81.805v1.341H43.607v-1.43h.18v-.179h-.09v-.357h.18v-.18h-.18l-.9-.683v-.21h-.18v.21l-.898.683h-.18v.18h.18v.357h-.09v.18h.18v1.429h-.81zm.411 2.415v.526l.13.028V21.818h-.27V18.42h.27V20.656h-.13zm-1.13-.984v2.683h-.27V19.135h.27v.537zm-.45-.715v.895h-.99V18.42h2.25l-.64.537h-.62zM33.726 8.405h4.305v.626h-.18v-.179a.268.268 0 0 0-.27-.267c-.15 0-.27.119-.27.267v.179h-.18v-.179a.269.269 0 0 0-.27-.267c-.15 0-.27.119-.27.267v.179h-.18v-.179a.268.268 0 0 0-.27-.267c-.149 0-.27.119-.27.267v.179h-.18v-.179a.268.268 0 0 0-.27-.267c-.148 0-.269.119-.269.267v.179h-.18v-.179a.268.268 0 0 0-.27-.267c-.149 0-.27.119-.27.267v.179h-.18v-.179a.268.268 0 0 0-.269-.267c-.15 0-.27.119-.27.267v.179h-.344c.112-.213.231-.421.357-.626zm-.912 3.04h-.348c.093-.394.21-.781.348-1.158v1.158zm-.89 2.41c0 5.92 4.828 10.72 10.784 10.72s10.783-4.8 10.783-10.72c0-5.92-4.827-10.72-10.783-10.72-5.956 0-10.784 4.8-10.784 10.72zm1.016 8.482l-.05.049.107.1.075.071c.067.067.136.133.2.202l.107.11.049-.049a1.668 1.668 0 0 1-.116-.142.12.12 0 0 1-.024-.084c0-.03.012-.067.04-.108a.91.91 0 0 1 .134-.16c.05-.05.448-.5.646-.593a.418.418 0 0 1 .371-.017.61.61 0 0 1 .273.26.336.336 0 0 1 .04.161.409.409 0 0 1-.048.18.87.87 0 0 1-.161.208l-.572.57a.496.496 0 0 1-.08.068.101.101 0 0 1-.063.02.143.143 0 0 1-.069-.021.773.773 0 0 1-.117-.09l-.05.048c.042.04.084.078.124.12.105.095.208.196.305.3l.118.12.05-.048c-.034-.036-.068-.073-.091-.116a.13.13 0 0 1-.024-.068c0-.02.006-.04.02-.063a.495.495 0 0 1 .069-.08l.639-.637a.576.576 0 0 0 .126-.177.475.475 0 0 0 .037-.171.433.433 0 0 0-.025-.16.825.825 0 0 0-.159-.256 1.11 1.11 0 0 0-.253-.221.553.553 0 0 0-.215-.077.543.543 0 0 0-.245.027.673.673 0 0 0-.263.175l-.462.46c-.05.05-.176.179-.252.195a.096.096 0 0 1-.073-.013.834.834 0 0 1-.118-.093zm-1.392-1.915l-.06.04.078.108c.074.097.141.198.204.3l.079.122.06-.04c-.03-.051-.058-.095-.079-.15a.102.102 0 0 1 0-.08.21.21 0 0 1 .07-.091c.038-.034.093-.074.163-.12l.676-.454.009-.027-.411 1.676.195.286.06-.04a.693.693 0 0 1-.07-.135.095.095 0 0 1 .006-.08.324.324 0 0 1 .096-.107c.19-.155.724-.5.804-.552.06-.041.112-.072.157-.095a.285.285 0 0 1 .11-.034.132.132 0 0 1 .085.02c.04.026.071.066.1.105l.06-.04a2.985 2.985 0 0 0-.072-.1l-.05-.073a1.842 1.842 0 0 1-.094-.14l-.06-.088a2.637 2.637 0 0 0-.084-.126l-.059.04c.03.047.054.09.076.141.012.032.01.055.001.083a.23.23 0 0 1-.065.092 1.483 1.483 0 0 1-.166.124l-.67.451-.011.027.428-1.711-.04-.058-1.074.722c-.06.04-.111.072-.154.094a.319.319 0 0 1-.111.037.136.136 0 0 1-.083-.022.4.4 0 0 1-.104-.105zm-.556-1.076l-.063.033c.027.05.054.1.08.152.071.123.136.25.196.38l.076.151.063-.033c-.02-.045-.04-.09-.05-.139a.11.11 0 0 1 .038-.126.53.53 0 0 1 .09-.054l1.008-.513a.695.695 0 0 1 .1-.041c.053-.014.088.003.124.042a.849.849 0 0 1 .082.124l.064-.033a4.44 4.44 0 0 0-.08-.15l-.055-.105a2.514 2.514 0 0 1-.086-.168l-.055-.107a4.464 4.464 0 0 0-.076-.152l-.063.031c.02.045.04.09.051.138a.147.147 0 0 1 .001.072.117.117 0 0 1-.038.054.513.513 0 0 1-.092.056l-1.008.512a.498.498 0 0 1-.097.04.104.104 0 0 1-.066 0 .128.128 0 0 1-.059-.042c-.034-.037-.059-.079-.085-.122zm-.735-1.87l-.066.024.04.097c.041.094.077.193.107.292.015.04.028.079.04.12l.069-.025c-.014-.04-.032-.091-.018-.133.017-.049.06-.056.104-.06h.102l1.084.013.026-.015-.762.66-.183.153s-.066.062-.084.05a.094.094 0 0 1-.026-.029.33.33 0 0 1-.024-.055 1.023 1.023 0 0 1-.037-.092l-.07.025.059.147c.048.116.093.234.13.353.016.043.03.087.044.13l.067-.024c-.008-.03-.017-.062-.018-.093a.072.072 0 0 1 .008-.045.181.181 0 0 1 .042-.052c.021-.021.05-.05.087-.082l1.158-1.036-.037-.1-1.395-.025c-.077 0-.14-.004-.19-.008a.43.43 0 0 1-.118-.024.183.183 0 0 1-.073-.05c-.03-.034-.048-.075-.066-.115zm-.32-1.594l-.12.02a1.355 1.355 0 0 1 .068.228c.028.13.055.262.087.392l.038.165c.024.113.051.225.071.34.012.055.023.11.033.166l.066-.014c-.008-.049-.016-.098-.013-.147 0-.032.009-.056.019-.07a.103.103 0 0 1 .051-.041.505.505 0 0 1 .1-.031l1.112-.237a.526.526 0 0 1 .107-.014c.055 0 .086.026.11.073.021.044.034.092.047.14l.07-.015-.038-.165-.026-.116-.022-.093-.14-.679-.011-.055a.729.729 0 0 0-.013-.07l-.011-.073-.01-.088-.242.03a5.442 5.442 0 0 1-.247.02l.015.069a.895.895 0 0 1 .2.036.353.353 0 0 1 .209.173c.045.094.076.25.08.352 0 .05-.009.09-.027.12a.206.206 0 0 1-.092.073c-.125.05-.465.113-.538.129-.022-.1-.053-.21-.054-.312a.264.264 0 0 1 .015-.108.14.14 0 0 1 .055-.069.399.399 0 0 1 .132-.055l-.015-.07a17.92 17.92 0 0 0-.146.036l-.095.026-.147.03-.095.017-.141.023.015.07a.373.373 0 0 1 .128 0c.032.007.061.02.091.044a.335.335 0 0 1 .078.098c.046.09.063.195.084.292l-.674.144c-.03-.137-.067-.28-.066-.421 0-.076.012-.135.033-.177a.248.248 0 0 1 .086-.106c.05-.036.104-.067.157-.097l-.014-.065-.138.035-.221.047zm-.03-1.542a.472.472 0 0 1 .428-.082.338.338 0 0 1 .206.176c.037.08.038.173.036.26a.574.574 0 0 1-.007.072l-.74.024-.006-.038a1.099 1.099 0 0 1-.007-.065c-.012-.125-.013-.256.09-.347zm-.163-.054c-.05.155-.03.399-.017.563.004.099.01.198.01.296l.002.17.072-.003c0-.05.001-.1.014-.147a.118.118 0 0 1 .03-.066.112.112 0 0 1 .057-.032.522.522 0 0 1 .106-.012l1.13-.041c.043-.001.079 0 .109.005.054.009.078.04.094.09a.813.813 0 0 1 .023.146l.07-.003a4.175 4.175 0 0 0-.008-.169l-.004-.119a1.906 1.906 0 0 1-.007-.181l-.004-.108c0-.05-.001-.1-.004-.15l-.07.003c-.001.045-.002.093-.012.138a.099.099 0 0 1-.029.05.107.107 0 0 1-.057.023c-.187.016-.398.017-.572.024l.004-.032.003-.05.001-.047-.001-.043.585-.448a.666.666 0 0 0 .068-.06.231.231 0 0 0 .045-.095c.031-.12.02-.303.016-.425l-.069.002a.865.865 0 0 1-.03.14.43.43 0 0 1-.126.16 5.45 5.45 0 0 1-.182.147l-.217.163c-.063.046-.12.09-.173.131a.62.62 0 0 0-.134-.236.367.367 0 0 0-.178-.11.448.448 0 0 0-.448.136.548.548 0 0 0-.097.19zm.2-2.02l-.122-.017-.004.05a.46.46 0 0 1-.02.092c-.007.028-.016.055-.025.084a.974.974 0 0 0-.024.093.729.729 0 0 0-.003.332c.015.067.04.127.074.181a.418.418 0 0 0 .131.13.43.43 0 0 0 .346.045.481.481 0 0 0 .136-.079.907.907 0 0 0 .126-.13 6.62 6.62 0 0 0 .131-.178c.044-.062.083-.114.117-.157a.513.513 0 0 1 .097-.1.253.253 0 0 1 .087-.05.33.33 0 0 1 .213.017.252.252 0 0 1 .092.058.285.285 0 0 1 .061.101.476.476 0 0 1-.038.332.426.426 0 0 1-.105.12.55.55 0 0 1-.142.075 1.473 1.473 0 0 1-.179.052l-.005.069c.082-.005.163-.008.246-.004l.242.008c.004-.046.008-.093.02-.137l.023-.094a.981.981 0 0 0 .03-.461.653.653 0 0 0-.08-.207.482.482 0 0 0-.144-.153.43.43 0 0 0-.36-.054.355.355 0 0 0-.133.076.818.818 0 0 0-.126.138 7.34 7.34 0 0 0-.15.197c-.047.067-.089.12-.124.161a.784.784 0 0 1-.097.092.195.195 0 0 1-.075.037.331.331 0 0 1-.267-.072.237.237 0 0 1-.056-.081c-.035-.08-.009-.212.036-.282a.308.308 0 0 1 .101-.102.461.461 0 0 1 .14-.056c.062-.015.122-.026.183-.034l.006-.068-.145-.006-.119-.01-.096-.009zm.165-1.393l-.07-.015c-.01.056-.02.113-.032.17-.024.138-.054.278-.09.416-.01.055-.024.11-.037.165l.07.014a.65.65 0 0 1 .049-.139.125.125 0 0 1 .045-.056.106.106 0 0 1 .064-.017c.027 0 .062.004.105.013l1.107.233a.554.554 0 0 1 .104.029c.05.022.067.058.07.11a.772.772 0 0 1-.014.147l.07.016.033-.166.025-.116c.01-.063.023-.124.038-.185l.025-.117c.014-.055.026-.111.038-.167l-.07-.014c-.013.046-.026.095-.047.139a.172.172 0 0 1-.045.057.125.125 0 0 1-.063.016.6.6 0 0 1-.108-.013l-1.107-.232a.45.45 0 0 1-.102-.03.1.1 0 0 1-.05-.041.128.128 0 0 1-.02-.07.662.662 0 0 1 .012-.147zm.98-1.706l-.147-.044-.226-.077L30.603 9a1.452 1.452 0 0 1-.06.23c-.032.097-.068.192-.096.288l-.034.097-.067.195-.032.094c-.031.079-.057.16-.085.239l-.018.052a1.53 1.53 0 0 0-.026.07l-.027.067a.95.95 0 0 1-.042.083 3.944 3.944 0 0 1 .343.112c.048.016.096.034.144.053l.022-.064a1.74 1.74 0 0 1-.158-.118.386.386 0 0 1-.085-.11.316.316 0 0 1-.025-.14c.003-.095.037-.185.067-.271.065.018.133.04.207.066.35.112.7.235 1.045.353.04.014.074.028.1.043a.11.11 0 0 1 .045.047c.008.016.012.039.01.07-.004.05-.019.098-.031.145l.067.023.053-.16.039-.113c.018-.06.037-.12.06-.18l.04-.112.058-.16-.067-.023c-.02.045-.038.092-.065.135a.161.161 0 0 1-.052.05.115.115 0 0 1-.064.007.556.556 0 0 1-.105-.026l-.817-.278-.228-.078a7.705 7.705 0 0 1-.204-.075c.03-.087.06-.184.116-.259a.27.27 0 0 1 .103-.087.367.367 0 0 1 .136-.036c.065-.005.132-.003.198 0l.021-.063zm.936-.826c-.119.27-.214.424-.214.424l-.442-.499-.026-.008.108.015c.137.014.274.029.41.049l.164.019zm.604-.205l-1.535-.168-.048.095.917 1.057c.044.053.081.1.11.142.03.04.05.075.063.11a.245.245 0 0 1 .016.097c-.003.046-.02.088-.038.13l.061.03a1.21 1.21 0 0 0 .045-.093l.033-.064c.02-.047.044-.092.07-.137l.043-.084c.021-.037.042-.077.062-.117l-.065-.032c-.02.037-.041.088-.082.105-.041.018-.07.004-.097-.024a1.677 1.677 0 0 1-.06-.064l-.1-.111a24.988 24.988 0 0 1-.137-.156l.034-.07.046-.092a4.985 4.985 0 0 1 .17-.32l.007-.015.169.022.17.021c.051.005.096.012.132.019.018.002.036.003.053.007.008.002.012.008.013.015 0 .007 0 .02-.005.035a.91.91 0 0 1-.022.057l-.045.089.065.033.067-.136.047-.095c.024-.052.049-.101.078-.15l.047-.093c.024-.043.047-.087.069-.13l-.063-.033a.712.712 0 0 1-.056.085.12.12 0 0 1-.046.032.227.227 0 0 1-.07.012c-.03 0-.069-.004-.118-.01zm.899-.855a.642.642 0 0 0 .036-.218.482.482 0 0 0-.048-.204.429.429 0 0 0-.285-.227.358.358 0 0 0-.154 0 .832.832 0 0 0-.178.057 7.308 7.308 0 0 0-.228.097c-.076.033-.14.06-.19.078a.759.759 0 0 1-.13.03.202.202 0 0 1-.083-.005.327.327 0 0 1-.195-.195.215.215 0 0 1-.008-.097c.01-.088.099-.19.173-.227a.3.3 0 0 1 .139-.038c.049-.002.1.005.15.021.06.017.117.038.174.061l.04-.055c-.04-.027-.082-.052-.121-.078-.017-.012-.17-.116-.178-.123l-.096-.074-.03.04a.515.515 0 0 1-.062.072l-.064.06-.07.068a.743.743 0 0 0-.168.286.588.588 0 0 0-.027.194.428.428 0 0 0 .048.178.424.424 0 0 0 .277.21c.05.008.103.008.158 0a.936.936 0 0 0 .174-.051c.061-.025.129-.055.203-.09.07-.03.13-.057.18-.077a.56.56 0 0 1 .134-.038.265.265 0 0 1 .101 0c.07.014.134.067.177.12.024.03.04.061.05.097.009.034.01.073 0 .118a.48.48 0 0 1-.198.269.438.438 0 0 1-.152.05.565.565 0 0 1-.16-.005 1.427 1.427 0 0 1-.18-.044l-.04.057c.073.036.145.075.214.12.07.04.139.083.206.126.027-.038.054-.076.087-.108l.067-.07a.968.968 0 0 0 .257-.385zm.967-2.792l.051-.045a14.042 14.042 0 0 1-.102-.102l-.081-.088-.065-.07-.078-.093-.038.034a.59.59 0 0 1-.076.055l-.075.045a1.828 1.828 0 0 0-.083.052.756.756 0 0 0-.227.243.586.586 0 0 0-.069.183.415.415 0 0 0 .234.448c.046.02.098.031.153.035a.914.914 0 0 0 .182-.013c.065-.01.138-.025.218-.043a2.98 2.98 0 0 1 .192-.037.554.554 0 0 1 .14-.008c.039.002.072.01.097.022a.32.32 0 0 1 .146.155.225.225 0 0 1 .029.104.256.256 0 0 1-.024.116.48.48 0 0 1-.254.22.445.445 0 0 1-.158.016.581.581 0 0 1-.156-.038 1.463 1.463 0 0 1-.167-.083l-.05.048c.064.05.125.104.183.161.059.056.116.112.173.17.034-.032.068-.063.109-.088.027-.02.054-.037.08-.055a.973.973 0 0 0 .335-.32.668.668 0 0 0 .083-.205.461.461 0 0 0-.003-.209.428.428 0 0 0-.229-.283.377.377 0 0 0-.15-.032.808.808 0 0 0-.186.017c-.07.011-.15.026-.244.045a2.226 2.226 0 0 1-.203.034.613.613 0 0 1-.133.002.188.188 0 0 1-.08-.022.32.32 0 0 1-.12-.136.28.28 0 0 1-.029-.096.23.23 0 0 1 .015-.097c.028-.083.137-.164.218-.183a.305.305 0 0 1 .144-.009.47.47 0 0 1 .142.054c.054.03.106.061.156.096zM35.5 3.461a17.314 17.314 0 0 1-.122-.18c.077-.053.156-.116.245-.143a.281.281 0 0 1 .136-.012.36.36 0 0 1 .13.05c.058.033.11.073.162.114l.055-.039-.095-.121-.08-.113-.059-.08-.066-.102c-.04.04-.082.075-.126.11a.577.577 0 0 0-.057.043c-.083.06-.167.117-.247.179l-.252.18-.081.057c-.072.047-.14.097-.208.145l-.046.033c-.02.012-.04.026-.062.041l-.061.038a.884.884 0 0 1-.082.044c.025.031.05.064.074.097.05.062.095.126.139.192l.087.126.054-.039a1.873 1.873 0 0 1-.059-.186.387.387 0 0 1-.005-.14.317.317 0 0 1 .062-.129c.057-.074.137-.127.213-.181.04.053.084.11.13.173.219.293.432.595.644.891a.539.539 0 0 1 .056.092.11.11 0 0 1 .01.065.147.147 0 0 1-.033.064c-.033.037-.072.068-.11.099l.04.058.137-.101.098-.07a2.75 2.75 0 0 1 .154-.11l.097-.068a5.03 5.03 0 0 0 .142-.099l-.042-.057c-.042.026-.084.053-.13.073a.163.163 0 0 1-.072.011.13.13 0 0 1-.057-.032.519.519 0 0 1-.07-.081l-.502-.697-.141-.195zm2.592.023a.543.543 0 0 0 .056-.24.668.668 0 0 0-.078-.304l-.282-.586c-.03-.064-.111-.225-.102-.301a.101.101 0 0 1 .037-.066.96.96 0 0 1 .128-.078l-.03-.063a3.726 3.726 0 0 1-.131.066l-.092.047c-.085.04-.171.083-.258.12a6.013 6.013 0 0 1-.14.063l.03.063c.057-.024.114-.045.173-.062a.116.116 0 0 1 .089.006c.029.01.059.033.09.074a.894.894 0 0 1 .105.18c.031.063.323.585.347.802a.477.477 0 0 1-.016.197.389.389 0 0 1-.092.156.605.605 0 0 1-.338.169.343.343 0 0 1-.166-.016.421.421 0 0 1-.155-.105.848.848 0 0 1-.142-.22l-.35-.727a.527.527 0 0 1-.038-.098.1.1 0 0 1 .002-.065.128.128 0 0 1 .044-.057.708.708 0 0 1 .124-.08l-.03-.063c-.05.027-.101.052-.154.077a5.362 5.362 0 0 1-.387.185c-.05.024-.102.047-.154.07l.03.063c.046-.02.091-.039.14-.047a.125.125 0 0 1 .073.001.106.106 0 0 1 .053.04.583.583 0 0 1 .053.09l.39.812a.574.574 0 0 0 .127.178.446.446 0 0 0 .309.12.715.715 0 0 0 .154-.019 1.112 1.112 0 0 0 .436-.207.565.565 0 0 0 .145-.175zm1.808-.781c-.085.145-.25.252-.498.322-.092.025-.155.019-.195-.008a.265.265 0 0 1-.098-.156l-.34-1.21a1.615 1.615 0 0 1 .172-.057.974.974 0 0 1 .344-.054.615.615 0 0 1 .265.06c.081.04.155.103.22.187.172.222.277.667.13.916zm.24-.01c.123-.185.145-.414.07-.682-.077-.274-.222-.455-.436-.54-.212-.083-.477-.079-.793.009a9.286 9.286 0 0 1-.154.045c-.14.044-.282.084-.425.118l-.165.043.02.068c.048-.01.096-.022.147-.021a.123.123 0 0 1 .07.014.106.106 0 0 1 .046.048.536.536 0 0 1 .037.098l.304 1.084c.011.04.018.076.02.105.004.056-.02.086-.065.113-.044.024-.092.04-.138.056l.019.068c.056-.016.111-.032.167-.05l.118-.032c.06-.019.121-.036.183-.05a1.7 1.7 0 0 1 .102-.026l.1-.029c.279-.077.604-.18.773-.438zm1.156.024c.058-.005.115-.013.172-.02l-.01-.07a.87.87 0 0 1-.148.003.158.158 0 0 1-.069-.024.117.117 0 0 1-.036-.054.492.492 0 0 1-.023-.105l-.15-1.115a.494.494 0 0 1-.006-.105.105.105 0 0 1 .022-.061.135.135 0 0 1 .06-.041.714.714 0 0 1 .143-.039l-.01-.07a4.86 4.86 0 0 1-.17.025 5.5 5.5 0 0 1-.425.057 3.682 3.682 0 0 1-.17.02l.01.07c.05-.004.1-.008.149 0a.12.12 0 0 1 .068.023c.016.01.029.028.038.054.01.026.017.06.022.103l.15 1.114c.006.042.008.079.006.108-.004.055-.033.082-.081.102-.047.019-.096.027-.144.036l.009.07a4.94 4.94 0 0 0 .168-.024l.12-.016c.062-.01.124-.019.188-.024l.117-.017zm1.895-.586a.743.743 0 0 1-.123.245.513.513 0 0 1-.181.143.523.523 0 0 1-.45-.01.578.578 0 0 1-.19-.156.779.779 0 0 1-.129-.252 1.215 1.215 0 0 1 .005-.674.724.724 0 0 1 .128-.235.522.522 0 0 1 .622-.127.548.548 0 0 1 .191.151c.056.065.1.145.13.242.066.195.061.478-.003.673zm.28-.016c.09-.219.105-.525 0-.742a.732.732 0 0 0-.196-.255.81.81 0 0 0-.281-.15 1.022 1.022 0 0 0-.668.01.856.856 0 0 0-.477.467c-.096.222-.103.54.004.759a.79.79 0 0 0 .485.41c.214.062.445.066.656-.018a.855.855 0 0 0 .477-.48zm1.22-.195a.596.596 0 0 1-.334-.032l.11-.727h.04l.066.006c.125.01.255.034.327.152.074.12.071.309.003.432a.337.337 0 0 1-.212.17zm.706.997l.01-.067c-.026-.01-.052-.017-.077-.03a.639.639 0 0 1-.056-.024.415.415 0 0 1-.136-.153 4.501 4.501 0 0 1-.111-.206 30.917 30.917 0 0 1-.22-.434.626.626 0 0 0 .257-.087.36.36 0 0 0 .141-.155.442.442 0 0 0-.052-.462.515.515 0 0 0-.171-.13c-.144-.077-.388-.102-.554-.12-.098-.014-.197-.027-.295-.045a4.77 4.77 0 0 1-.168-.027l-.01.07c.048.01.098.02.143.04.03.012.049.026.059.042.012.014.02.035.021.062a.496.496 0 0 1-.006.105l-.166 1.112a.565.565 0 0 1-.024.105c-.019.051-.054.07-.107.076-.05.004-.099 0-.148-.004l-.01.07.168.022.118.017c.062.007.121.015.181.026l.107.017.15.024.01-.07c-.045-.01-.092-.018-.134-.036a.114.114 0 0 1-.045-.038.106.106 0 0 1-.012-.06c.018-.185.056-.392.08-.563a1.15 1.15 0 0 1 .08.022.34.34 0 0 1 .046.009l.043.007.338.652c.014.03.031.056.048.078.02.025.048.046.084.063.113.05.297.075.418.092zm2.224-.982l.022-.065c-.047-.014-.094-.028-.14-.044a2.957 2.957 0 0 1-.099-.03c-.09-.03-.18-.058-.27-.09a4.365 4.365 0 0 1-.145-.053l-.022.067c.058.022.114.046.168.075.036.02.046.036.059.066.014.027.02.064.013.114a.95.95 0 0 1-.048.202c-.023.067-.177.645-.312.817a.415.415 0 0 1-.324.18.618.618 0 0 1-.361-.113.338.338 0 0 1-.11-.125.421.421 0 0 1-.037-.183.865.865 0 0 1 .052-.257l.255-.764a.508.508 0 0 1 .041-.096.104.104 0 0 1 .047-.046.132.132 0 0 1 .072-.01c.05.002.098.015.146.027l.022-.065-.165-.05a6.094 6.094 0 0 1-.407-.136l-.16-.056-.022.065c.046.018.093.037.133.065a.12.12 0 0 1 .051.05c.01.017.014.038.01.066a.579.579 0 0 1-.024.102l-.286.852a.566.566 0 0 0-.034.216.461.461 0 0 0 .138.3c.04.037.081.067.125.093a1.109 1.109 0 0 0 .458.151.568.568 0 0 0 .227-.025.553.553 0 0 0 .207-.133.667.667 0 0 0 .157-.273l.206-.617c.023-.068.078-.238.138-.287a.097.097 0 0 1 .071-.02c.05.004.1.017.148.03zm2.385 1.29l.033-.057-.397-.23-1.203.884-.006.024.127-1.54-.397-.231-.034.057a.725.725 0 0 1 .122.092c.019.019.03.043.028.076a.334.334 0 0 1-.04.137c-.105.224-.44.763-.489.847-.036.062-.07.113-.1.153a.277.277 0 0 1-.085.077.134.134 0 0 1-.085.018c-.048-.006-.093-.03-.137-.051l-.035.06c.035.022.071.041.107.06l.077.045c.047.025.094.052.14.082l.078.045c.036.023.087.054.124.075l.036-.06c-.045-.03-.091-.06-.13-.096a.1.1 0 0 1-.03-.067c0-.027.01-.061.033-.104.122-.239.434-.745.52-.89l.005-.042-.12 1.469.076.045 1.226-.896-.55.932a1.052 1.052 0 0 1-.06.092.127.127 0 0 1-.047.04.109.109 0 0 1-.059 0c-.042-.01-.081-.03-.12-.05l-.037.061c.042.025.086.049.128.072l.09.052c.055.028.107.06.158.092l.103.06.148.089.036-.061a.923.923 0 0 1-.119-.088.172.172 0 0 1-.04-.061.105.105 0 0 1 .005-.065.517.517 0 0 1 .047-.097l.577-.978a.84.84 0 0 1 .058-.09.104.104 0 0 1 .045-.039.104.104 0 0 1 .062.001c.046.013.089.036.13.056zm2.18 1.922l.063-.062-.735-.727a1.188 1.188 0 0 0-.047-.05l-.047-.053a.87.87 0 0 1-.057-.073 2.931 2.931 0 0 1-.35.349l.052.05a.597.597 0 0 1 .168-.103.26.26 0 0 1 .153.001.635.635 0 0 1 .197.11c.132.098.249.217.365.333l-1.788.355-.066.067.799.791a10.911 10.911 0 0 1 .1.107c.017.024.036.047.056.07l.185-.157c.065-.052.13-.102.196-.151l-.052-.05a.491.491 0 0 1-.172.09.28.28 0 0 1-.168-.014.922.922 0 0 1-.224-.135c-.154-.12-.29-.26-.428-.395l1.8-.353zm.234 1.687c-.192-.224-.29-.376-.29-.376l.644-.177.018-.019-.06.09a9.548 9.548 0 0 1-.223.345c-.032.05-.06.094-.09.137zm-.08.63l.824-1.298-.065-.085-1.357.357a2.213 2.213 0 0 1-.177.037c-.048.008-.09.01-.125.008a.265.265 0 0 1-.097-.03.394.394 0 0 1-.1-.09l-.054.04c.02.029.042.056.064.082l.044.056c.033.04.064.08.093.123l.056.075.08.108.057-.044c-.025-.034-.061-.075-.06-.12.002-.044.028-.063.065-.076a2.18 2.18 0 0 1 .085-.026 50.274 50.274 0 0 0 .345-.094.954.954 0 0 0 .047.06l.064.083a4.46 4.46 0 0 1 .215.291l.01.015a8.659 8.659 0 0 0-.187.283l-.074.11-.031.044c-.005.005-.011.007-.019.004a.084.084 0 0 1-.03-.019l-.041-.044-.06-.08-.059.044.094.119.063.083c.037.044.071.09.104.136l.063.083c.028.04.058.08.088.12l.057-.043c-.02-.029-.039-.056-.054-.087a.144.144 0 0 1-.008-.055.22.22 0 0 1 .02-.068c.013-.027.033-.061.06-.101zm1.752 1.295c.14-.08.283-.152.429-.218-.044-.084-.07-.17-.103-.26-.071-.227-.163-.42-.34-.59a.907.907 0 0 0-.302-.195.79.79 0 0 0-.34-.052.996.996 0 0 0-.646.325.77.77 0 0 0-.156.298.887.887 0 0 0-.018.35c.026.173.1.351.2.497.027.044.055.085.084.124l.081.112c.026.034.051.07.074.104.149-.076.336-.179.503-.253a.12.12 0 0 1 .059-.014.08.08 0 0 1 .046.024c.03.028.052.066.072.1l.064-.032a5.443 5.443 0 0 1-.066-.12 5.018 5.018 0 0 1-.189-.368 6.619 6.619 0 0 1-.085-.172l-.065.032c.026.056.053.113.068.172.01.037.011.065.005.083a.086.086 0 0 1-.038.049.696.696 0 0 1-.092.054l-.325.166a.688.688 0 0 1-.25-.462.597.597 0 0 1 .032-.252.759.759 0 0 1 .157-.25c.144-.156.42-.304.633-.327.1-.01.19-.002.269.023a.584.584 0 0 1 .216.132c.099.096.215.27.219.413a.332.332 0 0 1-.025.16.517.517 0 0 1-.08.142c-.038.05-.08.097-.123.143l.032.062zm.828 1.365a.473.473 0 0 1-.39.19.33.33 0 0 1-.245-.119.585.585 0 0 1-.115-.313l.708-.214.016.037.024.06c.043.117.08.244.002.359zm.172.01c.007-.162-.074-.394-.13-.549-.03-.095-.06-.189-.086-.284a4.967 4.967 0 0 1-.047-.163l-.069.021a.684.684 0 0 1 .026.146.125.125 0 0 1-.013.07.103.103 0 0 1-.047.047.539.539 0 0 1-.098.039l-1.082.33a.556.556 0 0 1-.105.024c-.055.005-.087-.018-.115-.063a.726.726 0 0 1-.06-.136l-.068.022.052.16.036.114c.02.058.038.115.053.174l.032.102c.013.048.028.097.043.146l.068-.021c-.011-.045-.023-.091-.025-.139a.11.11 0 0 1 .014-.055.129.129 0 0 1 .05-.036c.176-.063.38-.12.546-.17l.005.032c.002.017.006.034.01.05a.3.3 0 0 1 .01.044l.014.041-.449.584a.642.642 0 0 0-.05.076.227.227 0 0 0-.02.103c.002.124.06.299.097.415l.065-.02a.63.63 0 0 1-.007-.082l-.001-.061a.381.381 0 0 1 .08-.189 8.27 8.27 0 0 1 .138-.187l.167-.214c.049-.06.093-.117.133-.17a.66.66 0 0 0 .117.14.52.52 0 0 0 .168.097c.034.01.07.015.107.016a.443.443 0 0 0 .397-.246.519.519 0 0 0 .044-.209zm-.566 1.671l.653.145.025-.009-.095.052c-.12.07-.24.137-.362.201l-.144.08c-.062-.288-.077-.469-.077-.469zm-.29.987l1.34-.762-.016-.105-1.367-.318a1.89 1.89 0 0 1-.174-.05.546.546 0 0 1-.115-.052.263.263 0 0 1-.07-.07.397.397 0 0 1-.046-.127l-.068.011c.006.034.011.068.02.101l.01.07c.012.051.02.101.026.152l.014.093c.005.045.012.088.019.131l.07-.01c-.005-.042-.018-.097.005-.134.023-.039.054-.043.093-.037.02.003.05.007.087.016l.145.032.204.047c.005.029.007.043.014.075l.017.102a4.165 4.165 0 0 1 .053.357l.002.018a11.784 11.784 0 0 0-.3.163 2.253 2.253 0 0 1-.118.062c-.015.008-.03.018-.047.024-.007.003-.013 0-.019-.004a.09.09 0 0 1-.017-.031.579.579 0 0 1-.016-.059l-.016-.099-.071.012.026.15.017.103c.012.056.02.111.027.168l.016.102c.006.049.014.097.022.147l.07-.012a.755.755 0 0 1-.006-.1.144.144 0 0 1 .018-.054.234.234 0 0 1 .05-.05.963.963 0 0 1 .101-.062zm1.272 1.37c-.09.096-.298.116-.414.06a.318.318 0 0 1-.1-.076.342.342 0 0 1-.061-.108.784.784 0 0 1-.015-.3v-.005l.672.012.003.027.004.059c.006.117-.002.24-.089.332zm-.727-.04a.435.435 0 0 1-.086.142.314.314 0 0 1-.119.079.415.415 0 0 1-.312-.01.306.306 0 0 1-.172-.21.492.492 0 0 1 .006-.281.197.197 0 0 1 .057-.073.232.232 0 0 1 .088-.036.557.557 0 0 1 .117-.009l.46.007c.005.111.003.289-.039.392zm.92-.895l-.072-.001c-.005.049-.008.1-.023.146a.121.121 0 0 1-.033.064.097.097 0 0 1-.059.028.52.52 0 0 1-.106.008l-1.131-.018a.504.504 0 0 1-.108-.01c-.054-.012-.077-.045-.09-.096-.01-.048-.012-.097-.014-.146l-.071-.002a4.439 4.439 0 0 0 0 .173l-.003.122c.002.061.001.122-.003.182l-.001.103c0 .035-.002.069-.004.1l-.001.08c-.002.103.007.197.027.282.02.086.05.16.091.222a.454.454 0 0 0 .156.147c.12.069.307.078.424-.004a.56.56 0 0 0 .22-.34l.01.017a.503.503 0 0 0 .197.212c.101.06.251.06.353 0a.366.366 0 0 0 .129-.122.567.567 0 0 0 .072-.178c.033-.13.028-.267.028-.4v-.186c0-.071.001-.143.006-.214 0-.056.002-.113.005-.169zm.68.633c0 7.507-6.121 13.592-13.672 13.592-7.55 0-13.672-6.085-13.672-13.592 0-7.507 6.121-13.592 13.672-13.592 7.55 0 13.672 6.085 13.672 13.592zm.27 0C56.65 6.205 50.407 0 42.708 0c-7.7 0-13.943 6.205-13.943 13.86 0 7.655 6.242 13.86 13.943 13.86 7.7 0 13.942-6.205 13.942-13.86zM9.633 15.635l-2.61-7.574-2.604 7.574h5.214zm-5.752 1.57l-1.657 4.813H0L5.768 5.803h2.535l5.768 16.215h-2.252l-1.654-4.813H3.88zm17.93-7.194H18.78c-.027-1.514-.051-2.979 2.159-2.979.565 0 1.104.095 1.644.19v-1.49l-1.799-.165c-3.16-.284-4.112 1.914-4.009 4.444h-2.313v1.465h2.313v10.542h2.005V11.476h3.032v-1.465zM67.858 9.838c0-.537-.34-.811-1.27-1.348-.995-.584-1.544-.933-1.544-1.762 0-.867.843-1.489 1.848-1.489.634 0 .872.15 1.383.18h.085c0 .225-.009.46-.009.687 0 .226.01.612.01.839h-.076c-.18-.764-.418-1.536-1.488-1.536-.644 0-.948.546-.948 1.074 0 .433.17.678 1.185 1.29 1.147.68 1.63.971 1.63 1.763 0 1.008-1.005 1.63-2.132 1.63-.702 0-.863-.16-1.536-.16-.019-.509-.038-1.018-.113-1.526h.085c.227.753.654 1.507 1.677 1.507.929 0 1.213-.546 1.213-1.15M71.602 11.166h-.389L69.896 8.02c-.294-.697-.38-.726-.73-.745V7.2s.53.01.824.01c.313 0 .92-.01.92-.01v.075c-.323.02-.455.067-.455.198 0 .085.19.519 1.241 3.025l.91-2.243c.076-.17.133-.31.133-.47 0-.302-.2-.462-.654-.51V7.2s.578.01.89.01c.351 0 .825-.01.825-.01v.075c-.398.048-.692.33-.967.97l-1.231 2.922zM75.022 8.773h2.02c-.02-.613-.105-1.517-.91-1.517-.797 0-1.072.725-1.11 1.517zm0 .198c0 .876.55 1.724 1.668 1.724.483 0 1.09-.235 1.09-.235l.028.065s-.72.641-1.686.641c-.967 0-1.915-.64-1.915-1.865 0-1.245.796-2.253 1.99-2.253 1.034 0 1.65.66 1.65 1.763v.16h-2.825zM83.239 11.006l-1.44.217v-.82c-.228.226-.835.763-1.565.763-.967 0-1.26-.612-1.26-1.404 0-.358.01-1.272.01-1.319 0-.867 0-.943-.645-1.018V7.34l1.374-.226c-.01.5-.01 1.3-.01 1.3v.905c0 1.131.313 1.339.939 1.339.56 0 .947-.189 1.146-.293v-1.78c0-1.066-.142-1.085-.777-1.16V7.34l1.517-.226c-.01.5-.02 1.499-.02 1.499v1.385c0 .81.048.923.73.923v.085zM86.915 5.305l.057.047-1.232 1.366-1.307-1.366.056-.047 1.242.792 1.184-.792zm-2.312 3.788c0 .8.483 1.574 1.364 1.574.759 0 1.204-.264 1.204-.264l.038.075s-.578.688-1.62.688c-.797 0-1.801-.49-1.801-1.865 0-1.603 1.194-2.253 2.246-2.253.492 0 1.146.18 1.28.443a.567.567 0 0 1-.54.5c-.01.018-.408-.726-1.1-.726-.578 0-1.071.537-1.071 1.828zM88.896 4.702c.256 0 .483.141.483.48 0 .33-.227.481-.483.481-.265 0-.483-.15-.483-.48 0-.34.218-.481.483-.481zm.284 5.55c0 .462.038.707.777.754v.075s-.815-.018-1.137-.018c-.322 0-1.137.018-1.137.018v-.075c.748-.047.777-.292.777-.754V8.509c0-.886-.047-1.084-.815-1.168v-.076l1.554-.226c-.01.49-.019 1.498-.019 1.498v1.715zM91.919 10.252c0 .462.038.707.777.754v.075s-.815-.018-1.137-.018c-.322 0-1.138.018-1.138.018v-.075c.75-.047.778-.292.778-.754V6.078c0-.895-.048-1.084-.815-1.16v-.084l1.554-.227c-.01.5-.019 1.499-.019 1.499v4.146zM94.373 4.702c.256 0 .484.141.484.48 0 .33-.228.481-.484.481-.265 0-.484-.15-.484-.48 0-.34.219-.481.484-.481zm.284 5.55c0 .462.038.707.777.754v.075s-.815-.018-1.137-.018c-.322 0-1.137.018-1.137.018v-.075c.749-.047.777-.292.777-.754V8.509c0-.886-.048-1.084-.815-1.168v-.076l1.554-.226c-.01.49-.019 1.498-.019 1.498v1.715zM98.666 5.314l.057.048-1.232 1.366-1.308-1.366.057-.048 1.25.792 1.176-.792zm-.427 5.032c0-.376-.18-.537-.985-.98-.398-.216-1.147-.603-1.147-1.178 0-.81.806-1.14 1.497-1.14.418 0 .759.113 1.119.132-.01.245-.019.471-.019.707 0 .141 0 .282.01.433h-.086c-.152-.49-.407-1.112-1.09-1.112-.502 0-.767.16-.767.641 0 .434.606.754.947.924.862.452 1.166.753 1.166 1.262 0 .717-.787 1.131-1.573 1.131-.417 0-.825-.16-1.213-.16a24.04 24.04 0 0 0-.067-1.169h.076c.199.481.484 1.169 1.185 1.169.625 0 .947-.273.947-.66zM102.466 10.657l.029.076s-.607.433-1.29.433c-.587 0-1.023-.207-1.023-.791l.019-2.95h-.692V7.35c.607-.141 1.175-.434 1.327-1.112h.076v1.027h1.525v.16h-1.525v2.46c0 .622.34.867.834.867.388 0 .72-.095.72-.095M103.792 8.773h2.02c-.02-.613-.105-1.517-.91-1.517-.797 0-1.072.725-1.11 1.517zm0 .198c0 .876.55 1.724 1.668 1.724.483 0 1.09-.235 1.09-.235l.029.065s-.72.641-1.687.641c-.967 0-1.915-.64-1.915-1.865 0-1.245.796-2.253 1.99-2.253 1.034 0 1.65.66 1.65 1.763v.16h-2.825zM113.705 11.006l-1.44.217v-.82c-.228.226-.835.763-1.564.763-.967 0-1.26-.612-1.26-1.404 0-.358.009-1.272.009-1.319 0-.867 0-.943-.644-1.018V7.34l1.373-.226c-.009.5-.009 1.3-.009 1.3v.905c0 1.131.313 1.339.939 1.339.559 0 .947-.189 1.146-.293v-1.78c0-1.066-.142-1.085-.777-1.16V7.34l1.517-.226c-.01.5-.02 1.499-.02 1.499v1.385c0 .81.048.923.73.923v.085zM117.164 5.314h3.355v.189l-3.649 5.4h.313c2.814-.03 3.383-.387 3.497-1.292h.075c-.075.5-.122 1.018-.16 1.518a11.13 11.13 0 0 0-.939-.048h-3.668v-.217l3.593-5.37h-.578c-2.123 0-2.56.33-2.673 1.31h-.076c.02-.255.02-.51.02-.764 0-.264 0-.518-.02-.773.284.028.702.047.91.047M122.926 10.723c.379 0 .596-.113.748-.235v-.047l.02-1.32c-.57.01-1.47.217-1.47.962 0 .461.417.64.702.64m.748-.188c-.199.254-.578.631-1.175.631-.597 0-1.09-.339-1.09-.895 0-1.027 1.384-1.263 2.294-1.272l.009-.424c.01-.518-.132-.99-.938-.99-.682 0-1.08.32-1.08.32l-.047-.046s.54-.81 1.478-.81c.872 0 1.307.47 1.307 1.196-.009.744-.009.933-.038 1.677 0 .84.02.867.844.867v.085c-.417.217-.72.292-.948.292-.426 0-.578-.283-.616-.631M128.413 8.594c0-1.037-.417-1.357-.939-1.357-.512 0-.872.32-.872 1.338 0 .905.455 1.29.939 1.29.616 0 .872-.385.872-1.271m-1.014 4.702c.919 0 1.64-.509 1.64-1.216 0-.509-.541-.546-1.062-.584l-1.005-.066-.247-.019c-.284.226-.464.471-.464.858 0 .735.389 1.027 1.138 1.027m-1.81-.83c0-.48.54-.838 1.099-1.064l-.076-.02c-.313-.093-.502-.329-.502-.593 0-.32.331-.565.739-.8l-.066-.01c-.446-.141-.882-.556-.882-1.291 0-1.13.768-1.64 1.687-1.64.455 0 .777.113 1.1.32l1.175-.197v.433l-1.1-.122c.228.273.36.584.36 1.008 0 1.065-.682 1.555-1.715 1.555-.322 0-.493-.038-.53-.047-.153.254-.17.348-.17.452 0 .141.16.32.681.349l1.147.084c.74.048 1.118.359 1.118.886 0 1.084-1.071 1.715-2.407 1.715-1.147 0-1.659-.48-1.659-1.017M133.084 8s-.19-.245-.568-.245c-.303 0-.645.17-.825.415v2.082c0 .65.19.707 1.014.754v.075s-1.052-.019-1.374-.019c-.322 0-1.137.02-1.137.02v-.076c.748-.047.777-.292.777-.754V8.584c0-.895-.047-1.083-.815-1.159V7.34l1.526-.226c-.01.226-.01.763-.01 1.009.284-.519.749-1.075 1.166-1.075.36 0 .512.208.512.434a.655.655 0 0 1-.266.518M134.61 8.773h2.019c-.02-.613-.105-1.517-.91-1.517-.796 0-1.071.725-1.11 1.517zm0 .198c0 .876.55 1.724 1.668 1.724.483 0 1.09-.235 1.09-.235l.028.065s-.72.641-1.687.641c-.966 0-1.914-.64-1.914-1.865 0-1.245.796-2.253 1.99-2.253 1.033 0 1.649.66 1.649 1.763v.16h-2.824zM140.306 10.959c.738 0 1.345-.565 1.345-1.762 0-.839-.398-1.602-1.29-1.602-.473 0-.833.122-1.07.245v2.733c.247.32.692.386 1.015.386m-1.744-1.819V6.078c0-.895-.038-1.084-.816-1.16v-.084l1.555-.226c-.01.5-.01 1.498-.01 1.498v1.658c.35-.339.92-.716 1.498-.716.824 0 1.668.632 1.668 1.857 0 1.47-1.128 2.261-2.398 2.261-.502 0-1.118-.085-1.526-.301 0 0 .029-.867.029-1.725M147.887 11.006l-1.441.217v-.82c-.228.226-.834.763-1.564.763-.966 0-1.26-.612-1.26-1.404 0-.358.01-1.272.01-1.319 0-.867 0-.943-.645-1.018V7.34l1.374-.226c-.01.5-.01 1.3-.01 1.3v.905c0 1.131.313 1.339.94 1.339.558 0 .947-.189 1.146-.293v-1.78c0-1.066-.143-1.085-.778-1.16V7.34l1.517-.226c-.01.5-.019 1.499-.019 1.499v1.385c0 .81.047.923.73.923v.085zM66.21 19.364c.198.01.52.019.975.019.417 0 .787 0 .996-.02l-.948-2.562c-.398.961-.749 1.856-1.024 2.563zm1.184-3.496h.749l1.876 4.975c.265.66.341.726.72.764v.075s-.938-.019-1.24-.019c-.333 0-1.328.019-1.328.019v-.075c.37 0 .71-.01.71-.217 0-.085-.52-1.508-.634-1.838-.303-.01-.759-.01-1.062-.01-.16 0-.758 0-1.042.01-.313.801-.512 1.338-.521 1.395-.143.471.426.65.89.66v.075s-1.052-.019-1.355-.019c-.322 0-.786.019-.786.019v-.075c.474-.057.843-.35 1.07-.915l1.953-4.824zM74.208 18.789a.946.946 0 0 0-.759-.386.95.95 0 0 0-.606.226v2.224c0 .584.284.706 1.014.754v.075s-1.251-.019-1.573-.019c-.323 0-1.336.019-1.336.019v-.075c.748-.048.767-.283.767-.754v-1.668c0-.792-.037-1.056-.815-1.14v-.076l1.952-.283c-.01.227-.01.519-.01.858.285-.443.702-.895 1.167-.895.331 0 .597.16.597.48 0 .321-.2.537-.398.66M79.543 19.09c0 .802 0 1.018-.01 1.763.019.527.066.697.787.754v.075s-1.014-.019-1.337-.019c-.321 0-1.336.019-1.336.019v-.075c.749-.048.768-.283.768-.754v-1.546c0-.772-.294-1.018-.71-1.018-.352 0-.73.104-1.006.283v2.28c0 .472.038.707.778.755v.075s-1.014-.019-1.337-.019c-.322 0-1.336.019-1.336.019v-.075c.75-.048.767-.283.767-.754v-4.137c0-.905-.037-1.093-.814-1.178v-.075l1.961-.283c-.01.5-.019 1.527-.019 1.527v1.8c.257-.293.844-.858 1.593-.858.966 0 1.25.697 1.25 1.442M81.968 15.434a.613.613 0 1 1 0 1.225.601.601 0 0 1-.616-.612c0-.34.266-.613.616-.613zm.55 5.419c0 .47.038.707.777.754v.075s-1.014-.02-1.336-.02c-.322 0-1.336.02-1.336.02v-.075c.749-.047.767-.283.767-.754v-1.706c0-.904-.038-1.102-.814-1.178v-.084l1.961-.283c-.01.499-.02 1.536-.02 1.536v1.715zM86.83 21.183l.038.103s-.673.48-1.47.48c-.7 0-1.222-.216-1.222-.8l.01-2.94h-.683v-.076c.692-.103 1.564-.744 1.725-1.45h.085v1.365h1.517v.16h-1.517v2.45c0 .651.38.792.778.792.293 0 .578-.037.739-.084M88.412 19.336v.037h1.611c0-.96-.18-1.526-.682-1.526-.588 0-.929.763-.929 1.489zm.01.235c.076 1.074.625 1.659 1.64 1.659.34 0 .615-.066.956-.217l.057.085s-.597.669-1.772.669c-1.071 0-2.104-.556-2.104-1.922 0-1.414 1.033-2.196 2.189-2.196 1.119 0 1.83.622 1.848 1.762v.16h-2.814zM94.638 19.157l1.706 2.091c.256.311.37.359.682.359v.075c-.255 0-.521-.019-1.004-.019-.323 0-1.061.01-1.384.019v-.075c.17-.02.465-.048.465-.236 0-.047-.029-.104-.086-.179l-1.232-1.489 1.412-1.32a.291.291 0 0 0 .085-.197c0-.198-.312-.311-.568-.32v-.076s.824.019 1.071.019c.246 0 .938-.019.938-.019v.075c-.635.029-.91.18-1.393.641l-.692.65zm-1.07 1.696c0 .471.066.716.69.754v.075s-.928-.019-1.25-.019c-.322 0-1.336.019-1.336.019v-.075c.749-.048.767-.283.767-.754v-4.137c0-.905-.038-1.093-.814-1.178v-.075l1.961-.283c-.01.5-.019 1.526-.019 1.526v4.147zM100.4 21.183l.038.103s-.673.48-1.47.48c-.7 0-1.222-.216-1.222-.8l.01-2.94h-.683v-.076c.692-.103 1.564-.744 1.725-1.45h.086v1.365h1.516v.16h-1.516v2.45c0 .651.379.792.777.792.293 0 .578-.037.739-.084M102.001 19.656c0 1.329.332 1.903 1.042 1.903.759 0 1.005-.556 1.005-1.8 0-1.385-.417-1.912-1.033-1.912-.777 0-1.014.66-1.014 1.809m-1.223.075c0-1.102.9-2.082 2.209-2.082 1.223 0 2.274.565 2.274 2.007 0 1.178-.91 2.11-2.142 2.11-1.374 0-2.34-.621-2.34-2.035M110.473 19.09c0 .802 0 1.018-.01 1.763.02.527.067.697.787.754v.075s-1.014-.019-1.336-.019c-.322 0-1.336.019-1.336.019v-.075c.748-.048.768-.283.768-.754v-1.546c0-.772-.294-1.018-.711-1.018-.35 0-.73.104-1.005.283v2.28c0 .472.038.707.777.755v.075s-1.014-.019-1.336-.019c-.322 0-1.336.019-1.336.019v-.075c.748-.048.767-.283.767-.754v-1.668c0-.792-.037-1.056-.815-1.14v-.076l1.953-.282c-.01.226-.01.518-.01.744v.075c.256-.292.844-.857 1.592-.857.967 0 1.251.697 1.251 1.442M113.809 20.956c0-.32-.19-.48-.976-.914-.446-.245-1.119-.622-1.119-1.253 0-.707.683-1.14 1.659-1.14.492 0 .834.113 1.194.141-.01.17-.01.594-.01.877v.254h-.075c-.161-.622-.512-1.074-1.062-1.074-.388 0-.682.132-.682.509 0 .348.35.64.9.904.92.453 1.213.81 1.213 1.385 0 .773-.872 1.122-1.8 1.122-.493 0-.939-.151-1.26-.16-.02-.377-.038-.783-.077-1.16h.086c.16.547.625 1.113 1.184 1.113.654 0 .825-.311.825-.604M118.31 19.157l1.706 2.091c.256.311.37.359.683.359v.075c-.256 0-.522-.019-1.005-.019-.322 0-1.061.01-1.383.019v-.075c.17-.02.464-.048.464-.236 0-.047-.029-.104-.085-.179l-1.233-1.489 1.413-1.32a.294.294 0 0 0 .085-.197c0-.198-.313-.311-.569-.32v-.076s.825.019 1.071.019.939-.019.939-.019v.075c-.635.029-.91.18-1.394.641l-.691.65zm-1.07 1.696c0 .471.065.716.692.754v.075s-.93-.019-1.251-.019c-.323 0-1.337.019-1.337.019v-.075c.749-.048.768-.283.768-.754v-4.137c0-.905-.038-1.093-.816-1.178v-.075l1.962-.283c-.009.5-.018 1.526-.018 1.526v4.147zM122.186 15.434a.613.613 0 1 1 0 1.225.601.601 0 0 1-.616-.612c0-.34.265-.613.616-.613zm.55 5.419c0 .47.038.707.777.754v.075s-1.014-.02-1.336-.02c-.322 0-1.337.02-1.337.02v-.075c.75-.047.768-.283.768-.754v-1.706c0-.904-.038-1.102-.815-1.178v-.084l1.962-.283c-.01.499-.02 1.536-.02 1.536v1.715zM127.455 16.96v.906h1.251v.16h-1.251v2.827c0 .66.19.706 1.023.754v.075s-1.26-.019-1.582-.019c-.322 0-1.336.019-1.336.019v-.075c.748-.048.767-.283.767-.754v-2.827h-.749v-.085l.749-.094v-.358c0-1.282.806-2.28 2.095-2.28.493 0 1.203.169 1.336.433-.028.282-.408.612-.663.612-.01.01-.38-.8-.891-.8-.578 0-.749.555-.749 1.507M130.705 21.314a.783.783 0 0 0 .436-.132l.029-1.45c-.692.047-1.08.33-1.08.904 0 .434.255.678.615.678m.436-.047c-.218.198-.625.5-1.146.5-.778 0-1.128-.48-1.128-.933 0-.858 1.222-1.178 2.303-1.216v-.452c0-.66-.417-.839-.872-.839-.37 0-.796.085-1.005.198l-.038-.057s.57-.82 1.706-.82c.844 0 1.336.463 1.336 1.188-.01.782-.01.99-.038 1.658.01.679.086.877.844.877v.076c-.483.263-.862.32-1.147.32-.53 0-.777-.274-.815-.5M136.334 19.157l1.706 2.091c.256.311.37.359.682.359v.075c-.255 0-.52-.019-1.004-.019-.322 0-1.061.01-1.384.019v-.075c.171-.02.465-.048.465-.236 0-.047-.029-.104-.086-.179l-1.231-1.489 1.412-1.32a.291.291 0 0 0 .084-.197c0-.198-.312-.311-.568-.32v-.076s.825.019 1.071.019.938-.019.938-.019v.075c-.635.029-.91.18-1.393.641l-.692.65zm-1.07 1.696c0 .471.066.716.691.754v.075s-.929-.019-1.25-.019c-.323 0-1.337.019-1.337.019v-.075c.749-.048.768-.283.768-.754v-4.137c0-.905-.038-1.093-.815-1.178v-.075l1.961-.283c-.01.5-.018 1.526-.018 1.526v4.147zM144.361 21.493l-1.952.283c.01-.226.01-.518.01-.857-.276.282-.891.848-1.584.848-.975 0-1.26-.594-1.26-1.338l.01-1.282c0-.904-.048-1.102-.825-1.178v-.085l1.962-.282c-.01.5-.019 1.536-.019 1.536v1.074c0 .782.303.914.72.914.474 0 .787-.141.995-.273v-1.706c0-.904-.123-1.102-.9-1.178v-.085l2.037-.282c-.01.5-.01 1.536-.01 1.536v1.14c.01.791.048 1.055.816 1.14v.075zM146.569 20.853c0 .47.038.707.777.753v.076s-1.014-.019-1.336-.019c-.323 0-1.337.019-1.337.019v-.076c.749-.046.768-.282.768-.753v-4.137c0-.905-.038-1.093-.815-1.178v-.075l1.962-.283c-.01.5-.02 1.527-.02 1.527v4.146zM150.88 21.183l.039.103s-.673.48-1.47.48c-.7 0-1.222-.216-1.222-.8l.01-2.94h-.683v-.076c.692-.103 1.564-.744 1.725-1.45h.085v1.365h1.517v.16h-1.517v2.45c0 .651.38.792.778.792.293 0 .578-.037.739-.084M152.463 19.336v.037h1.611c0-.96-.18-1.526-.682-1.526-.588 0-.929.763-.929 1.489zm.01.235c.076 1.074.625 1.659 1.639 1.659.341 0 .616-.066.957-.217l.057.085s-.597.669-1.772.669c-1.071 0-2.104-.556-2.104-1.922 0-1.414 1.033-2.196 2.189-2.196 1.119 0 1.83.622 1.848 1.762v.16h-2.814zM158.954 21.183l.038.103s-.673.48-1.469.48c-.701 0-1.222-.216-1.222-.8l.01-2.94h-.683v-.076c.692-.103 1.564-.744 1.725-1.45h.085v1.365h1.516v.16h-1.516v2.45c0 .651.38.792.778.792.293 0 .577-.037.738-.084"/>
    </g>
</svg>